<?xml version="1.0" encoding="UTF-8" standalone="no"?>
<!DOCTYPE svg PUBLIC "-//W3C//DTD SVG 1.1//EN"
 "http://www.w3.org/Graphics/SVG/1.1/DTD/svg11.dtd">
<!-- Generated by graphviz version 15.1.0 (0)
 -->
<!-- Title: control_endpoint Pages: 1 -->
<svg width="575pt" height="180pt"
 viewBox="0.00 0.00 575.00 180.00" xmlns="http://www.w3.org/2000/svg" xmlns:xlink="http://www.w3.org/1999/xlink">
<g id="graph0" class="graph" transform="scale(1 1) rotate(0) translate(4 176.25)">
<title>control_endpoint</title>
<polygon fill="white" stroke="none" points="-4,4 -4,-176.25 570.75,-176.25 570.75,4 -4,4"/>
<text xml:space="preserve" text-anchor="middle" x="283.38" y="-156.85" font-family="Helvetica,sans-Serif" font-size="12.00">State Machine: USBControlEndpoint</text>
<!-- DATA_IN -->
<g id="node1" class="node">
<title>DATA_IN</title>
<path fill="#e8e8e8" stroke="black" d="M56.5,-112C56.5,-112 12,-112 12,-112 6,-112 0,-106 0,-100 0,-100 0,-88 0,-88 0,-82 6,-76 12,-76 12,-76 56.5,-76 56.5,-76 62.5,-76 68.5,-82 68.5,-88 68.5,-88 68.5,-100 68.5,-100 68.5,-106 62.5,-112 56.5,-112"/>
<text xml:space="preserve" text-anchor="middle" x="34.25" y="-88.95" font-family="Times,serif" font-size="14.00">DATA IN</text>
</g>
<!-- SETUP -->
<g id="node3" class="node">
<title>SETUP</title>
<path fill="#c0e0c0" stroke="black" d="M300,-112C300,-112 266.75,-112 266.75,-112 260.75,-112 254.75,-106 254.75,-100 254.75,-100 254.75,-88 254.75,-88 254.75,-82 260.75,-76 266.75,-76 266.75,-76 300,-76 300,-76 306,-76 312,-82 312,-88 312,-88 312,-100 312,-100 312,-106 306,-112 300,-112"/>
<path fill="none" stroke="black" d="M304,-116C304,-116 262.75,-116 262.75,-116 256.75,-116 250.75,-110 250.75,-104 250.75,-104 250.75,-84 250.75,-84 250.75,-78 256.75,-72 262.75,-72 262.75,-72 304,-72 304,-72 310,-72 316,-78 316,-84 316,-84 316,-104 316,-104 316,-110 310,-116 304,-116"/>
<text xml:space="preserve" text-anchor="middle" x="283.38" y="-88.95" font-family="Times,serif" font-size="14.00">SETUP</text>
</g>
<!-- DATA_IN&#45;&gt;SETUP -->
<g id="edge1" class="edge">
<title>DATA_IN&#45;&gt;SETUP</title>
<path fill="none" stroke="black" d="M68.84,-86.26C112.97,-82.35 190.55,-82.1 239.06,-85.5"/>
<polygon fill="black" stroke="black" points="238.67,-88.98 248.92,-86.29 239.24,-82 238.67,-88.98"/>
</g>
<!-- STATUS_OUT -->
<g id="node5" class="node">
<title>STATUS_OUT</title>
<path fill="#e8e8e8" stroke="black" d="M195.75,-36C195.75,-36 123.5,-36 123.5,-36 117.5,-36 111.5,-30 111.5,-24 111.5,-24 111.5,-12 111.5,-12 111.5,-6 117.5,0 123.5,0 123.5,0 195.75,0 195.75,0 201.75,0 207.75,-6 207.75,-12 207.75,-12 207.75,-24 207.75,-24 207.75,-30 201.75,-36 195.75,-36"/>
<text xml:space="preserve" text-anchor="middle" x="159.62" y="-12.95" font-family="Times,serif" font-size="14.00">STATUS OUT</text>
</g>
<!-- DATA_IN&#45;&gt;STATUS_OUT -->
<g id="edge2" class="edge">
<title>DATA_IN&#45;&gt;STATUS_OUT</title>
<path fill="none" stroke="black" d="M65.12,-75.6C81.36,-65.59 101.66,-53.09 119.2,-42.29"/>
<polygon fill="black" stroke="black" points="120.64,-45.51 127.32,-37.29 116.97,-39.55 120.64,-45.51"/>
</g>
<!-- DATA_OUT -->
<g id="node2" class="node">
<title>DATA_OUT</title>
<path fill="#e8e8e8" stroke="black" d="M429,-150C429,-150 371,-150 371,-150 365,-150 359,-144 359,-138 359,-138 359,-126 359,-126 359,-120 365,-114 371,-114 371,-114 429,-114 429,-114 435,-114 441,-120 441,-126 441,-126 441,-138 441,-138 441,-144 435,-150 429,-150"/>
<text xml:space="preserve" text-anchor="middle" x="400" y="-126.95" font-family="Times,serif" font-size="14.00">DATA OUT</text>
</g>
<!-- DATA_OUT&#45;&gt;SETUP -->
<g id="edge3" class="edge">
<title>DATA_OUT&#45;&gt;SETUP</title>
<path fill="none" stroke="black" d="M358.64,-129.06C348.34,-126.19 337.23,-122.54 326.83,-118.62"/>
<polygon fill="black" stroke="black" points="328.3,-115.43 317.71,-115.01 325.72,-121.94 328.3,-115.43"/>
</g>
<!-- STATUS_IN -->
<g id="node4" class="node">
<title>STATUS_IN</title>
<path fill="#e8e8e8" stroke="black" d="M554.75,-74C554.75,-74 496,-74 496,-74 490,-74 484,-68 484,-62 484,-62 484,-50 484,-50 484,-44 490,-38 496,-38 496,-38 554.75,-38 554.75,-38 560.75,-38 566.75,-44 566.75,-50 566.75,-50 566.75,-62 566.75,-62 566.75,-68 560.75,-74 554.75,-74"/>
<text xml:space="preserve" text-anchor="middle" x="525.38" y="-50.95" font-family="Times,serif" font-size="14.00">STATUS IN</text>
</g>
<!-- DATA_OUT&#45;&gt;STATUS_IN -->
<g id="edge4" class="edge">
<title>DATA_OUT&#45;&gt;STATUS_IN</title>
<path fill="none" stroke="black" d="M430.87,-113.6C447.11,-103.59 467.41,-91.09 484.95,-80.29"/>
<polygon fill="black" stroke="black" points="486.39,-83.51 493.07,-75.29 482.72,-77.55 486.39,-83.51"/>
</g>
<!-- SETUP&#45;&gt;DATA_IN -->
<g id="edge5" class="edge">
<title>SETUP&#45;&gt;DATA_IN</title>
<path fill="none" stroke="black" d="M250.43,-101.59C207.05,-105.6 129.3,-105.94 80.09,-102.61"/>
<polygon fill="black" stroke="black" points="80.59,-99.14 70.34,-101.85 80.04,-106.12 80.59,-99.14"/>
</g>
<!-- SETUP&#45;&gt;DATA_OUT -->
<g id="edge6" class="edge">
<title>SETUP&#45;&gt;DATA_OUT</title>
<path fill="none" stroke="black" d="M316.3,-94.72C330.38,-98.19 347.01,-103.57 361.65,-109.35"/>
<polygon fill="black" stroke="black" points="359.92,-112.42 370.5,-113.03 362.61,-105.96 359.92,-112.42"/>
</g>
<!-- SETUP&#45;&gt;STATUS_IN -->
<g id="edge7" class="edge">
<title>SETUP&#45;&gt;STATUS_IN</title>
<path fill="none" stroke="black" d="M316.25,-81.29C356.06,-71.28 424.72,-59.91 472.24,-55.1"/>
<polygon fill="black" stroke="black" points="472.39,-58.6 482.03,-54.19 471.74,-51.63 472.39,-58.6"/>
</g>
<!-- STATUS_IN&#45;&gt;SETUP -->
<g id="edge8" class="edge">
<title>STATUS_IN&#45;&gt;SETUP</title>
<path fill="none" stroke="black" d="M483.53,-70.88C440.12,-80.98 371.76,-91.86 327.5,-95.75"/>
<polygon fill="black" stroke="black" points="327.45,-92.24 317.75,-96.51 327.99,-99.22 327.45,-92.24"/>
</g>
<!-- STATUS_OUT&#45;&gt;SETUP -->
<g id="edge9" class="edge">
<title>STATUS_OUT&#45;&gt;SETUP</title>
<path fill="none" stroke="black" d="M190.1,-36.4C205.39,-45.95 224.33,-57.77 241.06,-68.21"/>
<polygon fill="black" stroke="black" points="238.99,-71.05 249.33,-73.37 242.7,-65.11 238.99,-71.05"/>
</g>
</g>
</svg>
