<?xml version="1.0" encoding="UTF-8" standalone="no"?>
<!DOCTYPE svg PUBLIC "-//W3C//DTD SVG 1.1//EN"
 "http://www.w3.org/Graphics/SVG/1.1/DTD/svg11.dtd">
<!-- Generated by graphviz version 15.1.0 (0)
 -->
<!-- Title: control_endpoint Pages: 1 -->
<svg width="583pt" height="185pt"
 viewBox="0.00 0.00 583.00 185.00" xmlns="http://www.w3.org/2000/svg" xmlns:xlink="http://www.w3.org/1999/xlink">
<g id="graph0" class="graph" transform="scale(1 1) rotate(0) translate(4 180.75)">
<title>control_endpoint</title>
<polygon fill="white" stroke="none" points="-4,4 -4,-180.75 578.75,-180.75 578.75,4 -4,4"/>
<text xml:space="preserve" text-anchor="middle" x="287.38" y="-161.35" font-family="Helvetica,sans-Serif" font-size="12.00">State Machine: USBControlEndpoint (EP0)</text>
<!-- SETUP -->
<g id="node1" class="node">
<title>SETUP</title>
<path fill="#c0e0c0" stroke="black" d="M49.25,-40C49.25,-40 16,-40 16,-40 10,-40 4,-34 4,-28 4,-28 4,-16 4,-16 4,-10 10,-4 16,-4 16,-4 49.25,-4 49.25,-4 55.25,-4 61.25,-10 61.25,-16 61.25,-16 61.25,-28 61.25,-28 61.25,-34 55.25,-40 49.25,-40"/>
<path fill="none" stroke="black" d="M53.25,-44C53.25,-44 12,-44 12,-44 6,-44 0,-38 0,-32 0,-32 0,-12 0,-12 0,-6 6,0 12,0 12,0 53.25,0 53.25,0 59.25,0 65.25,-6 65.25,-12 65.25,-12 65.25,-32 65.25,-32 65.25,-38 59.25,-44 53.25,-44"/>
<text xml:space="preserve" text-anchor="middle" x="32.62" y="-16.95" font-family="Times,serif" font-size="14.00">SETUP</text>
</g>
<!-- DATA_IN -->
<g id="node2" class="node">
<title>DATA_IN</title>
<path fill="#e8e8e8" stroke="black" d="M166.75,-85C166.75,-85 122.25,-85 122.25,-85 116.25,-85 110.25,-79 110.25,-73 110.25,-73 110.25,-61 110.25,-61 110.25,-55 116.25,-49 122.25,-49 122.25,-49 166.75,-49 166.75,-49 172.75,-49 178.75,-55 178.75,-61 178.75,-61 178.75,-73 178.75,-73 178.75,-79 172.75,-85 166.75,-85"/>
<text xml:space="preserve" text-anchor="middle" x="144.5" y="-61.95" font-family="Times,serif" font-size="14.00">DATA IN</text>
</g>
<!-- SETUP&#45;&gt;DATA_IN -->
<g id="edge1" class="edge">
<title>SETUP&#45;&gt;DATA_IN</title>
<path fill="none" stroke="black" d="M65.7,-35.14C76.26,-39.46 88.19,-44.35 99.48,-48.97"/>
<polygon fill="black" stroke="black" points="98.07,-52.17 108.65,-52.73 100.72,-45.7 98.07,-52.17"/>
</g>
<!-- DATA_OUT -->
<g id="node3" class="node">
<title>DATA_OUT</title>
<path fill="#e8e8e8" stroke="black" d="M293.75,-85C293.75,-85 235.75,-85 235.75,-85 229.75,-85 223.75,-79 223.75,-73 223.75,-73 223.75,-61 223.75,-61 223.75,-55 229.75,-49 235.75,-49 235.75,-49 293.75,-49 293.75,-49 299.75,-49 305.75,-55 305.75,-61 305.75,-61 305.75,-73 305.75,-73 305.75,-79 299.75,-85 293.75,-85"/>
<text xml:space="preserve" text-anchor="middle" x="264.75" y="-61.95" font-family="Times,serif" font-size="14.00">DATA OUT</text>
</g>
<!-- DATA_IN&#45;&gt;DATA_OUT -->
<g id="edge2" class="edge">
<title>DATA_IN&#45;&gt;DATA_OUT</title>
<path fill="none" stroke="black" d="M179.07,-67C189.31,-67 200.81,-67 211.96,-67"/>
<polygon fill="black" stroke="black" points="211.87,-70.5 221.87,-67 211.87,-63.5 211.87,-70.5"/>
</g>
<!-- STATUS_IN -->
<g id="node4" class="node">
<title>STATUS_IN</title>
<path fill="#e8e8e8" stroke="black" d="M421.5,-85C421.5,-85 362.75,-85 362.75,-85 356.75,-85 350.75,-79 350.75,-73 350.75,-73 350.75,-61 350.75,-61 350.75,-55 356.75,-49 362.75,-49 362.75,-49 421.5,-49 421.5,-49 427.5,-49 433.5,-55 433.5,-61 433.5,-61 433.5,-73 433.5,-73 433.5,-79 427.5,-85 421.5,-85"/>
<text xml:space="preserve" text-anchor="middle" x="392.12" y="-61.95" font-family="Times,serif" font-size="14.00">STATUS IN</text>
</g>
<!-- DATA_OUT&#45;&gt;STATUS_IN -->
<g id="edge3" class="edge">
<title>DATA_OUT&#45;&gt;STATUS_IN</title>
<path fill="none" stroke="black" d="M306.11,-67C316.63,-67 328.11,-67 339.14,-67"/>
<polygon fill="black" stroke="black" points="338.9,-70.5 348.9,-67 338.9,-63.5 338.9,-70.5"/>
</g>
<!-- STATUS_OUT -->
<g id="node5" class="node">
<title>STATUS_OUT</title>
<path fill="#e8e8e8" stroke="black" d="M562.75,-40C562.75,-40 490.5,-40 490.5,-40 484.5,-40 478.5,-34 478.5,-28 478.5,-28 478.5,-16 478.5,-16 478.5,-10 484.5,-4 490.5,-4 490.5,-4 562.75,-4 562.75,-4 568.75,-4 574.75,-10 574.75,-16 574.75,-16 574.75,-28 574.75,-28 574.75,-34 568.75,-40 562.75,-40"/>
<text xml:space="preserve" text-anchor="middle" x="526.62" y="-16.95" font-family="Times,serif" font-size="14.00">STATUS OUT</text>
</g>
<!-- STATUS_IN&#45;&gt;STATUS_OUT -->
<g id="edge4" class="edge">
<title>STATUS_IN&#45;&gt;STATUS_OUT</title>
<path fill="none" stroke="black" d="M433.96,-53.13C444.56,-49.53 456.19,-45.58 467.5,-41.74"/>
<polygon fill="black" stroke="black" points="468.42,-45.13 476.76,-38.6 466.17,-38.5 468.42,-45.13"/>
</g>
<!-- STATUS_OUT&#45;&gt;SETUP -->
<g id="edge5" class="edge">
<title>STATUS_OUT&#45;&gt;SETUP</title>
<path fill="none" stroke="#888888" stroke-dasharray="5,2" d="M478.29,-12.95C453.1,-8.89 421.54,-5 393.12,-5 143.5,-5 143.5,-5 143.5,-5 121.29,-5 96.85,-8.43 76.67,-12.22"/>
<polygon fill="#888888" stroke="#888888" points="76.25,-8.73 67.12,-14.1 77.61,-15.6 76.25,-8.73"/>
</g>
<!-- IDLE -->
<g id="node6" class="node">
<title>IDLE</title>
<ellipse fill="none" stroke="black" cx="32.62" cy="-91" rx="31.9" ry="18"/>
<text xml:space="preserve" text-anchor="middle" x="32.62" y="-85.95" font-family="Times,serif" font-size="14.00">IDLE</text>
</g>
<!-- IDLE&#45;&gt;IDLE -->
<g id="edge6" class="edge">
<title>IDLE&#45;&gt;IDLE</title>
<path fill="none" stroke="#888888" stroke-dasharray="5,2" d="M23.87,-108.35C20.12,-122.85 23.04,-138 32.62,-138 39.66,-138 43.11,-129.83 42.96,-119.75"/>
<polygon fill="#888888" stroke="#888888" points="46.43,-119.28 41.59,-109.85 39.49,-120.24 46.43,-119.28"/>
<text xml:space="preserve" text-anchor="middle" x="32.62" y="-141.2" font-family="Times,serif" font-size="14.00">rx_active=0</text>
</g>
</g>
</svg>
