<?xml version="1.0" encoding="UTF-8" standalone="no"?>
<!DOCTYPE svg PUBLIC "-//W3C//DTD SVG 1.1//EN"
 "http://www.w3.org/Graphics/SVG/1.1/DTD/svg11.dtd">
<!-- Generated by graphviz version 15.1.0 (0)
 -->
<!-- Title: control_endpoint Pages: 1 -->
<svg width="583pt" height="185pt"
 viewBox="0.00 0.00 583.00 185.00" xmlns="http://www.w3.org/2000/svg" xmlns:xlink="http://www.w3.org/1999/xlink">
<g id="graph0" class="graph" transform="scale(1 1) rotate(0) translate(4 180.75)">
<title>control_endpoint</title>
<polygon fill="white" stroke="none" points="-4,4 -4,-180.75 578.75,-180.75 578.75,4 -4,4"/>
<text xml:space="preserve" text-anchor="middle" x="287.38" y="-161.35" font-family="Helvetica,sans-Serif" font-size="12.00">State Machine: USBControlEndpoint (EP0)</text>
<!-- SETUP -->
<g id="node1" class="node">
<title>SETUP</title>
<path fill="#c0e0c0" stroke="black" d="M49.25,-40C49.25,-40 16,-40 16,-40 10,-40 4,-34 4,-28 4,-28 4,-16 4,-16 4,-10 10,-4 16,-4 16,-4 49.25,-4 49.25,-4 55.25,-4 61.25,-10 61.25,-16 61.25,-16 61.25,-28 61.25,-28 61.25,-34 55.25,-40 49.25,-40"/>
<path fill="none" stroke="black" d="M53.25,-44C53.25,-44 12,-44 12,-44 6,-44 0,-38 0,-32 0,-32 0,-12 0,-12 0,-6 6,0 12,0 12,0 53.25,0 53.25,0 59.25,0 65.25,-6 65.25,-12 65.25,-12 65.25,-32 65.25,-32 65.25,-38 59.25,-44 53.25,-44"/>
<text xml:space="preserve" text-anchor="middle" x="32.62" y="-16.95" font-family="Times,serif" font-size="14.00">SETUP</text>
</g>
<!-- DATA_IN -->
<g id="node2" class="node">
<title>DATA_IN</title>
<path fill="#e8e8e8" stroke="black" d="M166.75,-40C166.75,-40 122.25,-40 122.25,-40 116.25,-40 110.25,-34 110.25,-28 110.25,-28 110.25,-16 110.25,-16 110.25,-10 116.25,-4 122.25,-4 122.25,-4 166.75,-4 166.75,-4 172.75,-4 178.75,-10 178.75,-16 178.75,-16 178.75,-28 178.75,-28 178.75,-34 172.75,-40 166.75,-40"/>
<text xml:space="preserve" text-anchor="middle" x="144.5" y="-16.95" font-family="Times,serif" font-size="14.00">DATA IN</text>
</g>
<!-- SETUP&#45;&gt;DATA_IN -->
<g id="edge1" class="edge">
<title>SETUP&#45;&gt;DATA_IN</title>
<path fill="none" stroke="black" d="M65.7,-22C76.04,-22 87.7,-22 98.78,-22"/>
<polygon fill="black" stroke="black" points="98.53,-25.5 108.53,-22 98.53,-18.5 98.53,-25.5"/>
</g>
<!-- DATA_OUT -->
<g id="node3" class="node">
<title>DATA_OUT</title>
<path fill="#e8e8e8" stroke="black" d="M293.75,-40C293.75,-40 235.75,-40 235.75,-40 229.75,-40 223.75,-34 223.75,-28 223.75,-28 223.75,-16 223.75,-16 223.75,-10 229.75,-4 235.75,-4 235.75,-4 293.75,-4 293.75,-4 299.75,-4 305.75,-10 305.75,-16 305.75,-16 305.75,-28 305.75,-28 305.75,-34 299.75,-40 293.75,-40"/>
<text xml:space="preserve" text-anchor="middle" x="264.75" y="-16.95" font-family="Times,serif" font-size="14.00">DATA OUT</text>
</g>
<!-- DATA_IN&#45;&gt;DATA_OUT -->
<g id="edge2" class="edge">
<title>DATA_IN&#45;&gt;DATA_OUT</title>
<path fill="none" stroke="black" d="M179.07,-22C189.31,-22 200.81,-22 211.96,-22"/>
<polygon fill="black" stroke="black" points="211.87,-25.5 221.87,-22 211.87,-18.5 211.87,-25.5"/>
</g>
<!-- STATUS_IN -->
<g id="node4" class="node">
<title>STATUS_IN</title>
<path fill="#e8e8e8" stroke="black" d="M421.5,-40C421.5,-40 362.75,-40 362.75,-40 356.75,-40 350.75,-34 350.75,-28 350.75,-28 350.75,-16 350.75,-16 350.75,-10 356.75,-4 362.75,-4 362.75,-4 421.5,-4 421.5,-4 427.5,-4 433.5,-10 433.5,-16 433.5,-16 433.5,-28 433.5,-28 433.5,-34 427.5,-40 421.5,-40"/>
<text xml:space="preserve" text-anchor="middle" x="392.12" y="-16.95" font-family="Times,serif" font-size="14.00">STATUS IN</text>
</g>
<!-- DATA_OUT&#45;&gt;STATUS_IN -->
<g id="edge3" class="edge">
<title>DATA_OUT&#45;&gt;STATUS_IN</title>
<path fill="none" stroke="black" d="M306.11,-22C316.63,-22 328.11,-22 339.14,-22"/>
<polygon fill="black" stroke="black" points="338.9,-25.5 348.9,-22 338.9,-18.5 338.9,-25.5"/>
</g>
<!-- STATUS_OUT -->
<g id="node5" class="node">
<title>STATUS_OUT</title>
<path fill="#e8e8e8" stroke="black" d="M562.75,-40C562.75,-40 490.5,-40 490.5,-40 484.5,-40 478.5,-34 478.5,-28 478.5,-28 478.5,-16 478.5,-16 478.5,-10 484.5,-4 490.5,-4 490.5,-4 562.75,-4 562.75,-4 568.75,-4 574.75,-10 574.75,-16 574.75,-16 574.75,-28 574.75,-28 574.75,-34 568.75,-40 562.75,-40"/>
<text xml:space="preserve" text-anchor="middle" x="526.62" y="-16.95" font-family="Times,serif" font-size="14.00">STATUS OUT</text>
</g>
<!-- STATUS_IN&#45;&gt;STATUS_OUT -->
<g id="edge4" class="edge">
<title>STATUS_IN&#45;&gt;STATUS_OUT</title>
<path fill="none" stroke="black" d="M433.96,-22C444.34,-22 455.71,-22 466.8,-22"/>
<polygon fill="black" stroke="black" points="466.68,-25.5 476.68,-22 466.68,-18.5 466.68,-25.5"/>
</g>
<!-- IDLE -->
<g id="node6" class="node">
<title>IDLE</title>
<ellipse fill="none" stroke="black" cx="32.62" cy="-91" rx="31.9" ry="18"/>
<text xml:space="preserve" text-anchor="middle" x="32.62" y="-85.95" font-family="Times,serif" font-size="14.00">IDLE</text>
</g>
<!-- IDLE&#45;&gt;IDLE -->
<g id="edge5" class="edge">
<title>IDLE&#45;&gt;IDLE</title>
<path fill="none" stroke="#888888" stroke-dasharray="5,2" d="M23.87,-108.35C20.12,-122.85 23.04,-138 32.62,-138 39.66,-138 43.11,-129.83 42.96,-119.75"/>
<polygon fill="#888888" stroke="#888888" points="46.43,-119.28 41.59,-109.85 39.49,-120.24 46.43,-119.28"/>
<text xml:space="preserve" text-anchor="middle" x="32.62" y="-141.2" font-family="Times,serif" font-size="14.00">rx_active=0</text>
</g>
</g>
</svg>
