<?xml version="1.0" encoding="UTF-8" standalone="no"?>
<!DOCTYPE svg PUBLIC "-//W3C//DTD SVG 1.1//EN"
 "http://www.w3.org/Graphics/SVG/1.1/DTD/svg11.dtd">
<!-- Generated by graphviz version 15.1.0 (0)
 -->
<!-- Title: data_packet_receiver Pages: 1 -->
<svg width="996pt" height="328pt"
 viewBox="0.00 0.00 996.00 328.00" xmlns="http://www.w3.org/2000/svg" xmlns:xlink="http://www.w3.org/1999/xlink">
<g id="graph0" class="graph" transform="scale(1 1) rotate(0) translate(4 323.52)">
<title>data_packet_receiver</title>
<polygon fill="white" stroke="none" points="-4,4 -4,-323.52 992.12,-323.52 992.12,4 -4,4"/>
<text xml:space="preserve" text-anchor="middle" x="494.06" y="-304.12" font-family="Helvetica,sans-Serif" font-size="12.00">State Machine: USBDataPacketReceiver</text>
<!-- IDLE -->
<g id="node1" class="node">
<title>IDLE</title>
<path fill="#c0e0c0" stroke="black" d="M47.62,-138.27C47.62,-138.27 17.62,-138.27 17.62,-138.27 11.62,-138.27 5.62,-132.27 5.62,-126.27 5.62,-126.27 5.62,-114.27 5.62,-114.27 5.62,-108.27 11.62,-102.27 17.62,-102.27 17.62,-102.27 47.62,-102.27 47.62,-102.27 53.62,-102.27 59.62,-108.27 59.62,-114.27 59.62,-114.27 59.62,-126.27 59.62,-126.27 59.62,-132.27 53.62,-138.27 47.62,-138.27"/>
<path fill="none" stroke="black" d="M51.62,-142.27C51.62,-142.27 13.62,-142.27 13.62,-142.27 7.62,-142.27 1.62,-136.27 1.62,-130.27 1.62,-130.27 1.62,-110.27 1.62,-110.27 1.62,-104.27 7.62,-98.27 13.62,-98.27 13.62,-98.27 51.62,-98.27 51.62,-98.27 57.62,-98.27 63.62,-104.27 63.62,-110.27 63.62,-110.27 63.62,-130.27 63.62,-130.27 63.62,-136.27 57.62,-142.27 51.62,-142.27"/>
<text xml:space="preserve" text-anchor="middle" x="32.62" y="-115.22" font-family="Times,serif" font-size="14.00">IDLE</text>
</g>
<!-- IDLE&#45;&gt;IDLE -->
<g id="edge13" class="edge">
<title>IDLE&#45;&gt;IDLE</title>
<path fill="none" stroke="#888888" stroke-dasharray="5,2" d="M23.43,-142.55C20.94,-157.15 24,-171.27 32.62,-171.27 38.96,-171.27 42.29,-163.65 42.63,-153.83"/>
<polygon fill="#888888" stroke="#888888" points="46.13,-153.79 41.93,-144.06 39.15,-154.29 46.13,-153.79"/>
<text xml:space="preserve" text-anchor="middle" x="32.62" y="-174.47" font-family="Times,serif" font-size="14.00">rx_active=0</text>
</g>
<!-- READ_PID -->
<g id="node4" class="node">
<title>READ_PID</title>
<path fill="#e8e8e8" stroke="black" d="M174.88,-76.27C174.88,-76.27 120.62,-76.27 120.62,-76.27 114.62,-76.27 108.62,-70.27 108.62,-64.27 108.62,-64.27 108.62,-52.27 108.62,-52.27 108.62,-46.27 114.62,-40.27 120.62,-40.27 120.62,-40.27 174.88,-40.27 174.88,-40.27 180.88,-40.27 186.88,-46.27 186.88,-52.27 186.88,-52.27 186.88,-64.27 186.88,-64.27 186.88,-70.27 180.88,-76.27 174.88,-76.27"/>
<text xml:space="preserve" text-anchor="middle" x="147.75" y="-53.22" font-family="Times,serif" font-size="14.00">READ PID</text>
</g>
<!-- IDLE&#45;&gt;READ_PID -->
<g id="edge1" class="edge">
<title>IDLE&#45;&gt;READ_PID</title>
<path fill="none" stroke="black" d="M57.89,-97.86C69.7,-89.93 84.33,-81.36 98.29,-74.06"/>
<polygon fill="black" stroke="black" points="99.6,-77.32 106.93,-69.68 96.43,-71.08 99.6,-77.32"/>
</g>
<!-- INTERPACKET_DELAY -->
<g id="node2" class="node">
<title>INTERPACKET_DELAY</title>
<path fill="#e8e8e8" stroke="black" d="M976.12,-284.27C976.12,-284.27 843.88,-284.27 843.88,-284.27 837.88,-284.27 831.88,-278.27 831.88,-272.27 831.88,-272.27 831.88,-260.27 831.88,-260.27 831.88,-254.27 837.88,-248.27 843.88,-248.27 843.88,-248.27 976.12,-248.27 976.12,-248.27 982.12,-248.27 988.12,-254.27 988.12,-260.27 988.12,-260.27 988.12,-272.27 988.12,-272.27 988.12,-278.27 982.12,-284.27 976.12,-284.27"/>
<text xml:space="preserve" text-anchor="middle" x="910" y="-261.22" font-family="Times,serif" font-size="14.00">INTERPACKET DELAY</text>
</g>
<!-- INTERPACKET_DELAY&#45;&gt;IDLE -->
<g id="edge2" class="edge">
<title>INTERPACKET_DELAY&#45;&gt;IDLE</title>
<path fill="none" stroke="black" d="M831.71,-284.48C796.74,-291.23 754.75,-297.27 716.5,-297.27 146.75,-297.27 146.75,-297.27 146.75,-297.27 79.42,-297.27 50.37,-205.22 39.4,-153.88"/>
<polygon fill="black" stroke="black" points="42.85,-153.29 37.46,-144.17 35.99,-154.67 42.85,-153.29"/>
</g>
<!-- IRRELEVANT -->
<g id="node3" class="node">
<title>IRRELEVANT</title>
<path fill="#e8e8e8" stroke="black" d="M345.75,-181.27C345.75,-181.27 270.5,-181.27 270.5,-181.27 264.5,-181.27 258.5,-175.27 258.5,-169.27 258.5,-169.27 258.5,-157.27 258.5,-157.27 258.5,-151.27 264.5,-145.27 270.5,-145.27 270.5,-145.27 345.75,-145.27 345.75,-145.27 351.75,-145.27 357.75,-151.27 357.75,-157.27 357.75,-157.27 357.75,-169.27 357.75,-169.27 357.75,-175.27 351.75,-181.27 345.75,-181.27"/>
<text xml:space="preserve" text-anchor="middle" x="308.12" y="-158.22" font-family="Times,serif" font-size="14.00">IRRELEVANT</text>
</g>
<!-- IRRELEVANT&#45;&gt;IDLE -->
<g id="edge3" class="edge">
<title>IRRELEVANT&#45;&gt;IDLE</title>
<path fill="none" stroke="black" d="M258,-162.89C212.63,-161.54 143.67,-156.93 85.62,-142.27 81.9,-141.33 78.1,-140.16 74.33,-138.86"/>
<polygon fill="black" stroke="black" points="75.89,-135.71 65.3,-135.44 73.41,-142.25 75.89,-135.71"/>
</g>
<!-- READ_PID&#45;&gt;IDLE -->
<g id="edge4" class="edge">
<title>READ_PID&#45;&gt;IDLE</title>
<path fill="none" stroke="black" d="M128.4,-76.6C113.77,-87.03 92.74,-99.29 74.21,-108.51"/>
<polygon fill="black" stroke="black" points="72.82,-105.29 65.31,-112.76 75.84,-111.61 72.82,-105.29"/>
</g>
<!-- READ_PID&#45;&gt;IRRELEVANT -->
<g id="edge5" class="edge">
<title>READ_PID&#45;&gt;IRRELEVANT</title>
<path fill="none" stroke="black" d="M176.34,-76.56C202.29,-93.77 241.35,-119.67 270.03,-138.68"/>
<polygon fill="black" stroke="black" points="267.79,-141.4 278.06,-144 271.66,-135.56 267.79,-141.4"/>
</g>
<!-- RECEIVE_FIRST_BYTE -->
<g id="node6" class="node">
<title>RECEIVE_FIRST_BYTE</title>
<path fill="#e8e8e8" stroke="black" d="M372.38,-90.27C372.38,-90.27 243.88,-90.27 243.88,-90.27 237.88,-90.27 231.88,-84.27 231.88,-78.27 231.88,-78.27 231.88,-66.27 231.88,-66.27 231.88,-60.27 237.88,-54.27 243.88,-54.27 243.88,-54.27 372.38,-54.27 372.38,-54.27 378.38,-54.27 384.38,-60.27 384.38,-66.27 384.38,-66.27 384.38,-78.27 384.38,-78.27 384.38,-84.27 378.38,-90.27 372.38,-90.27"/>
<text xml:space="preserve" text-anchor="middle" x="308.12" y="-67.22" font-family="Times,serif" font-size="14.00">RECEIVE FIRST BYTE</text>
</g>
<!-- READ_PID&#45;&gt;RECEIVE_FIRST_BYTE -->
<g id="edge6" class="edge">
<title>READ_PID&#45;&gt;RECEIVE_FIRST_BYTE</title>
<path fill="none" stroke="black" d="M187.09,-61.66C197.29,-62.56 208.73,-63.57 220.39,-64.61"/>
<polygon fill="black" stroke="black" points="219.83,-68.07 230.1,-65.46 220.45,-61.1 219.83,-68.07"/>
</g>
<!-- RECEIVE_AND_EMIT -->
<g id="node5" class="node">
<title>RECEIVE_AND_EMIT</title>
<path fill="#e8e8e8" stroke="black" d="M774.88,-253.27C774.88,-253.27 656.12,-253.27 656.12,-253.27 650.12,-253.27 644.12,-247.27 644.12,-241.27 644.12,-241.27 644.12,-229.27 644.12,-229.27 644.12,-223.27 650.12,-217.27 656.12,-217.27 656.12,-217.27 774.88,-217.27 774.88,-217.27 780.88,-217.27 786.88,-223.27 786.88,-229.27 786.88,-229.27 786.88,-241.27 786.88,-241.27 786.88,-247.27 780.88,-253.27 774.88,-253.27"/>
<text xml:space="preserve" text-anchor="middle" x="715.5" y="-230.22" font-family="Times,serif" font-size="14.00">RECEIVE AND EMIT</text>
</g>
<!-- RECEIVE_AND_EMIT&#45;&gt;IDLE -->
<g id="edge7" class="edge">
<title>RECEIVE_AND_EMIT&#45;&gt;IDLE</title>
<path fill="none" stroke="black" d="M643.96,-236.85C605.85,-237.57 557.98,-238.27 515.25,-238.27 146.75,-238.27 146.75,-238.27 146.75,-238.27 99.3,-238.27 65.57,-187.93 47.89,-153.01"/>
<polygon fill="black" stroke="black" points="51.08,-151.58 43.58,-144.11 44.78,-154.63 51.08,-151.58"/>
</g>
<!-- RECEIVE_AND_EMIT&#45;&gt;INTERPACKET_DELAY -->
<g id="edge8" class="edge">
<title>RECEIVE_AND_EMIT&#45;&gt;INTERPACKET_DELAY</title>
<path fill="none" stroke="black" d="M787.36,-246.68C798.13,-248.42 809.36,-250.23 820.46,-252.01"/>
<polygon fill="black" stroke="black" points="819.56,-255.41 829.99,-253.55 820.67,-248.5 819.56,-255.41"/>
</g>
<!-- RECEIVE_FIRST_BYTE&#45;&gt;IDLE -->
<g id="edge9" class="edge">
<title>RECEIVE_FIRST_BYTE&#45;&gt;IDLE</title>
<path fill="none" stroke="black" d="M231.5,-85.54C181.04,-94.4 116.61,-105.71 75.23,-112.97"/>
<polygon fill="black" stroke="black" points="74.67,-109.51 65.43,-114.69 75.88,-116.41 74.67,-109.51"/>
</g>
<!-- RECEIVE_SECOND_BYTE -->
<g id="node7" class="node">
<title>RECEIVE_SECOND_BYTE</title>
<path fill="#e8e8e8" stroke="black" d="M587.12,-90.27C587.12,-90.27 441.38,-90.27 441.38,-90.27 435.38,-90.27 429.38,-84.27 429.38,-78.27 429.38,-78.27 429.38,-66.27 429.38,-66.27 429.38,-60.27 435.38,-54.27 441.38,-54.27 441.38,-54.27 587.12,-54.27 587.12,-54.27 593.12,-54.27 599.12,-60.27 599.12,-66.27 599.12,-66.27 599.12,-78.27 599.12,-78.27 599.12,-84.27 593.12,-90.27 587.12,-90.27"/>
<text xml:space="preserve" text-anchor="middle" x="514.25" y="-67.22" font-family="Times,serif" font-size="14.00">RECEIVE SECOND BYTE</text>
</g>
<!-- RECEIVE_FIRST_BYTE&#45;&gt;RECEIVE_SECOND_BYTE -->
<g id="edge10" class="edge">
<title>RECEIVE_FIRST_BYTE&#45;&gt;RECEIVE_SECOND_BYTE</title>
<path fill="none" stroke="black" d="M384.84,-72.27C395.54,-72.27 406.65,-72.27 417.65,-72.27"/>
<polygon fill="black" stroke="black" points="417.55,-75.77 427.55,-72.27 417.55,-68.77 417.55,-75.77"/>
</g>
<!-- RECEIVE_SECOND_BYTE&#45;&gt;IDLE -->
<g id="edge11" class="edge">
<title>RECEIVE_SECOND_BYTE&#45;&gt;IDLE</title>
<path fill="none" stroke="black" d="M472.37,-53.8C396.51,-22.42 230.61,32.46 108.62,-26.27 82.16,-39.02 62.12,-66.15 49.45,-88.01"/>
<polygon fill="black" stroke="black" points="46.48,-86.14 44.72,-96.59 52.61,-89.52 46.48,-86.14"/>
</g>
<!-- RECEIVE_SECOND_BYTE&#45;&gt;RECEIVE_AND_EMIT -->
<g id="edge12" class="edge">
<title>RECEIVE_SECOND_BYTE&#45;&gt;RECEIVE_AND_EMIT</title>
<path fill="none" stroke="black" d="M537.72,-90.65C573.32,-119.77 642.77,-176.6 683.22,-209.68"/>
<polygon fill="black" stroke="black" points="680.99,-212.38 690.94,-216 685.42,-206.96 680.99,-212.38"/>
</g>
</g>
</svg>
