<?xml version="1.0" encoding="UTF-8" standalone="no"?>
<!DOCTYPE svg PUBLIC "-//W3C//DTD SVG 1.1//EN"
 "http://www.w3.org/Graphics/SVG/1.1/DTD/svg11.dtd">
<!-- Generated by graphviz version 15.1.0 (0)
 -->
<!-- Title: data_packet_receiver Pages: 1 -->
<svg width="694pt" height="120pt"
 viewBox="0.00 0.00 694.00 120.00" xmlns="http://www.w3.org/2000/svg" xmlns:xlink="http://www.w3.org/1999/xlink">
<g id="graph0" class="graph" transform="scale(1 1) rotate(0) translate(4 115.75)">
<title>data_packet_receiver</title>
<polygon fill="white" stroke="none" points="-4,4 -4,-115.75 690.38,-115.75 690.38,4 -4,4"/>
<text xml:space="preserve" text-anchor="middle" x="343.19" y="-96.35" font-family="Helvetica,sans-Serif" font-size="12.00">State Machine: USBDataPacketReceiver</text>
<!-- IDLE -->
<g id="node1" class="node">
<title>IDLE</title>
<path fill="#c0e0c0" stroke="black" d="M47.62,-40C47.62,-40 17.62,-40 17.62,-40 11.62,-40 5.62,-34 5.62,-28 5.62,-28 5.62,-16 5.62,-16 5.62,-10 11.62,-4 17.62,-4 17.62,-4 47.62,-4 47.62,-4 53.62,-4 59.62,-10 59.62,-16 59.62,-16 59.62,-28 59.62,-28 59.62,-34 53.62,-40 47.62,-40"/>
<path fill="none" stroke="black" d="M51.62,-44C51.62,-44 13.62,-44 13.62,-44 7.62,-44 1.62,-38 1.62,-32 1.62,-32 1.62,-12 1.62,-12 1.62,-6 7.62,0 13.62,0 13.62,0 51.62,0 51.62,0 57.62,0 63.62,-6 63.62,-12 63.62,-12 63.62,-32 63.62,-32 63.62,-38 57.62,-44 51.62,-44"/>
<text xml:space="preserve" text-anchor="middle" x="32.62" y="-16.95" font-family="Times,serif" font-size="14.00">IDLE</text>
</g>
<!-- IDLE&#45;&gt;IDLE -->
<g id="edge5" class="edge">
<title>IDLE&#45;&gt;IDLE</title>
<path fill="none" stroke="#888888" stroke-dasharray="5,2" d="M23.43,-44.28C20.94,-58.88 24,-73 32.62,-73 38.96,-73 42.29,-65.38 42.63,-55.56"/>
<polygon fill="#888888" stroke="#888888" points="46.13,-55.52 41.93,-45.79 39.15,-56.02 46.13,-55.52"/>
<text xml:space="preserve" text-anchor="middle" x="32.62" y="-76.2" font-family="Times,serif" font-size="14.00">rx_active=0</text>
</g>
<!-- READ_PID -->
<g id="node2" class="node">
<title>READ_PID</title>
<path fill="#e8e8e8" stroke="black" d="M174.88,-40C174.88,-40 120.62,-40 120.62,-40 114.62,-40 108.62,-34 108.62,-28 108.62,-28 108.62,-16 108.62,-16 108.62,-10 114.62,-4 120.62,-4 120.62,-4 174.88,-4 174.88,-4 180.88,-4 186.88,-10 186.88,-16 186.88,-16 186.88,-28 186.88,-28 186.88,-34 180.88,-40 174.88,-40"/>
<text xml:space="preserve" text-anchor="middle" x="147.75" y="-16.95" font-family="Times,serif" font-size="14.00">READ PID</text>
</g>
<!-- IDLE&#45;&gt;READ_PID -->
<g id="edge1" class="edge">
<title>IDLE&#45;&gt;READ_PID</title>
<path fill="none" stroke="black" d="M63.94,-22C74.04,-22 85.58,-22 96.77,-22"/>
<polygon fill="black" stroke="black" points="96.72,-25.5 106.72,-22 96.72,-18.5 96.72,-25.5"/>
</g>
<!-- WAIT_FOR_FIRST_DATA -->
<g id="node3" class="node">
<title>WAIT_FOR_FIRST_DATA</title>
<path fill="#e8e8e8" stroke="black" d="M379.88,-40C379.88,-40 243.88,-40 243.88,-40 237.88,-40 231.88,-34 231.88,-28 231.88,-28 231.88,-16 231.88,-16 231.88,-10 237.88,-4 243.88,-4 243.88,-4 379.88,-4 379.88,-4 385.88,-4 391.88,-10 391.88,-16 391.88,-16 391.88,-28 391.88,-28 391.88,-34 385.88,-40 379.88,-40"/>
<text xml:space="preserve" text-anchor="middle" x="311.88" y="-16.95" font-family="Times,serif" font-size="14.00">WAIT FOR FIRST DATA</text>
</g>
<!-- READ_PID&#45;&gt;WAIT_FOR_FIRST_DATA -->
<g id="edge2" class="edge">
<title>READ_PID&#45;&gt;WAIT_FOR_FIRST_DATA</title>
<path fill="none" stroke="black" d="M187.17,-22C197.32,-22 208.71,-22 220.37,-22"/>
<polygon fill="black" stroke="black" points="220.08,-25.5 230.08,-22 220.08,-18.5 220.08,-25.5"/>
</g>
<!-- RECEIVE_DATA -->
<g id="node4" class="node">
<title>RECEIVE_DATA</title>
<path fill="#e8e8e8" stroke="black" d="M536.88,-40C536.88,-40 448.88,-40 448.88,-40 442.88,-40 436.88,-34 436.88,-28 436.88,-28 436.88,-16 436.88,-16 436.88,-10 442.88,-4 448.88,-4 448.88,-4 536.88,-4 536.88,-4 542.88,-4 548.88,-10 548.88,-16 548.88,-16 548.88,-28 548.88,-28 548.88,-34 542.88,-40 536.88,-40"/>
<text xml:space="preserve" text-anchor="middle" x="492.88" y="-16.95" font-family="Times,serif" font-size="14.00">RECEIVE DATA</text>
</g>
<!-- WAIT_FOR_FIRST_DATA&#45;&gt;RECEIVE_DATA -->
<g id="edge3" class="edge">
<title>WAIT_FOR_FIRST_DATA&#45;&gt;RECEIVE_DATA</title>
<path fill="none" stroke="black" d="M392.17,-22C403.16,-22 414.35,-22 425.08,-22"/>
<polygon fill="black" stroke="black" points="425,-25.5 435,-22 425,-18.5 425,-25.5"/>
</g>
<!-- CHECK_CRC -->
<g id="node5" class="node">
<title>CHECK_CRC</title>
<path fill="#e8e8e8" stroke="black" d="M674.38,-40C674.38,-40 605.88,-40 605.88,-40 599.88,-40 593.88,-34 593.88,-28 593.88,-28 593.88,-16 593.88,-16 593.88,-10 599.88,-4 605.88,-4 605.88,-4 674.38,-4 674.38,-4 680.38,-4 686.38,-10 686.38,-16 686.38,-16 686.38,-28 686.38,-28 686.38,-34 680.38,-40 674.38,-40"/>
<text xml:space="preserve" text-anchor="middle" x="640.12" y="-16.95" font-family="Times,serif" font-size="14.00">CHECK CRC</text>
</g>
<!-- RECEIVE_DATA&#45;&gt;CHECK_CRC -->
<g id="edge4" class="edge">
<title>RECEIVE_DATA&#45;&gt;CHECK_CRC</title>
<path fill="none" stroke="black" d="M549.2,-22C559.92,-22 571.17,-22 581.94,-22"/>
<polygon fill="black" stroke="black" points="581.88,-25.5 591.88,-22 581.88,-18.5 581.88,-25.5"/>
</g>
</g>
</svg>
