<?xml version="1.0" encoding="UTF-8" standalone="no"?>
<!DOCTYPE svg PUBLIC "-//W3C//DTD SVG 1.1//EN"
 "http://www.w3.org/Graphics/SVG/1.1/DTD/svg11.dtd">
<!-- Generated by graphviz version 15.1.0 (0)
 -->
<!-- Title: data_packet_generator Pages: 1 -->
<svg width="624pt" height="120pt"
 viewBox="0.00 0.00 624.00 120.00" xmlns="http://www.w3.org/2000/svg" xmlns:xlink="http://www.w3.org/1999/xlink">
<g id="graph0" class="graph" transform="scale(1 1) rotate(0) translate(4 115.75)">
<title>data_packet_generator</title>
<polygon fill="white" stroke="none" points="-4,4 -4,-115.75 619.88,-115.75 619.88,4 -4,4"/>
<text xml:space="preserve" text-anchor="middle" x="307.94" y="-96.35" font-family="Helvetica,sans-Serif" font-size="12.00">State Machine: USBDataPacketGenerator</text>
<!-- IDLE -->
<g id="node1" class="node">
<title>IDLE</title>
<path fill="#c0e0c0" stroke="black" d="M47.62,-40C47.62,-40 17.62,-40 17.62,-40 11.62,-40 5.62,-34 5.62,-28 5.62,-28 5.62,-16 5.62,-16 5.62,-10 11.62,-4 17.62,-4 17.62,-4 47.62,-4 47.62,-4 53.62,-4 59.62,-10 59.62,-16 59.62,-16 59.62,-28 59.62,-28 59.62,-34 53.62,-40 47.62,-40"/>
<path fill="none" stroke="black" d="M51.62,-44C51.62,-44 13.62,-44 13.62,-44 7.62,-44 1.62,-38 1.62,-32 1.62,-32 1.62,-12 1.62,-12 1.62,-6 7.62,0 13.62,0 13.62,0 51.62,0 51.62,0 57.62,0 63.62,-6 63.62,-12 63.62,-12 63.62,-32 63.62,-32 63.62,-38 57.62,-44 51.62,-44"/>
<text xml:space="preserve" text-anchor="middle" x="32.62" y="-16.95" font-family="Times,serif" font-size="14.00">IDLE</text>
</g>
<!-- IDLE&#45;&gt;IDLE -->
<g id="edge5" class="edge">
<title>IDLE&#45;&gt;IDLE</title>
<path fill="none" stroke="#888888" stroke-dasharray="5,2" d="M23.43,-44.28C20.94,-58.88 24,-73 32.62,-73 38.96,-73 42.29,-65.38 42.63,-55.56"/>
<polygon fill="#888888" stroke="#888888" points="46.13,-55.52 41.93,-45.79 39.15,-56.02 46.13,-55.52"/>
<text xml:space="preserve" text-anchor="middle" x="32.62" y="-76.2" font-family="Times,serif" font-size="14.00">rx_active=0</text>
</g>
<!-- SEND_PID -->
<g id="node2" class="node">
<title>SEND_PID</title>
<path fill="#e8e8e8" stroke="black" d="M173.38,-40C173.38,-40 120.62,-40 120.62,-40 114.62,-40 108.62,-34 108.62,-28 108.62,-28 108.62,-16 108.62,-16 108.62,-10 114.62,-4 120.62,-4 120.62,-4 173.38,-4 173.38,-4 179.38,-4 185.38,-10 185.38,-16 185.38,-16 185.38,-28 185.38,-28 185.38,-34 179.38,-40 173.38,-40"/>
<text xml:space="preserve" text-anchor="middle" x="147" y="-16.95" font-family="Times,serif" font-size="14.00">SEND PID</text>
</g>
<!-- IDLE&#45;&gt;SEND_PID -->
<g id="edge1" class="edge">
<title>IDLE&#45;&gt;SEND_PID</title>
<path fill="none" stroke="black" d="M64.04,-22C74.17,-22 85.72,-22 96.9,-22"/>
<polygon fill="black" stroke="black" points="96.82,-25.5 106.82,-22 96.82,-18.5 96.82,-25.5"/>
</g>
<!-- SEND_PAYLOAD -->
<g id="node3" class="node">
<title>SEND_PAYLOAD</title>
<path fill="#e8e8e8" stroke="black" d="M336.38,-40C336.38,-40 242.38,-40 242.38,-40 236.38,-40 230.38,-34 230.38,-28 230.38,-28 230.38,-16 230.38,-16 230.38,-10 236.38,-4 242.38,-4 242.38,-4 336.38,-4 336.38,-4 342.38,-4 348.38,-10 348.38,-16 348.38,-16 348.38,-28 348.38,-28 348.38,-34 342.38,-40 336.38,-40"/>
<text xml:space="preserve" text-anchor="middle" x="289.38" y="-16.95" font-family="Times,serif" font-size="14.00">SEND PAYLOAD</text>
</g>
<!-- SEND_PID&#45;&gt;SEND_PAYLOAD -->
<g id="edge2" class="edge">
<title>SEND_PID&#45;&gt;SEND_PAYLOAD</title>
<path fill="none" stroke="black" d="M185.62,-22C195.85,-22 207.27,-22 218.67,-22"/>
<polygon fill="black" stroke="black" points="218.51,-25.5 228.51,-22 218.51,-18.5 218.51,-25.5"/>
</g>
<!-- SEND_CRC0 -->
<g id="node4" class="node">
<title>SEND_CRC0</title>
<path fill="#e8e8e8" stroke="black" d="M470.12,-40C470.12,-40 405.38,-40 405.38,-40 399.38,-40 393.38,-34 393.38,-28 393.38,-28 393.38,-16 393.38,-16 393.38,-10 399.38,-4 405.38,-4 405.38,-4 470.12,-4 470.12,-4 476.12,-4 482.12,-10 482.12,-16 482.12,-16 482.12,-28 482.12,-28 482.12,-34 476.12,-40 470.12,-40"/>
<text xml:space="preserve" text-anchor="middle" x="437.75" y="-16.95" font-family="Times,serif" font-size="14.00">SEND CRC0</text>
</g>
<!-- SEND_PAYLOAD&#45;&gt;SEND_CRC0 -->
<g id="edge3" class="edge">
<title>SEND_PAYLOAD&#45;&gt;SEND_CRC0</title>
<path fill="none" stroke="black" d="M348.65,-22C359.54,-22 370.89,-22 381.68,-22"/>
<polygon fill="black" stroke="black" points="381.6,-25.5 391.6,-22 381.6,-18.5 381.6,-25.5"/>
</g>
<!-- SEND_CRC1 -->
<g id="node5" class="node">
<title>SEND_CRC1</title>
<path fill="#e8e8e8" stroke="black" d="M603.88,-40C603.88,-40 539.12,-40 539.12,-40 533.12,-40 527.12,-34 527.12,-28 527.12,-28 527.12,-16 527.12,-16 527.12,-10 533.12,-4 539.12,-4 539.12,-4 603.88,-4 603.88,-4 609.88,-4 615.88,-10 615.88,-16 615.88,-16 615.88,-28 615.88,-28 615.88,-34 609.88,-40 603.88,-40"/>
<text xml:space="preserve" text-anchor="middle" x="571.5" y="-16.95" font-family="Times,serif" font-size="14.00">SEND CRC1</text>
</g>
<!-- SEND_CRC0&#45;&gt;SEND_CRC1 -->
<g id="edge4" class="edge">
<title>SEND_CRC0&#45;&gt;SEND_CRC1</title>
<path fill="none" stroke="black" d="M482.62,-22C493.18,-22 504.58,-22 515.57,-22"/>
<polygon fill="black" stroke="black" points="515.31,-25.5 525.31,-22 515.31,-18.5 515.31,-25.5"/>
</g>
</g>
</svg>
