<?xml version="1.0" encoding="UTF-8" standalone="no"?>
<!DOCTYPE svg PUBLIC "-//W3C//DTD SVG 1.1//EN"
 "http://www.w3.org/Graphics/SVG/1.1/DTD/svg11.dtd">
<!-- Generated by graphviz version 15.1.0 (0)
 -->
<!-- Title: descriptor_generator Pages: 1 -->
<svg width="310pt" height="165pt"
 viewBox="0.00 0.00 310.00 165.00" xmlns="http://www.w3.org/2000/svg" xmlns:xlink="http://www.w3.org/1999/xlink">
<g id="graph0" class="graph" transform="scale(1 1) rotate(0) translate(4 160.75)">
<title>descriptor_generator</title>
<polygon fill="white" stroke="none" points="-4,4 -4,-160.75 305.5,-160.75 305.5,4 -4,4"/>
<text xml:space="preserve" text-anchor="middle" x="150.75" y="-141.35" font-family="Helvetica,sans-Serif" font-size="12.00">State Machine: USBDescriptorStreamGenerator</text>
<!-- DONE -->
<g id="node1" class="node">
<title>DONE</title>
<path fill="#e0c0c0" stroke="black" d="M42,-85C42,-85 12,-85 12,-85 6,-85 0,-79 0,-73 0,-73 0,-61 0,-61 0,-55 6,-49 12,-49 12,-49 42,-49 42,-49 48,-49 54,-55 54,-61 54,-61 54,-73 54,-73 54,-79 48,-85 42,-85"/>
<text xml:space="preserve" text-anchor="middle" x="27" y="-61.95" font-family="Times,serif" font-size="14.00">DONE</text>
</g>
<!-- IDLE -->
<g id="node2" class="node">
<title>IDLE</title>
<path fill="#c0e0c0" stroke="black" d="M145,-85C145,-85 115,-85 115,-85 109,-85 103,-79 103,-73 103,-73 103,-61 103,-61 103,-55 109,-49 115,-49 115,-49 145,-49 145,-49 151,-49 157,-55 157,-61 157,-61 157,-73 157,-73 157,-79 151,-85 145,-85"/>
<path fill="none" stroke="black" d="M149,-89C149,-89 111,-89 111,-89 105,-89 99,-83 99,-77 99,-77 99,-57 99,-57 99,-51 105,-45 111,-45 111,-45 149,-45 149,-45 155,-45 161,-51 161,-57 161,-57 161,-77 161,-77 161,-83 155,-89 149,-89"/>
<text xml:space="preserve" text-anchor="middle" x="130" y="-61.95" font-family="Times,serif" font-size="14.00">IDLE</text>
</g>
<!-- DONE&#45;&gt;IDLE -->
<g id="edge1" class="edge">
<title>DONE&#45;&gt;IDLE</title>
<path fill="none" stroke="black" d="M54.27,-57.32C64.34,-56.25 76.08,-55.89 87.24,-56.27"/>
<polygon fill="black" stroke="black" points="86.87,-59.76 97.05,-56.84 87.27,-52.77 86.87,-59.76"/>
</g>
<!-- IDLE&#45;&gt;DONE -->
<g id="edge2" class="edge">
<title>IDLE&#45;&gt;DONE</title>
<path fill="none" stroke="black" d="M98.56,-77.07C88.2,-77.95 76.48,-78.11 65.62,-77.55"/>
<polygon fill="black" stroke="black" points="66.02,-74.08 55.78,-76.79 65.48,-81.05 66.02,-74.08"/>
</g>
<!-- IDLE&#45;&gt;IDLE -->
<g id="edge5" class="edge">
<title>IDLE&#45;&gt;IDLE</title>
<path fill="none" stroke="#888888" stroke-dasharray="5,2" d="M120.81,-89.28C118.32,-103.88 121.38,-118 130,-118 136.33,-118 139.66,-110.38 140,-100.56"/>
<polygon fill="#888888" stroke="#888888" points="143.51,-100.52 139.3,-90.79 136.53,-101.02 143.51,-100.52"/>
<text xml:space="preserve" text-anchor="middle" x="130" y="-121.2" font-family="Times,serif" font-size="14.00">rx_active=0</text>
</g>
<!-- STREAMING -->
<g id="node3" class="node">
<title>STREAMING</title>
<path fill="#e8e8e8" stroke="black" d="M289.5,-36C289.5,-36 218,-36 218,-36 212,-36 206,-30 206,-24 206,-24 206,-12 206,-12 206,-6 212,0 218,0 218,0 289.5,0 289.5,0 295.5,0 301.5,-6 301.5,-12 301.5,-12 301.5,-24 301.5,-24 301.5,-30 295.5,-36 289.5,-36"/>
<text xml:space="preserve" text-anchor="middle" x="253.75" y="-12.95" font-family="Times,serif" font-size="14.00">STREAMING</text>
</g>
<!-- IDLE&#45;&gt;STREAMING -->
<g id="edge3" class="edge">
<title>IDLE&#45;&gt;STREAMING</title>
<path fill="none" stroke="black" d="M161.41,-54.76C172.09,-50.46 184.45,-45.49 196.56,-40.61"/>
<polygon fill="black" stroke="black" points="197.72,-43.92 205.69,-36.94 195.11,-37.43 197.72,-43.92"/>
</g>
<!-- STREAMING&#45;&gt;DONE -->
<g id="edge4" class="edge">
<title>STREAMING&#45;&gt;DONE</title>
<path fill="none" stroke="black" d="M205.83,-17.34C174.94,-18.02 133.92,-21.08 99,-31 87.21,-34.35 75.07,-39.7 64.24,-45.26"/>
<polygon fill="black" stroke="black" points="62.79,-42.06 55.64,-49.88 66.11,-48.23 62.79,-42.06"/>
</g>
</g>
</svg>
