<?xml version="1.0" encoding="UTF-8" standalone="no"?>
<!DOCTYPE svg PUBLIC "-//W3C//DTD SVG 1.1//EN"
 "http://www.w3.org/Graphics/SVG/1.1/DTD/svg11.dtd">
<!-- Generated by graphviz version 15.1.0 (0)
 -->
<!-- Title: descriptor_generator Pages: 1 -->
<svg width="311pt" height="120pt"
 viewBox="0.00 0.00 311.00 120.00" xmlns="http://www.w3.org/2000/svg" xmlns:xlink="http://www.w3.org/1999/xlink">
<g id="graph0" class="graph" transform="scale(1 1) rotate(0) translate(4 115.75)">
<title>descriptor_generator</title>
<polygon fill="white" stroke="none" points="-4,4 -4,-115.75 307.12,-115.75 307.12,4 -4,4"/>
<text xml:space="preserve" text-anchor="middle" x="151.56" y="-96.35" font-family="Helvetica,sans-Serif" font-size="12.00">State Machine: USBDescriptorStreamGenerator</text>
<!-- IDLE -->
<g id="node1" class="node">
<title>IDLE</title>
<path fill="#c0e0c0" stroke="black" d="M47.62,-40C47.62,-40 17.62,-40 17.62,-40 11.62,-40 5.62,-34 5.62,-28 5.62,-28 5.62,-16 5.62,-16 5.62,-10 11.62,-4 17.62,-4 17.62,-4 47.62,-4 47.62,-4 53.62,-4 59.62,-10 59.62,-16 59.62,-16 59.62,-28 59.62,-28 59.62,-34 53.62,-40 47.62,-40"/>
<path fill="none" stroke="black" d="M51.62,-44C51.62,-44 13.62,-44 13.62,-44 7.62,-44 1.62,-38 1.62,-32 1.62,-32 1.62,-12 1.62,-12 1.62,-6 7.62,0 13.62,0 13.62,0 51.62,0 51.62,0 57.62,0 63.62,-6 63.62,-12 63.62,-12 63.62,-32 63.62,-32 63.62,-38 57.62,-44 51.62,-44"/>
<text xml:space="preserve" text-anchor="middle" x="32.62" y="-16.95" font-family="Times,serif" font-size="14.00">IDLE</text>
</g>
<!-- IDLE&#45;&gt;IDLE -->
<g id="edge4" class="edge">
<title>IDLE&#45;&gt;IDLE</title>
<path fill="none" stroke="#888888" stroke-dasharray="5,2" d="M23.43,-44.28C20.94,-58.88 24,-73 32.62,-73 38.96,-73 42.29,-65.38 42.63,-55.56"/>
<polygon fill="#888888" stroke="#888888" points="46.13,-55.52 41.93,-45.79 39.15,-56.02 46.13,-55.52"/>
<text xml:space="preserve" text-anchor="middle" x="32.62" y="-76.2" font-family="Times,serif" font-size="14.00">rx_active=0</text>
</g>
<!-- STREAMING -->
<g id="node2" class="node">
<title>STREAMING</title>
<path fill="#e8e8e8" stroke="black" d="M192.12,-85C192.12,-85 120.62,-85 120.62,-85 114.62,-85 108.62,-79 108.62,-73 108.62,-73 108.62,-61 108.62,-61 108.62,-55 114.62,-49 120.62,-49 120.62,-49 192.12,-49 192.12,-49 198.12,-49 204.12,-55 204.12,-61 204.12,-61 204.12,-73 204.12,-73 204.12,-79 198.12,-85 192.12,-85"/>
<text xml:space="preserve" text-anchor="middle" x="156.38" y="-61.95" font-family="Times,serif" font-size="14.00">STREAMING</text>
</g>
<!-- IDLE&#45;&gt;STREAMING -->
<g id="edge1" class="edge">
<title>IDLE&#45;&gt;STREAMING</title>
<path fill="none" stroke="black" d="M64.03,-33.24C74.28,-37.03 86.08,-41.39 97.72,-45.69"/>
<polygon fill="black" stroke="black" points="96.3,-48.9 106.89,-49.08 98.73,-42.33 96.3,-48.9"/>
</g>
<!-- DONE -->
<g id="node3" class="node">
<title>DONE</title>
<path fill="#e0c0c0" stroke="black" d="M291.12,-40C291.12,-40 261.12,-40 261.12,-40 255.12,-40 249.12,-34 249.12,-28 249.12,-28 249.12,-16 249.12,-16 249.12,-10 255.12,-4 261.12,-4 261.12,-4 291.12,-4 291.12,-4 297.12,-4 303.12,-10 303.12,-16 303.12,-16 303.12,-28 303.12,-28 303.12,-34 297.12,-40 291.12,-40"/>
<text xml:space="preserve" text-anchor="middle" x="276.12" y="-16.95" font-family="Times,serif" font-size="14.00">DONE</text>
</g>
<!-- STREAMING&#45;&gt;DONE -->
<g id="edge2" class="edge">
<title>STREAMING&#45;&gt;DONE</title>
<path fill="none" stroke="black" d="M204.59,-48.96C215.8,-44.67 227.59,-40.17 238.26,-36.09"/>
<polygon fill="black" stroke="black" points="239.39,-39.4 247.48,-32.56 236.89,-32.86 239.39,-39.4"/>
</g>
<!-- DONE&#45;&gt;IDLE -->
<g id="edge3" class="edge">
<title>DONE&#45;&gt;IDLE</title>
<path fill="none" stroke="#888888" stroke-dasharray="5,2" d="M248.73,-22C206.84,-22 124.8,-22 75.03,-22"/>
<polygon fill="#888888" stroke="#888888" points="75.24,-18.5 65.24,-22 75.24,-25.5 75.24,-18.5"/>
</g>
</g>
</svg>
