<?xml version="1.0" encoding="UTF-8" standalone="no"?>
<!DOCTYPE svg PUBLIC "-//W3C//DTD SVG 1.1//EN"
 "http://www.w3.org/Graphics/SVG/1.1/DTD/svg11.dtd">
<!-- Generated by graphviz version 15.1.0 (0)
 -->
<!-- Title: handshake_detector Pages: 1 -->
<svg width="534pt" height="182pt"
 viewBox="0.00 0.00 534.00 182.00" xmlns="http://www.w3.org/2000/svg" xmlns:xlink="http://www.w3.org/1999/xlink">
<g id="graph0" class="graph" transform="scale(1 1) rotate(0) translate(4 177.75)">
<title>handshake_detector</title>
<polygon fill="white" stroke="none" points="-4,4 -4,-177.75 529.5,-177.75 529.5,4 -4,4"/>
<text xml:space="preserve" text-anchor="middle" x="262.75" y="-158.35" font-family="Helvetica,sans-Serif" font-size="12.00">State Machine: USBHandshakeDetector</text>
<!-- AWAIT_COMPLETION -->
<g id="node1" class="node">
<title>AWAIT_COMPLETION</title>
<path fill="#e8e8e8" stroke="black" d="M139,-36C139,-36 12,-36 12,-36 6,-36 0,-30 0,-24 0,-24 0,-12 0,-12 0,-6 6,0 12,0 12,0 139,0 139,0 145,0 151,-6 151,-12 151,-12 151,-24 151,-24 151,-30 145,-36 139,-36"/>
<text xml:space="preserve" text-anchor="middle" x="75.5" y="-12.95" font-family="Times,serif" font-size="14.00">AWAIT COMPLETION</text>
</g>
<!-- IDLE -->
<g id="node2" class="node">
<title>IDLE</title>
<path fill="#c0e0c0" stroke="black" d="M242,-102C242,-102 212,-102 212,-102 206,-102 200,-96 200,-90 200,-90 200,-78 200,-78 200,-72 206,-66 212,-66 212,-66 242,-66 242,-66 248,-66 254,-72 254,-78 254,-78 254,-90 254,-90 254,-96 248,-102 242,-102"/>
<path fill="none" stroke="black" d="M246,-106C246,-106 208,-106 208,-106 202,-106 196,-100 196,-94 196,-94 196,-74 196,-74 196,-68 202,-62 208,-62 208,-62 246,-62 246,-62 252,-62 258,-68 258,-74 258,-74 258,-94 258,-94 258,-100 252,-106 246,-106"/>
<text xml:space="preserve" text-anchor="middle" x="227" y="-78.95" font-family="Times,serif" font-size="14.00">IDLE</text>
</g>
<!-- AWAIT_COMPLETION&#45;&gt;IDLE -->
<g id="edge1" class="edge">
<title>AWAIT_COMPLETION&#45;&gt;IDLE</title>
<path fill="none" stroke="black" d="M118.14,-36.38C139.19,-45.67 164.61,-56.9 185.49,-66.12"/>
<polygon fill="black" stroke="black" points="184.01,-69.29 194.57,-70.12 186.83,-62.88 184.01,-69.29"/>
</g>
<!-- IRRELEVANT -->
<g id="node3" class="node">
<title>IRRELEVANT</title>
<path fill="#e8e8e8" stroke="black" d="M513.5,-72C513.5,-72 438.25,-72 438.25,-72 432.25,-72 426.25,-66 426.25,-60 426.25,-60 426.25,-48 426.25,-48 426.25,-42 432.25,-36 438.25,-36 438.25,-36 513.5,-36 513.5,-36 519.5,-36 525.5,-42 525.5,-48 525.5,-48 525.5,-60 525.5,-60 525.5,-66 519.5,-72 513.5,-72"/>
<text xml:space="preserve" text-anchor="middle" x="475.88" y="-48.95" font-family="Times,serif" font-size="14.00">IRRELEVANT</text>
</g>
<!-- AWAIT_COMPLETION&#45;&gt;IRRELEVANT -->
<g id="edge2" class="edge">
<title>AWAIT_COMPLETION&#45;&gt;IRRELEVANT</title>
<path fill="none" stroke="black" d="M151.31,-12.46C213.38,-9.41 303.69,-8.59 381.25,-22 393.95,-24.2 407.25,-27.85 419.7,-31.93"/>
<polygon fill="black" stroke="black" points="418.36,-35.17 428.96,-35.1 420.63,-28.55 418.36,-35.17"/>
</g>
<!-- IDLE&#45;&gt;IDLE -->
<g id="edge8" class="edge">
<title>IDLE&#45;&gt;IDLE</title>
<path fill="none" stroke="#888888" stroke-dasharray="5,2" d="M217.81,-106.28C215.32,-120.88 218.38,-135 227,-135 233.33,-135 236.66,-127.38 237,-117.56"/>
<polygon fill="#888888" stroke="#888888" points="240.51,-117.52 236.3,-107.79 233.53,-118.02 240.51,-117.52"/>
<text xml:space="preserve" text-anchor="middle" x="227" y="-138.2" font-family="Times,serif" font-size="14.00">rx_active=0</text>
</g>
<!-- READ_PID -->
<g id="node4" class="node">
<title>READ_PID</title>
<path fill="#e8e8e8" stroke="black" d="M369.25,-72C369.25,-72 315,-72 315,-72 309,-72 303,-66 303,-60 303,-60 303,-48 303,-48 303,-42 309,-36 315,-36 315,-36 369.25,-36 369.25,-36 375.25,-36 381.25,-42 381.25,-48 381.25,-48 381.25,-60 381.25,-60 381.25,-66 375.25,-72 369.25,-72"/>
<text xml:space="preserve" text-anchor="middle" x="342.12" y="-48.95" font-family="Times,serif" font-size="14.00">READ PID</text>
</g>
<!-- IDLE&#45;&gt;READ_PID -->
<g id="edge3" class="edge">
<title>IDLE&#45;&gt;READ_PID</title>
<path fill="none" stroke="black" d="M258.32,-66.2C268.53,-62.56 280.2,-59.12 291.5,-56.36"/>
<polygon fill="black" stroke="black" points="292.15,-59.8 301.13,-54.18 290.61,-52.97 292.15,-59.8"/>
</g>
<!-- IRRELEVANT&#45;&gt;IDLE -->
<g id="edge4" class="edge">
<title>IRRELEVANT&#45;&gt;IDLE</title>
<path fill="none" stroke="black" d="M429.8,-72.34C414.6,-77.86 397.4,-83.4 381.25,-87 337.54,-96.73 325.72,-94.78 281,-97 277.26,-97.19 273.42,-97.01 269.58,-96.57"/>
<polygon fill="black" stroke="black" points="270.2,-93.12 259.74,-94.84 268.99,-100.02 270.2,-93.12"/>
</g>
<!-- READ_PID&#45;&gt;AWAIT_COMPLETION -->
<g id="edge5" class="edge">
<title>READ_PID&#45;&gt;AWAIT_COMPLETION</title>
<path fill="none" stroke="black" d="M302.79,-48.79C266.21,-43.81 209.81,-36.14 162.47,-29.69"/>
<polygon fill="black" stroke="black" points="163.15,-26.26 152.77,-28.38 162.21,-33.19 163.15,-26.26"/>
</g>
<!-- READ_PID&#45;&gt;IDLE -->
<g id="edge6" class="edge">
<title>READ_PID&#45;&gt;IDLE</title>
<path fill="none" stroke="black" d="M309.14,-72.39C296.81,-76.69 282.55,-80.68 269.45,-83.53"/>
<polygon fill="black" stroke="black" points="268.94,-80.06 259.8,-85.43 270.29,-86.93 268.94,-80.06"/>
</g>
<!-- READ_PID&#45;&gt;IRRELEVANT -->
<g id="edge7" class="edge">
<title>READ_PID&#45;&gt;IRRELEVANT</title>
<path fill="none" stroke="black" d="M381.59,-54C391.85,-54 403.19,-54 414.32,-54"/>
<polygon fill="black" stroke="black" points="414.28,-57.5 424.28,-54 414.28,-50.5 414.28,-57.5"/>
</g>
</g>
</svg>
