<?xml version="1.0" encoding="UTF-8" standalone="no"?>
<!DOCTYPE svg PUBLIC "-//W3C//DTD SVG 1.1//EN"
 "http://www.w3.org/Graphics/SVG/1.1/DTD/svg11.dtd">
<!-- Generated by graphviz version 15.1.0 (0)
 -->
<!-- Title: handshake_detector Pages: 1 -->
<svg width="391pt" height="120pt"
 viewBox="0.00 0.00 391.00 120.00" xmlns="http://www.w3.org/2000/svg" xmlns:xlink="http://www.w3.org/1999/xlink">
<g id="graph0" class="graph" transform="scale(1 1) rotate(0) translate(4 115.75)">
<title>handshake_detector</title>
<polygon fill="white" stroke="none" points="-4,4 -4,-115.75 386.88,-115.75 386.88,4 -4,4"/>
<text xml:space="preserve" text-anchor="middle" x="191.44" y="-96.35" font-family="Helvetica,sans-Serif" font-size="12.00">State Machine: USBHandshakeDetector</text>
<!-- IDLE -->
<g id="node1" class="node">
<title>IDLE</title>
<path fill="#c0e0c0" stroke="black" d="M47.62,-40C47.62,-40 17.62,-40 17.62,-40 11.62,-40 5.62,-34 5.62,-28 5.62,-28 5.62,-16 5.62,-16 5.62,-10 11.62,-4 17.62,-4 17.62,-4 47.62,-4 47.62,-4 53.62,-4 59.62,-10 59.62,-16 59.62,-16 59.62,-28 59.62,-28 59.62,-34 53.62,-40 47.62,-40"/>
<path fill="none" stroke="black" d="M51.62,-44C51.62,-44 13.62,-44 13.62,-44 7.62,-44 1.62,-38 1.62,-32 1.62,-32 1.62,-12 1.62,-12 1.62,-6 7.62,0 13.62,0 13.62,0 51.62,0 51.62,0 57.62,0 63.62,-6 63.62,-12 63.62,-12 63.62,-32 63.62,-32 63.62,-38 57.62,-44 51.62,-44"/>
<text xml:space="preserve" text-anchor="middle" x="32.62" y="-16.95" font-family="Times,serif" font-size="14.00">IDLE</text>
</g>
<!-- IDLE&#45;&gt;IDLE -->
<g id="edge3" class="edge">
<title>IDLE&#45;&gt;IDLE</title>
<path fill="none" stroke="#888888" stroke-dasharray="5,2" d="M23.43,-44.28C20.94,-58.88 24,-73 32.62,-73 38.96,-73 42.29,-65.38 42.63,-55.56"/>
<polygon fill="#888888" stroke="#888888" points="46.13,-55.52 41.93,-45.79 39.15,-56.02 46.13,-55.52"/>
<text xml:space="preserve" text-anchor="middle" x="32.62" y="-76.2" font-family="Times,serif" font-size="14.00">rx_active=0</text>
</g>
<!-- READ_PID -->
<g id="node2" class="node">
<title>READ_PID</title>
<path fill="#e8e8e8" stroke="black" d="M174.88,-40C174.88,-40 120.62,-40 120.62,-40 114.62,-40 108.62,-34 108.62,-28 108.62,-28 108.62,-16 108.62,-16 108.62,-10 114.62,-4 120.62,-4 120.62,-4 174.88,-4 174.88,-4 180.88,-4 186.88,-10 186.88,-16 186.88,-16 186.88,-28 186.88,-28 186.88,-34 180.88,-40 174.88,-40"/>
<text xml:space="preserve" text-anchor="middle" x="147.75" y="-16.95" font-family="Times,serif" font-size="14.00">READ PID</text>
</g>
<!-- IDLE&#45;&gt;READ_PID -->
<g id="edge1" class="edge">
<title>IDLE&#45;&gt;READ_PID</title>
<path fill="none" stroke="black" d="M63.94,-22C74.04,-22 85.58,-22 96.77,-22"/>
<polygon fill="black" stroke="black" points="96.72,-25.5 106.72,-22 96.72,-18.5 96.72,-25.5"/>
</g>
<!-- AWAIT_COMPLETION -->
<g id="node3" class="node">
<title>AWAIT_COMPLETION</title>
<path fill="#e8e8e8" stroke="black" d="M370.88,-40C370.88,-40 243.88,-40 243.88,-40 237.88,-40 231.88,-34 231.88,-28 231.88,-28 231.88,-16 231.88,-16 231.88,-10 237.88,-4 243.88,-4 243.88,-4 370.88,-4 370.88,-4 376.88,-4 382.88,-10 382.88,-16 382.88,-16 382.88,-28 382.88,-28 382.88,-34 376.88,-40 370.88,-40"/>
<text xml:space="preserve" text-anchor="middle" x="307.38" y="-16.95" font-family="Times,serif" font-size="14.00">AWAIT COMPLETION</text>
</g>
<!-- READ_PID&#45;&gt;AWAIT_COMPLETION -->
<g id="edge2" class="edge">
<title>READ_PID&#45;&gt;AWAIT_COMPLETION</title>
<path fill="none" stroke="black" d="M187.31,-22C197.36,-22 208.6,-22 220.05,-22"/>
<polygon fill="black" stroke="black" points="220.03,-25.5 230.03,-22 220.03,-18.5 220.03,-25.5"/>
</g>
</g>
</svg>
