<?xml version="1.0" encoding="UTF-8" standalone="no"?>
<!DOCTYPE svg PUBLIC "-//W3C//DTD SVG 1.1//EN"
 "http://www.w3.org/Graphics/SVG/1.1/DTD/svg11.dtd">
<!-- Generated by graphviz version 15.1.0 (0)
 -->
<!-- Title: handshake_generator Pages: 1 -->
<svg width="247pt" height="120pt"
 viewBox="0.00 0.00 247.00 120.00" xmlns="http://www.w3.org/2000/svg" xmlns:xlink="http://www.w3.org/1999/xlink">
<g id="graph0" class="graph" transform="scale(1 1) rotate(0) translate(4 115.75)">
<title>handshake_generator</title>
<polygon fill="white" stroke="none" points="-4,4 -4,-115.75 242.75,-115.75 242.75,4 -4,4"/>
<text xml:space="preserve" text-anchor="middle" x="119.38" y="-96.35" font-family="Helvetica,sans-Serif" font-size="12.00">State Machine: USBHandshakeGenerator</text>
<!-- IDLE -->
<g id="node1" class="node">
<title>IDLE</title>
<path fill="#c0e0c0" stroke="black" d="M69.81,-40C69.81,-40 39.81,-40 39.81,-40 33.81,-40 27.81,-34 27.81,-28 27.81,-28 27.81,-16 27.81,-16 27.81,-10 33.81,-4 39.81,-4 39.81,-4 69.81,-4 69.81,-4 75.81,-4 81.81,-10 81.81,-16 81.81,-16 81.81,-28 81.81,-28 81.81,-34 75.81,-40 69.81,-40"/>
<path fill="none" stroke="black" d="M73.81,-44C73.81,-44 35.81,-44 35.81,-44 29.81,-44 23.81,-38 23.81,-32 23.81,-32 23.81,-12 23.81,-12 23.81,-6 29.81,0 35.81,0 35.81,0 73.81,0 73.81,0 79.81,0 85.81,-6 85.81,-12 85.81,-12 85.81,-32 85.81,-32 85.81,-38 79.81,-44 73.81,-44"/>
<text xml:space="preserve" text-anchor="middle" x="54.81" y="-16.95" font-family="Times,serif" font-size="14.00">IDLE</text>
</g>
<!-- IDLE&#45;&gt;IDLE -->
<g id="edge3" class="edge">
<title>IDLE&#45;&gt;IDLE</title>
<path fill="none" stroke="#888888" stroke-dasharray="5,2" d="M45.62,-44.28C43.13,-58.88 46.19,-73 54.81,-73 61.14,-73 64.48,-65.38 64.82,-55.56"/>
<polygon fill="#888888" stroke="#888888" points="68.32,-55.52 64.11,-45.79 61.34,-56.02 68.32,-55.52"/>
<text xml:space="preserve" text-anchor="middle" x="54.81" y="-76.2" font-family="Times,serif" font-size="14.00">rx_active=0</text>
</g>
<!-- TRANSMIT -->
<g id="node2" class="node">
<title>TRANSMIT</title>
<path fill="#e8e8e8" stroke="black" d="M204.56,-40C204.56,-40 142.81,-40 142.81,-40 136.81,-40 130.81,-34 130.81,-28 130.81,-28 130.81,-16 130.81,-16 130.81,-10 136.81,-4 142.81,-4 142.81,-4 204.56,-4 204.56,-4 210.56,-4 216.56,-10 216.56,-16 216.56,-16 216.56,-28 216.56,-28 216.56,-34 210.56,-40 204.56,-40"/>
<text xml:space="preserve" text-anchor="middle" x="173.69" y="-16.95" font-family="Times,serif" font-size="14.00">TRANSMIT</text>
</g>
<!-- IDLE&#45;&gt;TRANSMIT -->
<g id="edge1" class="edge">
<title>IDLE&#45;&gt;TRANSMIT</title>
<path fill="none" stroke="black" d="M86.21,-12.32C96.36,-11.38 107.98,-11 119.35,-11.16"/>
<polygon fill="black" stroke="black" points="118.94,-14.65 129.05,-11.46 119.16,-7.65 118.94,-14.65"/>
</g>
<!-- TRANSMIT&#45;&gt;IDLE -->
<g id="edge2" class="edge">
<title>TRANSMIT&#45;&gt;IDLE</title>
<path fill="none" stroke="black" d="M130.56,-32.49C119.79,-33.01 108.22,-33 97.47,-32.47"/>
<polygon fill="black" stroke="black" points="97.95,-28.99 87.72,-31.78 97.46,-35.97 97.95,-28.99"/>
</g>
</g>
</svg>
