<?xml version="1.0" encoding="UTF-8" standalone="no"?>
<!DOCTYPE svg PUBLIC "-//W3C//DTD SVG 1.1//EN"
 "http://www.w3.org/Graphics/SVG/1.1/DTD/svg11.dtd">
<!-- Generated by graphviz version 15.1.0 (0)
 -->
<!-- Title: reset_sequencer Pages: 1 -->
<svg width="2608pt" height="185pt"
 viewBox="0.00 0.00 2608.00 185.00" xmlns="http://www.w3.org/2000/svg" xmlns:xlink="http://www.w3.org/1999/xlink">
<g id="graph0" class="graph" transform="scale(1 1) rotate(0) translate(4 180.75)">
<title>reset_sequencer</title>
<polygon fill="white" stroke="none" points="-4,4 -4,-180.75 2603.5,-180.75 2603.5,4 -4,4"/>
<text xml:space="preserve" text-anchor="middle" x="1299.75" y="-161.35" font-family="Helvetica,sans-Serif" font-size="12.00">State Machine: USBResetSequencer</text>
<!-- INITIALIZE -->
<g id="node1" class="node">
<title>INITIALIZE</title>
<path fill="#c0e0c0" stroke="black" d="M78.5,-40C78.5,-40 16,-40 16,-40 10,-40 4,-34 4,-28 4,-28 4,-16 4,-16 4,-10 10,-4 16,-4 16,-4 78.5,-4 78.5,-4 84.5,-4 90.5,-10 90.5,-16 90.5,-16 90.5,-28 90.5,-28 90.5,-34 84.5,-40 78.5,-40"/>
<path fill="none" stroke="black" d="M82.5,-44C82.5,-44 12,-44 12,-44 6,-44 0,-38 0,-32 0,-32 0,-12 0,-12 0,-6 6,0 12,0 12,0 82.5,0 82.5,0 88.5,0 94.5,-6 94.5,-12 94.5,-12 94.5,-32 94.5,-32 94.5,-38 88.5,-44 82.5,-44"/>
<text xml:space="preserve" text-anchor="middle" x="47.25" y="-16.95" font-family="Times,serif" font-size="14.00">INITIALIZE</text>
</g>
<!-- LS_FS_NON_RESET -->
<g id="node2" class="node">
<title>LS_FS_NON_RESET</title>
<path fill="#e8e8e8" stroke="black" d="M256,-85C256,-85 151.5,-85 151.5,-85 145.5,-85 139.5,-79 139.5,-73 139.5,-73 139.5,-61 139.5,-61 139.5,-55 145.5,-49 151.5,-49 151.5,-49 256,-49 256,-49 262,-49 268,-55 268,-61 268,-61 268,-73 268,-73 268,-79 262,-85 256,-85"/>
<text xml:space="preserve" text-anchor="middle" x="203.75" y="-61.95" font-family="Times,serif" font-size="14.00">LS FS NON RESET</text>
</g>
<!-- INITIALIZE&#45;&gt;LS_FS_NON_RESET -->
<g id="edge1" class="edge">
<title>INITIALIZE&#45;&gt;LS_FS_NON_RESET</title>
<path fill="none" stroke="black" d="M94.61,-35.5C105.25,-38.6 116.83,-41.97 128.32,-45.32"/>
<polygon fill="black" stroke="black" points="127.25,-48.66 137.83,-48.09 129.21,-41.94 127.25,-48.66"/>
</g>
<!-- START_HS_DETECTION -->
<g id="node3" class="node">
<title>START_HS_DETECTION</title>
<path fill="#e8e8e8" stroke="black" d="M458.75,-85C458.75,-85 325,-85 325,-85 319,-85 313,-79 313,-73 313,-73 313,-61 313,-61 313,-55 319,-49 325,-49 325,-49 458.75,-49 458.75,-49 464.75,-49 470.75,-55 470.75,-61 470.75,-61 470.75,-73 470.75,-73 470.75,-79 464.75,-85 458.75,-85"/>
<text xml:space="preserve" text-anchor="middle" x="391.88" y="-61.95" font-family="Times,serif" font-size="14.00">START HS DETECTION</text>
</g>
<!-- LS_FS_NON_RESET&#45;&gt;START_HS_DETECTION -->
<g id="edge2" class="edge">
<title>LS_FS_NON_RESET&#45;&gt;START_HS_DETECTION</title>
<path fill="none" stroke="black" d="M268.28,-67C279.02,-67 290.35,-67 301.61,-67"/>
<polygon fill="black" stroke="black" points="301.3,-70.5 311.3,-67 301.3,-63.5 301.3,-70.5"/>
</g>
<!-- PREPARE_FOR_CHIRP_0 -->
<g id="node4" class="node">
<title>PREPARE_FOR_CHIRP_0</title>
<path fill="#e8e8e8" stroke="black" d="M662.25,-85C662.25,-85 527.75,-85 527.75,-85 521.75,-85 515.75,-79 515.75,-73 515.75,-73 515.75,-61 515.75,-61 515.75,-55 521.75,-49 527.75,-49 527.75,-49 662.25,-49 662.25,-49 668.25,-49 674.25,-55 674.25,-61 674.25,-61 674.25,-73 674.25,-73 674.25,-79 668.25,-85 662.25,-85"/>
<text xml:space="preserve" text-anchor="middle" x="595" y="-61.95" font-family="Times,serif" font-size="14.00">PREPARE FOR CHIRP 0</text>
</g>
<!-- START_HS_DETECTION&#45;&gt;PREPARE_FOR_CHIRP_0 -->
<g id="edge3" class="edge">
<title>START_HS_DETECTION&#45;&gt;PREPARE_FOR_CHIRP_0</title>
<path fill="none" stroke="black" d="M471.21,-67C482.02,-67 493.18,-67 504.18,-67"/>
<polygon fill="black" stroke="black" points="504.03,-70.5 514.03,-67 504.03,-63.5 504.03,-70.5"/>
</g>
<!-- PREPARE_FOR_CHIRP_1 -->
<g id="node5" class="node">
<title>PREPARE_FOR_CHIRP_1</title>
<path fill="#e8e8e8" stroke="black" d="M865.75,-85C865.75,-85 731.25,-85 731.25,-85 725.25,-85 719.25,-79 719.25,-73 719.25,-73 719.25,-61 719.25,-61 719.25,-55 725.25,-49 731.25,-49 731.25,-49 865.75,-49 865.75,-49 871.75,-49 877.75,-55 877.75,-61 877.75,-61 877.75,-73 877.75,-73 877.75,-79 871.75,-85 865.75,-85"/>
<text xml:space="preserve" text-anchor="middle" x="798.5" y="-61.95" font-family="Times,serif" font-size="14.00">PREPARE FOR CHIRP 1</text>
</g>
<!-- PREPARE_FOR_CHIRP_0&#45;&gt;PREPARE_FOR_CHIRP_1 -->
<g id="edge4" class="edge">
<title>PREPARE_FOR_CHIRP_0&#45;&gt;PREPARE_FOR_CHIRP_1</title>
<path fill="none" stroke="black" d="M674.48,-67C685.31,-67 696.5,-67 707.51,-67"/>
<polygon fill="black" stroke="black" points="707.39,-70.5 717.39,-67 707.39,-63.5 707.39,-70.5"/>
</g>
<!-- DEVICE_CHIRP -->
<g id="node6" class="node">
<title>DEVICE_CHIRP</title>
<path fill="#e8e8e8" stroke="black" d="M1019.75,-85C1019.75,-85 934.75,-85 934.75,-85 928.75,-85 922.75,-79 922.75,-73 922.75,-73 922.75,-61 922.75,-61 922.75,-55 928.75,-49 934.75,-49 934.75,-49 1019.75,-49 1019.75,-49 1025.75,-49 1031.75,-55 1031.75,-61 1031.75,-61 1031.75,-73 1031.75,-73 1031.75,-79 1025.75,-85 1019.75,-85"/>
<text xml:space="preserve" text-anchor="middle" x="977.25" y="-61.95" font-family="Times,serif" font-size="14.00">DEVICE CHIRP</text>
</g>
<!-- PREPARE_FOR_CHIRP_1&#45;&gt;DEVICE_CHIRP -->
<g id="edge5" class="edge">
<title>PREPARE_FOR_CHIRP_1&#45;&gt;DEVICE_CHIRP</title>
<path fill="none" stroke="black" d="M878.05,-67C889.02,-67 900.2,-67 910.89,-67"/>
<polygon fill="black" stroke="black" points="910.75,-70.5 920.75,-67 910.75,-63.5 910.75,-70.5"/>
</g>
<!-- AWAIT_HOST_K -->
<g id="node7" class="node">
<title>AWAIT_HOST_K</title>
<path fill="#e8e8e8" stroke="black" d="M1176.75,-85C1176.75,-85 1088.75,-85 1088.75,-85 1082.75,-85 1076.75,-79 1076.75,-73 1076.75,-73 1076.75,-61 1076.75,-61 1076.75,-55 1082.75,-49 1088.75,-49 1088.75,-49 1176.75,-49 1176.75,-49 1182.75,-49 1188.75,-55 1188.75,-61 1188.75,-61 1188.75,-73 1188.75,-73 1188.75,-79 1182.75,-85 1176.75,-85"/>
<text xml:space="preserve" text-anchor="middle" x="1132.75" y="-61.95" font-family="Times,serif" font-size="14.00">AWAIT HOST K</text>
</g>
<!-- DEVICE_CHIRP&#45;&gt;AWAIT_HOST_K -->
<g id="edge6" class="edge">
<title>DEVICE_CHIRP&#45;&gt;AWAIT_HOST_K</title>
<path fill="none" stroke="black" d="M1031.94,-67C1042.59,-67 1053.89,-67 1064.92,-67"/>
<polygon fill="black" stroke="black" points="1064.76,-70.5 1074.76,-67 1064.76,-63.5 1064.76,-70.5"/>
</g>
<!-- IN_HOST_K -->
<g id="node8" class="node">
<title>IN_HOST_K</title>
<path fill="#e8e8e8" stroke="black" d="M1304.5,-85C1304.5,-85 1245.75,-85 1245.75,-85 1239.75,-85 1233.75,-79 1233.75,-73 1233.75,-73 1233.75,-61 1233.75,-61 1233.75,-55 1239.75,-49 1245.75,-49 1245.75,-49 1304.5,-49 1304.5,-49 1310.5,-49 1316.5,-55 1316.5,-61 1316.5,-61 1316.5,-73 1316.5,-73 1316.5,-79 1310.5,-85 1304.5,-85"/>
<text xml:space="preserve" text-anchor="middle" x="1275.12" y="-61.95" font-family="Times,serif" font-size="14.00">IN HOST K</text>
</g>
<!-- AWAIT_HOST_K&#45;&gt;IN_HOST_K -->
<g id="edge7" class="edge">
<title>AWAIT_HOST_K&#45;&gt;IN_HOST_K</title>
<path fill="none" stroke="black" d="M1189.23,-67C1200.04,-67 1211.33,-67 1222.02,-67"/>
<polygon fill="black" stroke="black" points="1221.82,-70.5 1231.82,-67 1221.82,-63.5 1221.82,-70.5"/>
</g>
<!-- AWAIT_HOST_J -->
<g id="node9" class="node">
<title>AWAIT_HOST_J</title>
<path fill="#e8e8e8" stroke="black" d="M1457,-85C1457,-85 1373.5,-85 1373.5,-85 1367.5,-85 1361.5,-79 1361.5,-73 1361.5,-73 1361.5,-61 1361.5,-61 1361.5,-55 1367.5,-49 1373.5,-49 1373.5,-49 1457,-49 1457,-49 1463,-49 1469,-55 1469,-61 1469,-61 1469,-73 1469,-73 1469,-79 1463,-85 1457,-85"/>
<text xml:space="preserve" text-anchor="middle" x="1415.25" y="-61.95" font-family="Times,serif" font-size="14.00">AWAIT HOST J</text>
</g>
<!-- IN_HOST_K&#45;&gt;AWAIT_HOST_J -->
<g id="edge8" class="edge">
<title>IN_HOST_K&#45;&gt;AWAIT_HOST_J</title>
<path fill="none" stroke="black" d="M1316.82,-67C1327.1,-67 1338.39,-67 1349.53,-67"/>
<polygon fill="black" stroke="black" points="1349.52,-70.5 1359.52,-67 1349.52,-63.5 1349.52,-70.5"/>
</g>
<!-- IN_HOST_J -->
<g id="node10" class="node">
<title>IN_HOST_J</title>
<path fill="#e8e8e8" stroke="black" d="M1580.25,-85C1580.25,-85 1526,-85 1526,-85 1520,-85 1514,-79 1514,-73 1514,-73 1514,-61 1514,-61 1514,-55 1520,-49 1526,-49 1526,-49 1580.25,-49 1580.25,-49 1586.25,-49 1592.25,-55 1592.25,-61 1592.25,-61 1592.25,-73 1592.25,-73 1592.25,-79 1586.25,-85 1580.25,-85"/>
<text xml:space="preserve" text-anchor="middle" x="1553.12" y="-61.95" font-family="Times,serif" font-size="14.00">IN HOST J</text>
</g>
<!-- AWAIT_HOST_J&#45;&gt;IN_HOST_J -->
<g id="edge9" class="edge">
<title>AWAIT_HOST_J&#45;&gt;IN_HOST_J</title>
<path fill="none" stroke="black" d="M1469.17,-67C1480.12,-67 1491.61,-67 1502.43,-67"/>
<polygon fill="black" stroke="black" points="1502.34,-70.5 1512.34,-67 1502.34,-63.5 1502.34,-70.5"/>
</g>
<!-- IS_HIGH_SPEED -->
<g id="node11" class="node">
<title>IS_HIGH_SPEED</title>
<path fill="#e8e8e8" stroke="black" d="M1735.75,-85C1735.75,-85 1649.25,-85 1649.25,-85 1643.25,-85 1637.25,-79 1637.25,-73 1637.25,-73 1637.25,-61 1637.25,-61 1637.25,-55 1643.25,-49 1649.25,-49 1649.25,-49 1735.75,-49 1735.75,-49 1741.75,-49 1747.75,-55 1747.75,-61 1747.75,-61 1747.75,-73 1747.75,-73 1747.75,-79 1741.75,-85 1735.75,-85"/>
<text xml:space="preserve" text-anchor="middle" x="1692.5" y="-61.95" font-family="Times,serif" font-size="14.00">IS HIGH SPEED</text>
</g>
<!-- IN_HOST_J&#45;&gt;IS_HIGH_SPEED -->
<g id="edge10" class="edge">
<title>IN_HOST_J&#45;&gt;IS_HIGH_SPEED</title>
<path fill="none" stroke="black" d="M1592.39,-67C1602.69,-67 1614.14,-67 1625.48,-67"/>
<polygon fill="black" stroke="black" points="1625.24,-70.5 1635.24,-67 1625.24,-63.5 1625.24,-70.5"/>
</g>
<!-- HS_NON_RESET -->
<g id="node12" class="node">
<title>HS_NON_RESET</title>
<path fill="#e8e8e8" stroke="black" d="M1892,-85C1892,-85 1804.75,-85 1804.75,-85 1798.75,-85 1792.75,-79 1792.75,-73 1792.75,-73 1792.75,-61 1792.75,-61 1792.75,-55 1798.75,-49 1804.75,-49 1804.75,-49 1892,-49 1892,-49 1898,-49 1904,-55 1904,-61 1904,-61 1904,-73 1904,-73 1904,-79 1898,-85 1892,-85"/>
<text xml:space="preserve" text-anchor="middle" x="1848.38" y="-61.95" font-family="Times,serif" font-size="14.00">HS NON RESET</text>
</g>
<!-- IS_HIGH_SPEED&#45;&gt;HS_NON_RESET -->
<g id="edge11" class="edge">
<title>IS_HIGH_SPEED&#45;&gt;HS_NON_RESET</title>
<path fill="none" stroke="black" d="M1748.18,-67C1758.83,-67 1770.09,-67 1781.06,-67"/>
<polygon fill="black" stroke="black" points="1780.84,-70.5 1790.84,-67 1780.84,-63.5 1780.84,-70.5"/>
</g>
<!-- IS_LOW_OR_FULL_SPEED -->
<g id="node13" class="node">
<title>IS_LOW_OR_FULL_SPEED</title>
<path fill="#e8e8e8" stroke="black" d="M2104.5,-85C2104.5,-85 1961,-85 1961,-85 1955,-85 1949,-79 1949,-73 1949,-73 1949,-61 1949,-61 1949,-55 1955,-49 1961,-49 1961,-49 2104.5,-49 2104.5,-49 2110.5,-49 2116.5,-55 2116.5,-61 2116.5,-61 2116.5,-73 2116.5,-73 2116.5,-79 2110.5,-85 2104.5,-85"/>
<text xml:space="preserve" text-anchor="middle" x="2032.75" y="-61.95" font-family="Times,serif" font-size="14.00">IS LOW OR FULL SPEED</text>
</g>
<!-- HS_NON_RESET&#45;&gt;IS_LOW_OR_FULL_SPEED -->
<g id="edge12" class="edge">
<title>HS_NON_RESET&#45;&gt;IS_LOW_OR_FULL_SPEED</title>
<path fill="none" stroke="black" d="M1904.09,-67C1914.64,-67 1925.96,-67 1937.35,-67"/>
<polygon fill="black" stroke="black" points="1937.22,-70.5 1947.22,-67 1937.22,-63.5 1937.22,-70.5"/>
</g>
<!-- DETECT_HS_SUSPEND -->
<g id="node14" class="node">
<title>DETECT_HS_SUSPEND</title>
<path fill="#e8e8e8" stroke="black" d="M2302,-85C2302,-85 2173.5,-85 2173.5,-85 2167.5,-85 2161.5,-79 2161.5,-73 2161.5,-73 2161.5,-61 2161.5,-61 2161.5,-55 2167.5,-49 2173.5,-49 2173.5,-49 2302,-49 2302,-49 2308,-49 2314,-55 2314,-61 2314,-61 2314,-73 2314,-73 2314,-79 2308,-85 2302,-85"/>
<text xml:space="preserve" text-anchor="middle" x="2237.75" y="-61.95" font-family="Times,serif" font-size="14.00">DETECT HS SUSPEND</text>
</g>
<!-- IS_LOW_OR_FULL_SPEED&#45;&gt;DETECT_HS_SUSPEND -->
<g id="edge13" class="edge">
<title>IS_LOW_OR_FULL_SPEED&#45;&gt;DETECT_HS_SUSPEND</title>
<path fill="none" stroke="black" d="M2116.9,-67C2127.79,-67 2138.97,-67 2149.92,-67"/>
<polygon fill="black" stroke="black" points="2149.71,-70.5 2159.71,-67 2149.71,-63.5 2149.71,-70.5"/>
</g>
<!-- SUSPENDED -->
<g id="node15" class="node">
<title>SUSPENDED</title>
<path fill="#e8e8e8" stroke="black" d="M2441,-85C2441,-85 2371,-85 2371,-85 2365,-85 2359,-79 2359,-73 2359,-73 2359,-61 2359,-61 2359,-55 2365,-49 2371,-49 2371,-49 2441,-49 2441,-49 2447,-49 2453,-55 2453,-61 2453,-61 2453,-73 2453,-73 2453,-79 2447,-85 2441,-85"/>
<text xml:space="preserve" text-anchor="middle" x="2406" y="-61.95" font-family="Times,serif" font-size="14.00">SUSPENDED</text>
</g>
<!-- DETECT_HS_SUSPEND&#45;&gt;SUSPENDED -->
<g id="edge14" class="edge">
<title>DETECT_HS_SUSPEND&#45;&gt;SUSPENDED</title>
<path fill="none" stroke="black" d="M2314.09,-67C2325.32,-67 2336.74,-67 2347.53,-67"/>
<polygon fill="black" stroke="black" points="2347.42,-70.5 2357.42,-67 2347.42,-63.5 2347.42,-70.5"/>
</g>
<!-- DISCONNECT -->
<g id="node16" class="node">
<title>DISCONNECT</title>
<path fill="#e8e8e8" stroke="black" d="M2587.5,-40C2587.5,-40 2510,-40 2510,-40 2504,-40 2498,-34 2498,-28 2498,-28 2498,-16 2498,-16 2498,-10 2504,-4 2510,-4 2510,-4 2587.5,-4 2587.5,-4 2593.5,-4 2599.5,-10 2599.5,-16 2599.5,-16 2599.5,-28 2599.5,-28 2599.5,-34 2593.5,-40 2587.5,-40"/>
<text xml:space="preserve" text-anchor="middle" x="2548.75" y="-16.95" font-family="Times,serif" font-size="14.00">DISCONNECT</text>
</g>
<!-- SUSPENDED&#45;&gt;DISCONNECT -->
<g id="edge15" class="edge">
<title>SUSPENDED&#45;&gt;DISCONNECT</title>
<path fill="none" stroke="black" d="M2453.48,-52.14C2464.28,-48.69 2475.93,-44.96 2487.24,-41.35"/>
<polygon fill="black" stroke="black" points="2488.03,-44.77 2496.49,-38.39 2485.9,-38.1 2488.03,-44.77"/>
</g>
<!-- DISCONNECT&#45;&gt;INITIALIZE -->
<g id="edge16" class="edge">
<title>DISCONNECT&#45;&gt;INITIALIZE</title>
<path fill="none" stroke="#888888" stroke-dasharray="5,2" d="M2497.77,-13C2470.95,-8.92 2437.27,-5 2407,-5 202.75,-5 202.75,-5 202.75,-5 170.59,-5 134.89,-8.68 105.91,-12.62"/>
<polygon fill="#888888" stroke="#888888" points="105.67,-9.12 96.25,-13.99 106.64,-16.05 105.67,-9.12"/>
</g>
<!-- IDLE -->
<g id="node17" class="node">
<title>IDLE</title>
<ellipse fill="none" stroke="black" cx="47.25" cy="-91" rx="31.9" ry="18"/>
<text xml:space="preserve" text-anchor="middle" x="47.25" y="-85.95" font-family="Times,serif" font-size="14.00">IDLE</text>
</g>
<!-- IDLE&#45;&gt;IDLE -->
<g id="edge17" class="edge">
<title>IDLE&#45;&gt;IDLE</title>
<path fill="none" stroke="#888888" stroke-dasharray="5,2" d="M36.17,-108.35C31.43,-122.85 35.13,-138 47.25,-138 56.25,-138 60.6,-129.66 60.31,-119.43"/>
<polygon fill="#888888" stroke="#888888" points="63.81,-119.07 58.6,-109.84 56.92,-120.3 63.81,-119.07"/>
<text xml:space="preserve" text-anchor="middle" x="47.25" y="-141.2" font-family="Times,serif" font-size="14.00">rx_active=0</text>
</g>
</g>
</svg>
