<?xml version="1.0" encoding="UTF-8" standalone="no"?>
<!DOCTYPE svg PUBLIC "-//W3C//DTD SVG 1.1//EN"
 "http://www.w3.org/Graphics/SVG/1.1/DTD/svg11.dtd">
<!-- Generated by graphviz version 15.1.0 (0)
 -->
<!-- Title: reset_sequencer Pages: 1 -->
<svg width="2296pt" height="626pt"
 viewBox="0.00 0.00 2296.00 626.00" xmlns="http://www.w3.org/2000/svg" xmlns:xlink="http://www.w3.org/1999/xlink">
<g id="graph0" class="graph" transform="scale(1 1) rotate(0) translate(4 622.25)">
<title>reset_sequencer</title>
<polygon fill="white" stroke="none" points="-4,4 -4,-622.25 2291.5,-622.25 2291.5,4 -4,4"/>
<text xml:space="preserve" text-anchor="middle" x="1143.75" y="-602.85" font-family="Helvetica,sans-Serif" font-size="12.00">State Machine: USBResetSequencer</text>
<!-- AWAIT_HOST_J -->
<g id="node1" class="node">
<title>AWAIT_HOST_J</title>
<path fill="#e8e8e8" stroke="black" d="M95.5,-468C95.5,-468 12,-468 12,-468 6,-468 0,-462 0,-456 0,-456 0,-444 0,-444 0,-438 6,-432 12,-432 12,-432 95.5,-432 95.5,-432 101.5,-432 107.5,-438 107.5,-444 107.5,-444 107.5,-456 107.5,-456 107.5,-462 101.5,-468 95.5,-468"/>
<text xml:space="preserve" text-anchor="middle" x="53.75" y="-444.95" font-family="Times,serif" font-size="14.00">AWAIT HOST J</text>
</g>
<!-- IN_HOST_J -->
<g id="node8" class="node">
<title>IN_HOST_J</title>
<path fill="#e8e8e8" stroke="black" d="M216.75,-499C216.75,-499 162.5,-499 162.5,-499 156.5,-499 150.5,-493 150.5,-487 150.5,-487 150.5,-475 150.5,-475 150.5,-469 156.5,-463 162.5,-463 162.5,-463 216.75,-463 216.75,-463 222.75,-463 228.75,-469 228.75,-475 228.75,-475 228.75,-487 228.75,-487 228.75,-493 222.75,-499 216.75,-499"/>
<text xml:space="preserve" text-anchor="middle" x="189.62" y="-475.95" font-family="Times,serif" font-size="14.00">IN HOST J</text>
</g>
<!-- AWAIT_HOST_J&#45;&gt;IN_HOST_J -->
<g id="edge1" class="edge">
<title>AWAIT_HOST_J&#45;&gt;IN_HOST_J</title>
<path fill="none" stroke="black" d="M107.66,-451.59C118.51,-453.77 129.87,-456.46 140.54,-459.38"/>
<polygon fill="black" stroke="black" points="139.32,-462.67 149.9,-462.09 141.26,-455.95 139.32,-462.67"/>
</g>
<!-- IS_LOW_OR_FULL_SPEED -->
<g id="node11" class="node">
<title>IS_LOW_OR_FULL_SPEED</title>
<path fill="#e8e8e8" stroke="black" d="M427.25,-437C427.25,-437 283.75,-437 283.75,-437 277.75,-437 271.75,-431 271.75,-425 271.75,-425 271.75,-413 271.75,-413 271.75,-407 277.75,-401 283.75,-401 283.75,-401 427.25,-401 427.25,-401 433.25,-401 439.25,-407 439.25,-413 439.25,-413 439.25,-425 439.25,-425 439.25,-431 433.25,-437 427.25,-437"/>
<text xml:space="preserve" text-anchor="middle" x="355.5" y="-413.95" font-family="Times,serif" font-size="14.00">IS LOW OR FULL SPEED</text>
</g>
<!-- AWAIT_HOST_J&#45;&gt;IS_LOW_OR_FULL_SPEED -->
<g id="edge2" class="edge">
<title>AWAIT_HOST_J&#45;&gt;IS_LOW_OR_FULL_SPEED</title>
<path fill="none" stroke="black" d="M107.99,-444.49C150.15,-440.13 210.07,-433.94 260.29,-428.74"/>
<polygon fill="black" stroke="black" points="260.41,-432.25 269.99,-427.74 259.69,-425.29 260.41,-432.25"/>
</g>
<!-- AWAIT_HOST_K -->
<g id="node2" class="node">
<title>AWAIT_HOST_K</title>
<path fill="#e8e8e8" stroke="black" d="M2149.75,-195C2149.75,-195 2061.75,-195 2061.75,-195 2055.75,-195 2049.75,-189 2049.75,-183 2049.75,-183 2049.75,-171 2049.75,-171 2049.75,-165 2055.75,-159 2061.75,-159 2061.75,-159 2149.75,-159 2149.75,-159 2155.75,-159 2161.75,-165 2161.75,-171 2161.75,-171 2161.75,-183 2161.75,-183 2161.75,-189 2155.75,-195 2149.75,-195"/>
<text xml:space="preserve" text-anchor="middle" x="2105.75" y="-171.95" font-family="Times,serif" font-size="14.00">AWAIT HOST K</text>
</g>
<!-- IN_HOST_K -->
<g id="node9" class="node">
<title>IN_HOST_K</title>
<path fill="#e8e8e8" stroke="black" d="M2275.5,-136C2275.5,-136 2216.75,-136 2216.75,-136 2210.75,-136 2204.75,-130 2204.75,-124 2204.75,-124 2204.75,-112 2204.75,-112 2204.75,-106 2210.75,-100 2216.75,-100 2216.75,-100 2275.5,-100 2275.5,-100 2281.5,-100 2287.5,-106 2287.5,-112 2287.5,-112 2287.5,-124 2287.5,-124 2287.5,-130 2281.5,-136 2275.5,-136"/>
<text xml:space="preserve" text-anchor="middle" x="2246.12" y="-112.95" font-family="Times,serif" font-size="14.00">IN HOST K</text>
</g>
<!-- AWAIT_HOST_K&#45;&gt;IN_HOST_K -->
<g id="edge3" class="edge">
<title>AWAIT_HOST_K&#45;&gt;IN_HOST_K</title>
<path fill="none" stroke="black" d="M2130.22,-158.59C2147.65,-148.9 2172.08,-137.77 2193.94,-129.28"/>
<polygon fill="black" stroke="black" points="2194.87,-132.67 2203,-125.88 2192.41,-126.12 2194.87,-132.67"/>
</g>
<!-- AWAIT_HOST_K&#45;&gt;IS_LOW_OR_FULL_SPEED -->
<g id="edge4" class="edge">
<title>AWAIT_HOST_K&#45;&gt;IS_LOW_OR_FULL_SPEED</title>
<path fill="none" stroke="black" d="M2098.5,-195.35C2072.24,-268.71 1963.42,-537 1776.5,-537 845,-537 845,-537 845,-537 684.19,-537 501.72,-475.83 412.14,-441.58"/>
<polygon fill="black" stroke="black" points="413.42,-438.32 402.83,-437.98 410.9,-444.85 413.42,-438.32"/>
</g>
<!-- DETECT_HS_SUSPEND -->
<g id="node3" class="node">
<title>DETECT_HS_SUSPEND</title>
<path fill="#e8e8e8" stroke="black" d="M1239,-257C1239,-257 1110.5,-257 1110.5,-257 1104.5,-257 1098.5,-251 1098.5,-245 1098.5,-245 1098.5,-233 1098.5,-233 1098.5,-227 1104.5,-221 1110.5,-221 1110.5,-221 1239,-221 1239,-221 1245,-221 1251,-227 1251,-233 1251,-233 1251,-245 1251,-245 1251,-251 1245,-257 1239,-257"/>
<text xml:space="preserve" text-anchor="middle" x="1174.75" y="-233.95" font-family="Times,serif" font-size="14.00">DETECT HS SUSPEND</text>
</g>
<!-- START_HS_DETECTION -->
<g id="node15" class="node">
<title>START_HS_DETECTION</title>
<path fill="#e8e8e8" stroke="black" d="M1439.75,-195C1439.75,-195 1306,-195 1306,-195 1300,-195 1294,-189 1294,-183 1294,-183 1294,-171 1294,-171 1294,-165 1300,-159 1306,-159 1306,-159 1439.75,-159 1439.75,-159 1445.75,-159 1451.75,-165 1451.75,-171 1451.75,-171 1451.75,-183 1451.75,-183 1451.75,-189 1445.75,-195 1439.75,-195"/>
<text xml:space="preserve" text-anchor="middle" x="1372.88" y="-171.95" font-family="Times,serif" font-size="14.00">START HS DETECTION</text>
</g>
<!-- DETECT_HS_SUSPEND&#45;&gt;START_HS_DETECTION -->
<g id="edge5" class="edge">
<title>DETECT_HS_SUSPEND&#45;&gt;START_HS_DETECTION</title>
<path fill="none" stroke="black" d="M1234.06,-220.57C1255.6,-213.76 1280.23,-205.97 1302.64,-198.89"/>
<polygon fill="black" stroke="black" points="1303.53,-202.28 1312,-195.93 1301.42,-195.6 1303.53,-202.28"/>
</g>
<!-- SUSPENDED -->
<g id="node16" class="node">
<title>SUSPENDED</title>
<path fill="#e8e8e8" stroke="black" d="M735.75,-257C735.75,-257 665.75,-257 665.75,-257 659.75,-257 653.75,-251 653.75,-245 653.75,-245 653.75,-233 653.75,-233 653.75,-227 659.75,-221 665.75,-221 665.75,-221 735.75,-221 735.75,-221 741.75,-221 747.75,-227 747.75,-233 747.75,-233 747.75,-245 747.75,-245 747.75,-251 741.75,-257 735.75,-257"/>
<text xml:space="preserve" text-anchor="middle" x="700.75" y="-233.95" font-family="Times,serif" font-size="14.00">SUSPENDED</text>
</g>
<!-- DETECT_HS_SUSPEND&#45;&gt;SUSPENDED -->
<g id="edge6" class="edge">
<title>DETECT_HS_SUSPEND&#45;&gt;SUSPENDED</title>
<path fill="none" stroke="black" d="M1098.05,-239C1003.67,-239 844.41,-239 759.36,-239"/>
<polygon fill="black" stroke="black" points="759.38,-235.5 749.38,-239 759.38,-242.5 759.38,-235.5"/>
</g>
<!-- DEVICE_CHIRP -->
<g id="node4" class="node">
<title>DEVICE_CHIRP</title>
<path fill="#e8e8e8" stroke="black" d="M1994.75,-195C1994.75,-195 1909.75,-195 1909.75,-195 1903.75,-195 1897.75,-189 1897.75,-183 1897.75,-183 1897.75,-171 1897.75,-171 1897.75,-165 1903.75,-159 1909.75,-159 1909.75,-159 1994.75,-159 1994.75,-159 2000.75,-159 2006.75,-165 2006.75,-171 2006.75,-171 2006.75,-183 2006.75,-183 2006.75,-189 2000.75,-195 1994.75,-195"/>
<text xml:space="preserve" text-anchor="middle" x="1952.25" y="-171.95" font-family="Times,serif" font-size="14.00">DEVICE CHIRP</text>
</g>
<!-- DEVICE_CHIRP&#45;&gt;AWAIT_HOST_K -->
<g id="edge7" class="edge">
<title>DEVICE_CHIRP&#45;&gt;AWAIT_HOST_K</title>
<path fill="none" stroke="black" d="M2007.09,-177C2017.04,-177 2027.54,-177 2037.82,-177"/>
<polygon fill="black" stroke="black" points="2037.78,-180.5 2047.78,-177 2037.78,-173.5 2037.78,-180.5"/>
</g>
<!-- DISCONNECT -->
<g id="node5" class="node">
<title>DISCONNECT</title>
<path fill="#e8e8e8" stroke="black" d="M1213.5,-434C1213.5,-434 1136,-434 1136,-434 1130,-434 1124,-428 1124,-422 1124,-422 1124,-410 1124,-410 1124,-404 1130,-398 1136,-398 1136,-398 1213.5,-398 1213.5,-398 1219.5,-398 1225.5,-404 1225.5,-410 1225.5,-410 1225.5,-422 1225.5,-422 1225.5,-428 1219.5,-434 1213.5,-434"/>
<text xml:space="preserve" text-anchor="middle" x="1174.75" y="-410.95" font-family="Times,serif" font-size="14.00">DISCONNECT</text>
</g>
<!-- INITIALIZE -->
<g id="node7" class="node">
<title>INITIALIZE</title>
<path fill="#c0e0c0" stroke="black" d="M1404.12,-461C1404.12,-461 1341.62,-461 1341.62,-461 1335.62,-461 1329.62,-455 1329.62,-449 1329.62,-449 1329.62,-437 1329.62,-437 1329.62,-431 1335.62,-425 1341.62,-425 1341.62,-425 1404.12,-425 1404.12,-425 1410.12,-425 1416.12,-431 1416.12,-437 1416.12,-437 1416.12,-449 1416.12,-449 1416.12,-455 1410.12,-461 1404.12,-461"/>
<path fill="none" stroke="black" d="M1408.12,-465C1408.12,-465 1337.62,-465 1337.62,-465 1331.62,-465 1325.62,-459 1325.62,-453 1325.62,-453 1325.62,-433 1325.62,-433 1325.62,-427 1331.62,-421 1337.62,-421 1337.62,-421 1408.12,-421 1408.12,-421 1414.12,-421 1420.12,-427 1420.12,-433 1420.12,-433 1420.12,-453 1420.12,-453 1420.12,-459 1414.12,-465 1408.12,-465"/>
<text xml:space="preserve" text-anchor="middle" x="1372.88" y="-437.95" font-family="Times,serif" font-size="14.00">INITIALIZE</text>
</g>
<!-- DISCONNECT&#45;&gt;INITIALIZE -->
<g id="edge8" class="edge">
<title>DISCONNECT&#45;&gt;INITIALIZE</title>
<path fill="none" stroke="black" d="M1225.75,-422.88C1252.68,-426.59 1286.04,-431.18 1314.08,-435.04"/>
<polygon fill="black" stroke="black" points="1313.45,-438.49 1323.84,-436.39 1314.41,-431.56 1313.45,-438.49"/>
</g>
<!-- HS_NON_RESET -->
<g id="node6" class="node">
<title>HS_NON_RESET</title>
<path fill="#e8e8e8" stroke="black" d="M1043.5,-346C1043.5,-346 956.25,-346 956.25,-346 950.25,-346 944.25,-340 944.25,-334 944.25,-334 944.25,-322 944.25,-322 944.25,-316 950.25,-310 956.25,-310 956.25,-310 1043.5,-310 1043.5,-310 1049.5,-310 1055.5,-316 1055.5,-322 1055.5,-322 1055.5,-334 1055.5,-334 1055.5,-340 1049.5,-346 1043.5,-346"/>
<text xml:space="preserve" text-anchor="middle" x="999.88" y="-322.95" font-family="Times,serif" font-size="14.00">HS NON RESET</text>
</g>
<!-- HS_NON_RESET&#45;&gt;DETECT_HS_SUSPEND -->
<g id="edge9" class="edge">
<title>HS_NON_RESET&#45;&gt;DETECT_HS_SUSPEND</title>
<path fill="none" stroke="black" d="M1036.69,-309.56C1063.12,-295.96 1099.29,-277.33 1127.84,-262.64"/>
<polygon fill="black" stroke="black" points="1129.34,-265.8 1136.63,-258.11 1126.14,-259.58 1129.34,-265.8"/>
</g>
<!-- HS_NON_RESET&#45;&gt;DISCONNECT -->
<g id="edge10" class="edge">
<title>HS_NON_RESET&#45;&gt;DISCONNECT</title>
<path fill="none" stroke="black" d="M1037.12,-346.45C1063.39,-359.82 1099.14,-378.02 1127.48,-392.45"/>
<polygon fill="black" stroke="black" points="1125.71,-395.47 1136.21,-396.89 1128.88,-389.23 1125.71,-395.47"/>
</g>
<!-- HS_NON_RESET&#45;&gt;IS_LOW_OR_FULL_SPEED -->
<g id="edge11" class="edge">
<title>HS_NON_RESET&#45;&gt;IS_LOW_OR_FULL_SPEED</title>
<path fill="none" stroke="black" d="M943.93,-323.16C901.87,-320.37 842.49,-318.41 790.75,-324 662.67,-337.85 516.98,-374.03 431.11,-397.53"/>
<polygon fill="black" stroke="black" points="430.34,-394.11 421.62,-400.14 432.19,-400.86 430.34,-394.11"/>
</g>
<!-- LS_FS_NON_RESET -->
<g id="node12" class="node">
<title>LS_FS_NON_RESET</title>
<path fill="#e8e8e8" stroke="black" d="M598.75,-288C598.75,-288 494.25,-288 494.25,-288 488.25,-288 482.25,-282 482.25,-276 482.25,-276 482.25,-264 482.25,-264 482.25,-258 488.25,-252 494.25,-252 494.25,-252 598.75,-252 598.75,-252 604.75,-252 610.75,-258 610.75,-264 610.75,-264 610.75,-276 610.75,-276 610.75,-282 604.75,-288 598.75,-288"/>
<text xml:space="preserve" text-anchor="middle" x="546.5" y="-264.95" font-family="Times,serif" font-size="14.00">LS FS NON RESET</text>
</g>
<!-- INITIALIZE&#45;&gt;LS_FS_NON_RESET -->
<g id="edge12" class="edge">
<title>INITIALIZE&#45;&gt;LS_FS_NON_RESET</title>
<path fill="none" stroke="black" d="M1325.36,-452.17C1224.03,-469.97 977.5,-501.48 790.75,-429 706.44,-396.28 620.94,-331.43 577.25,-295.48"/>
<polygon fill="black" stroke="black" points="579.67,-292.94 569.74,-289.24 575.19,-298.32 579.67,-292.94"/>
</g>
<!-- IN_HOST_J&#45;&gt;AWAIT_HOST_J -->
<g id="edge13" class="edge">
<title>IN_HOST_J&#45;&gt;AWAIT_HOST_J</title>
<path fill="none" stroke="black" d="M150.41,-482.08C135.43,-479.66 118.08,-475.82 102.31,-471.47"/>
<polygon fill="black" stroke="black" points="103.72,-468.24 93.14,-468.81 101.77,-474.96 103.72,-468.24"/>
</g>
<!-- IN_HOST_J&#45;&gt;AWAIT_HOST_K -->
<g id="edge14" class="edge">
<title>IN_HOST_J&#45;&gt;AWAIT_HOST_K</title>
<path fill="none" stroke="black" d="M223.72,-499.48C285.14,-531.98 421.8,-596 545.5,-596 545.5,-596 545.5,-596 1776.5,-596 1830.37,-596 1987.1,-487.86 2006.75,-463 2069.36,-383.78 2093.21,-262.11 2101.2,-206.53"/>
<polygon fill="black" stroke="black" points="2104.63,-207.29 2102.51,-196.91 2097.69,-206.34 2104.63,-207.29"/>
</g>
<!-- IS_HIGH_SPEED -->
<g id="node10" class="node">
<title>IS_HIGH_SPEED</title>
<path fill="#e8e8e8" stroke="black" d="M889.25,-375C889.25,-375 802.75,-375 802.75,-375 796.75,-375 790.75,-369 790.75,-363 790.75,-363 790.75,-351 790.75,-351 790.75,-345 796.75,-339 802.75,-339 802.75,-339 889.25,-339 889.25,-339 895.25,-339 901.25,-345 901.25,-351 901.25,-351 901.25,-363 901.25,-363 901.25,-369 895.25,-375 889.25,-375"/>
<text xml:space="preserve" text-anchor="middle" x="846" y="-351.95" font-family="Times,serif" font-size="14.00">IS HIGH SPEED</text>
</g>
<!-- IN_HOST_J&#45;&gt;IS_HIGH_SPEED -->
<g id="edge15" class="edge">
<title>IN_HOST_J&#45;&gt;IS_HIGH_SPEED</title>
<path fill="none" stroke="black" d="M229.15,-477.88C278.19,-473.59 365.41,-464.91 439.25,-452 560.41,-430.82 699.58,-395.88 779.42,-374.79"/>
<polygon fill="black" stroke="black" points="780.05,-378.24 788.82,-372.3 778.25,-371.48 780.05,-378.24"/>
</g>
<!-- IN_HOST_J&#45;&gt;IS_LOW_OR_FULL_SPEED -->
<g id="edge16" class="edge">
<title>IN_HOST_J&#45;&gt;IS_LOW_OR_FULL_SPEED</title>
<path fill="none" stroke="black" d="M229.05,-466.46C248.72,-459.02 273.11,-449.79 295.14,-441.46"/>
<polygon fill="black" stroke="black" points="296.2,-444.8 304.32,-437.99 293.73,-438.25 296.2,-444.8"/>
</g>
<!-- IN_HOST_K&#45;&gt;AWAIT_HOST_J -->
<g id="edge17" class="edge">
<title>IN_HOST_K&#45;&gt;AWAIT_HOST_J</title>
<path fill="none" stroke="black" d="M2222.6,-99.7C2206.47,-87.34 2183.78,-71.43 2161.75,-61 2074.48,-19.69 2049.8,0 1953.25,0 354.5,0 354.5,0 354.5,0 151.77,0 77.76,-320.27 59.57,-420.43"/>
<polygon fill="black" stroke="black" points="56.17,-419.58 57.89,-430.03 63.07,-420.79 56.17,-419.58"/>
</g>
<!-- IN_HOST_K&#45;&gt;AWAIT_HOST_K -->
<g id="edge18" class="edge">
<title>IN_HOST_K&#45;&gt;AWAIT_HOST_K</title>
<path fill="none" stroke="black" d="M2221.75,-136.36C2208.13,-143.94 2190.19,-152.41 2172.55,-159.81"/>
<polygon fill="black" stroke="black" points="2171.57,-156.43 2163.64,-163.45 2174.22,-162.91 2171.57,-156.43"/>
</g>
<!-- IN_HOST_K&#45;&gt;IS_LOW_OR_FULL_SPEED -->
<g id="edge19" class="edge">
<title>IN_HOST_K&#45;&gt;IS_LOW_OR_FULL_SPEED</title>
<path fill="none" stroke="black" d="M2204.56,-104.46C2148.66,-87.05 2044.5,-59 1953.25,-59 699.75,-59 699.75,-59 699.75,-59 517.1,-59 401.96,-304.73 367.45,-390.15"/>
<polygon fill="black" stroke="black" points="364.28,-388.66 363.85,-399.25 370.79,-391.24 364.28,-388.66"/>
</g>
<!-- IS_HIGH_SPEED&#45;&gt;HS_NON_RESET -->
<g id="edge20" class="edge">
<title>IS_HIGH_SPEED&#45;&gt;HS_NON_RESET</title>
<path fill="none" stroke="black" d="M901.4,-346.61C911.53,-344.68 922.21,-342.64 932.64,-340.65"/>
<polygon fill="black" stroke="black" points="933.18,-344.11 942.34,-338.79 931.87,-337.23 933.18,-344.11"/>
</g>
<!-- IS_LOW_OR_FULL_SPEED&#45;&gt;LS_FS_NON_RESET -->
<g id="edge21" class="edge">
<title>IS_LOW_OR_FULL_SPEED&#45;&gt;LS_FS_NON_RESET</title>
<path fill="none" stroke="black" d="M379.68,-400.73C413.26,-374.26 475.57,-325.13 513.51,-295.22"/>
<polygon fill="black" stroke="black" points="515.26,-298.3 520.95,-289.36 510.93,-292.8 515.26,-298.3"/>
</g>
<!-- LS_FS_NON_RESET&#45;&gt;DISCONNECT -->
<g id="edge22" class="edge">
<title>LS_FS_NON_RESET&#45;&gt;DISCONNECT</title>
<path fill="none" stroke="black" d="M611.15,-282.13C652.69,-292.24 706.64,-309.66 747.75,-338 772.44,-355.02 764.06,-376.32 790.75,-390 893.77,-442.82 1033.32,-435.93 1112.4,-426.04"/>
<polygon fill="black" stroke="black" points="1112.66,-429.54 1122.11,-424.77 1111.74,-422.6 1112.66,-429.54"/>
</g>
<!-- LS_FS_NON_RESET&#45;&gt;START_HS_DETECTION -->
<g id="edge23" class="edge">
<title>LS_FS_NON_RESET&#45;&gt;START_HS_DETECTION</title>
<path fill="none" stroke="black" d="M566.99,-251.67C612.09,-211.24 728.71,-118 845,-118 845,-118 845,-118 1000.88,-118 1100.6,-118 1213.54,-139.05 1288.34,-156"/>
<polygon fill="black" stroke="black" points="1287.55,-159.41 1298.08,-158.24 1289.12,-152.59 1287.55,-159.41"/>
</g>
<!-- LS_FS_NON_RESET&#45;&gt;SUSPENDED -->
<g id="edge24" class="edge">
<title>LS_FS_NON_RESET&#45;&gt;SUSPENDED</title>
<path fill="none" stroke="black" d="M589.51,-251.61C605.75,-247.24 624.61,-243.16 642.09,-240.16"/>
<polygon fill="black" stroke="black" points="642.52,-243.63 651.84,-238.59 641.41,-236.72 642.52,-243.63"/>
</g>
<!-- PREPARE_FOR_CHIRP_0 -->
<g id="node13" class="node">
<title>PREPARE_FOR_CHIRP_0</title>
<path fill="#e8e8e8" stroke="black" d="M1641.25,-195C1641.25,-195 1506.75,-195 1506.75,-195 1500.75,-195 1494.75,-189 1494.75,-183 1494.75,-183 1494.75,-171 1494.75,-171 1494.75,-165 1500.75,-159 1506.75,-159 1506.75,-159 1641.25,-159 1641.25,-159 1647.25,-159 1653.25,-165 1653.25,-171 1653.25,-171 1653.25,-183 1653.25,-183 1653.25,-189 1647.25,-195 1641.25,-195"/>
<text xml:space="preserve" text-anchor="middle" x="1574" y="-171.95" font-family="Times,serif" font-size="14.00">PREPARE FOR CHIRP 0</text>
</g>
<!-- PREPARE_FOR_CHIRP_1 -->
<g id="node14" class="node">
<title>PREPARE_FOR_CHIRP_1</title>
<path fill="#e8e8e8" stroke="black" d="M1842.75,-195C1842.75,-195 1708.25,-195 1708.25,-195 1702.25,-195 1696.25,-189 1696.25,-183 1696.25,-183 1696.25,-171 1696.25,-171 1696.25,-165 1702.25,-159 1708.25,-159 1708.25,-159 1842.75,-159 1842.75,-159 1848.75,-159 1854.75,-165 1854.75,-171 1854.75,-171 1854.75,-183 1854.75,-183 1854.75,-189 1848.75,-195 1842.75,-195"/>
<text xml:space="preserve" text-anchor="middle" x="1775.5" y="-171.95" font-family="Times,serif" font-size="14.00">PREPARE FOR CHIRP 1</text>
</g>
<!-- PREPARE_FOR_CHIRP_0&#45;&gt;PREPARE_FOR_CHIRP_1 -->
<g id="edge25" class="edge">
<title>PREPARE_FOR_CHIRP_0&#45;&gt;PREPARE_FOR_CHIRP_1</title>
<path fill="none" stroke="black" d="M1653.56,-177C1663.81,-177 1674.37,-177 1684.79,-177"/>
<polygon fill="black" stroke="black" points="1684.5,-180.5 1694.5,-177 1684.5,-173.5 1684.5,-180.5"/>
</g>
<!-- PREPARE_FOR_CHIRP_1&#45;&gt;DEVICE_CHIRP -->
<g id="edge26" class="edge">
<title>PREPARE_FOR_CHIRP_1&#45;&gt;DEVICE_CHIRP</title>
<path fill="none" stroke="black" d="M1855.18,-177C1865.41,-177 1875.79,-177 1885.77,-177"/>
<polygon fill="black" stroke="black" points="1885.74,-180.5 1895.74,-177 1885.74,-173.5 1885.74,-180.5"/>
</g>
<!-- START_HS_DETECTION&#45;&gt;PREPARE_FOR_CHIRP_0 -->
<g id="edge27" class="edge">
<title>START_HS_DETECTION&#45;&gt;PREPARE_FOR_CHIRP_0</title>
<path fill="none" stroke="black" d="M1452,-177C1462.24,-177 1472.8,-177 1483.22,-177"/>
<polygon fill="black" stroke="black" points="1482.93,-180.5 1492.93,-177 1482.93,-173.5 1482.93,-180.5"/>
</g>
<!-- SUSPENDED&#45;&gt;IS_HIGH_SPEED -->
<g id="edge28" class="edge">
<title>SUSPENDED&#45;&gt;IS_HIGH_SPEED</title>
<path fill="none" stroke="black" d="M724.13,-257.44C748.31,-277.35 787,-309.22 814.08,-331.53"/>
<polygon fill="black" stroke="black" points="811.66,-334.07 821.61,-337.73 816.11,-328.67 811.66,-334.07"/>
</g>
<!-- SUSPENDED&#45;&gt;LS_FS_NON_RESET -->
<g id="edge29" class="edge">
<title>SUSPENDED&#45;&gt;LS_FS_NON_RESET</title>
<path fill="none" stroke="black" d="M657.54,-257.45C646.56,-260.39 634.39,-263.21 622.27,-265.65"/>
<polygon fill="black" stroke="black" points="621.83,-262.17 612.67,-267.49 623.15,-269.04 621.83,-262.17"/>
</g>
<!-- SUSPENDED&#45;&gt;START_HS_DETECTION -->
<g id="edge30" class="edge">
<title>SUSPENDED&#45;&gt;START_HS_DETECTION</title>
<path fill="none" stroke="black" d="M748.07,-234.71C858.26,-224.52 1137.54,-198.68 1282.1,-185.31"/>
<polygon fill="black" stroke="black" points="1282.4,-188.79 1292.03,-184.39 1281.75,-181.82 1282.4,-188.79"/>
</g>
</g>
</svg>
