<?xml version="1.0" encoding="UTF-8" standalone="no"?>
<!DOCTYPE svg PUBLIC "-//W3C//DTD SVG 1.1//EN"
 "http://www.w3.org/Graphics/SVG/1.1/DTD/svg11.dtd">
<!-- Generated by graphviz version 15.1.0 (0)
 -->
<!-- Title: reset_sequencer Pages: 1 -->
<svg width="2608pt" height="185pt"
 viewBox="0.00 0.00 2608.00 185.00" xmlns="http://www.w3.org/2000/svg" xmlns:xlink="http://www.w3.org/1999/xlink">
<g id="graph0" class="graph" transform="scale(1 1) rotate(0) translate(4 180.75)">
<title>reset_sequencer</title>
<polygon fill="white" stroke="none" points="-4,4 -4,-180.75 2603.5,-180.75 2603.5,4 -4,4"/>
<text xml:space="preserve" text-anchor="middle" x="1299.75" y="-161.35" font-family="Helvetica,sans-Serif" font-size="12.00">State Machine: USBResetSequencer</text>
<!-- INITIALIZE -->
<g id="node1" class="node">
<title>INITIALIZE</title>
<path fill="#c0e0c0" stroke="black" d="M78.5,-40C78.5,-40 16,-40 16,-40 10,-40 4,-34 4,-28 4,-28 4,-16 4,-16 4,-10 10,-4 16,-4 16,-4 78.5,-4 78.5,-4 84.5,-4 90.5,-10 90.5,-16 90.5,-16 90.5,-28 90.5,-28 90.5,-34 84.5,-40 78.5,-40"/>
<path fill="none" stroke="black" d="M82.5,-44C82.5,-44 12,-44 12,-44 6,-44 0,-38 0,-32 0,-32 0,-12 0,-12 0,-6 6,0 12,0 12,0 82.5,0 82.5,0 88.5,0 94.5,-6 94.5,-12 94.5,-12 94.5,-32 94.5,-32 94.5,-38 88.5,-44 82.5,-44"/>
<text xml:space="preserve" text-anchor="middle" x="47.25" y="-16.95" font-family="Times,serif" font-size="14.00">INITIALIZE</text>
</g>
<!-- LS_FS_NON_RESET -->
<g id="node2" class="node">
<title>LS_FS_NON_RESET</title>
<path fill="#e8e8e8" stroke="black" d="M256,-40C256,-40 151.5,-40 151.5,-40 145.5,-40 139.5,-34 139.5,-28 139.5,-28 139.5,-16 139.5,-16 139.5,-10 145.5,-4 151.5,-4 151.5,-4 256,-4 256,-4 262,-4 268,-10 268,-16 268,-16 268,-28 268,-28 268,-34 262,-40 256,-40"/>
<text xml:space="preserve" text-anchor="middle" x="203.75" y="-16.95" font-family="Times,serif" font-size="14.00">LS FS NON RESET</text>
</g>
<!-- INITIALIZE&#45;&gt;LS_FS_NON_RESET -->
<g id="edge1" class="edge">
<title>INITIALIZE&#45;&gt;LS_FS_NON_RESET</title>
<path fill="none" stroke="black" d="M94.61,-22C105.07,-22 116.44,-22 127.75,-22"/>
<polygon fill="black" stroke="black" points="127.49,-25.5 137.49,-22 127.49,-18.5 127.49,-25.5"/>
</g>
<!-- START_HS_DETECTION -->
<g id="node3" class="node">
<title>START_HS_DETECTION</title>
<path fill="#e8e8e8" stroke="black" d="M458.75,-40C458.75,-40 325,-40 325,-40 319,-40 313,-34 313,-28 313,-28 313,-16 313,-16 313,-10 319,-4 325,-4 325,-4 458.75,-4 458.75,-4 464.75,-4 470.75,-10 470.75,-16 470.75,-16 470.75,-28 470.75,-28 470.75,-34 464.75,-40 458.75,-40"/>
<text xml:space="preserve" text-anchor="middle" x="391.88" y="-16.95" font-family="Times,serif" font-size="14.00">START HS DETECTION</text>
</g>
<!-- LS_FS_NON_RESET&#45;&gt;START_HS_DETECTION -->
<g id="edge2" class="edge">
<title>LS_FS_NON_RESET&#45;&gt;START_HS_DETECTION</title>
<path fill="none" stroke="black" d="M268.28,-22C279.02,-22 290.35,-22 301.61,-22"/>
<polygon fill="black" stroke="black" points="301.3,-25.5 311.3,-22 301.3,-18.5 301.3,-25.5"/>
</g>
<!-- PREPARE_FOR_CHIRP_0 -->
<g id="node4" class="node">
<title>PREPARE_FOR_CHIRP_0</title>
<path fill="#e8e8e8" stroke="black" d="M662.25,-40C662.25,-40 527.75,-40 527.75,-40 521.75,-40 515.75,-34 515.75,-28 515.75,-28 515.75,-16 515.75,-16 515.75,-10 521.75,-4 527.75,-4 527.75,-4 662.25,-4 662.25,-4 668.25,-4 674.25,-10 674.25,-16 674.25,-16 674.25,-28 674.25,-28 674.25,-34 668.25,-40 662.25,-40"/>
<text xml:space="preserve" text-anchor="middle" x="595" y="-16.95" font-family="Times,serif" font-size="14.00">PREPARE FOR CHIRP 0</text>
</g>
<!-- START_HS_DETECTION&#45;&gt;PREPARE_FOR_CHIRP_0 -->
<g id="edge3" class="edge">
<title>START_HS_DETECTION&#45;&gt;PREPARE_FOR_CHIRP_0</title>
<path fill="none" stroke="black" d="M471.21,-22C482.02,-22 493.18,-22 504.18,-22"/>
<polygon fill="black" stroke="black" points="504.03,-25.5 514.03,-22 504.03,-18.5 504.03,-25.5"/>
</g>
<!-- PREPARE_FOR_CHIRP_1 -->
<g id="node5" class="node">
<title>PREPARE_FOR_CHIRP_1</title>
<path fill="#e8e8e8" stroke="black" d="M865.75,-40C865.75,-40 731.25,-40 731.25,-40 725.25,-40 719.25,-34 719.25,-28 719.25,-28 719.25,-16 719.25,-16 719.25,-10 725.25,-4 731.25,-4 731.25,-4 865.75,-4 865.75,-4 871.75,-4 877.75,-10 877.75,-16 877.75,-16 877.75,-28 877.75,-28 877.75,-34 871.75,-40 865.75,-40"/>
<text xml:space="preserve" text-anchor="middle" x="798.5" y="-16.95" font-family="Times,serif" font-size="14.00">PREPARE FOR CHIRP 1</text>
</g>
<!-- PREPARE_FOR_CHIRP_0&#45;&gt;PREPARE_FOR_CHIRP_1 -->
<g id="edge4" class="edge">
<title>PREPARE_FOR_CHIRP_0&#45;&gt;PREPARE_FOR_CHIRP_1</title>
<path fill="none" stroke="black" d="M674.48,-22C685.31,-22 696.5,-22 707.51,-22"/>
<polygon fill="black" stroke="black" points="707.39,-25.5 717.39,-22 707.39,-18.5 707.39,-25.5"/>
</g>
<!-- DEVICE_CHIRP -->
<g id="node6" class="node">
<title>DEVICE_CHIRP</title>
<path fill="#e8e8e8" stroke="black" d="M1019.75,-40C1019.75,-40 934.75,-40 934.75,-40 928.75,-40 922.75,-34 922.75,-28 922.75,-28 922.75,-16 922.75,-16 922.75,-10 928.75,-4 934.75,-4 934.75,-4 1019.75,-4 1019.75,-4 1025.75,-4 1031.75,-10 1031.75,-16 1031.75,-16 1031.75,-28 1031.75,-28 1031.75,-34 1025.75,-40 1019.75,-40"/>
<text xml:space="preserve" text-anchor="middle" x="977.25" y="-16.95" font-family="Times,serif" font-size="14.00">DEVICE CHIRP</text>
</g>
<!-- PREPARE_FOR_CHIRP_1&#45;&gt;DEVICE_CHIRP -->
<g id="edge5" class="edge">
<title>PREPARE_FOR_CHIRP_1&#45;&gt;DEVICE_CHIRP</title>
<path fill="none" stroke="black" d="M878.05,-22C889.02,-22 900.2,-22 910.89,-22"/>
<polygon fill="black" stroke="black" points="910.75,-25.5 920.75,-22 910.75,-18.5 910.75,-25.5"/>
</g>
<!-- AWAIT_HOST_K -->
<g id="node7" class="node">
<title>AWAIT_HOST_K</title>
<path fill="#e8e8e8" stroke="black" d="M1176.75,-40C1176.75,-40 1088.75,-40 1088.75,-40 1082.75,-40 1076.75,-34 1076.75,-28 1076.75,-28 1076.75,-16 1076.75,-16 1076.75,-10 1082.75,-4 1088.75,-4 1088.75,-4 1176.75,-4 1176.75,-4 1182.75,-4 1188.75,-10 1188.75,-16 1188.75,-16 1188.75,-28 1188.75,-28 1188.75,-34 1182.75,-40 1176.75,-40"/>
<text xml:space="preserve" text-anchor="middle" x="1132.75" y="-16.95" font-family="Times,serif" font-size="14.00">AWAIT HOST K</text>
</g>
<!-- DEVICE_CHIRP&#45;&gt;AWAIT_HOST_K -->
<g id="edge6" class="edge">
<title>DEVICE_CHIRP&#45;&gt;AWAIT_HOST_K</title>
<path fill="none" stroke="black" d="M1031.94,-22C1042.59,-22 1053.89,-22 1064.92,-22"/>
<polygon fill="black" stroke="black" points="1064.76,-25.5 1074.76,-22 1064.76,-18.5 1064.76,-25.5"/>
</g>
<!-- IN_HOST_K -->
<g id="node8" class="node">
<title>IN_HOST_K</title>
<path fill="#e8e8e8" stroke="black" d="M1304.5,-40C1304.5,-40 1245.75,-40 1245.75,-40 1239.75,-40 1233.75,-34 1233.75,-28 1233.75,-28 1233.75,-16 1233.75,-16 1233.75,-10 1239.75,-4 1245.75,-4 1245.75,-4 1304.5,-4 1304.5,-4 1310.5,-4 1316.5,-10 1316.5,-16 1316.5,-16 1316.5,-28 1316.5,-28 1316.5,-34 1310.5,-40 1304.5,-40"/>
<text xml:space="preserve" text-anchor="middle" x="1275.12" y="-16.95" font-family="Times,serif" font-size="14.00">IN HOST K</text>
</g>
<!-- AWAIT_HOST_K&#45;&gt;IN_HOST_K -->
<g id="edge7" class="edge">
<title>AWAIT_HOST_K&#45;&gt;IN_HOST_K</title>
<path fill="none" stroke="black" d="M1189.23,-22C1200.04,-22 1211.33,-22 1222.02,-22"/>
<polygon fill="black" stroke="black" points="1221.82,-25.5 1231.82,-22 1221.82,-18.5 1221.82,-25.5"/>
</g>
<!-- AWAIT_HOST_J -->
<g id="node9" class="node">
<title>AWAIT_HOST_J</title>
<path fill="#e8e8e8" stroke="black" d="M1457,-40C1457,-40 1373.5,-40 1373.5,-40 1367.5,-40 1361.5,-34 1361.5,-28 1361.5,-28 1361.5,-16 1361.5,-16 1361.5,-10 1367.5,-4 1373.5,-4 1373.5,-4 1457,-4 1457,-4 1463,-4 1469,-10 1469,-16 1469,-16 1469,-28 1469,-28 1469,-34 1463,-40 1457,-40"/>
<text xml:space="preserve" text-anchor="middle" x="1415.25" y="-16.95" font-family="Times,serif" font-size="14.00">AWAIT HOST J</text>
</g>
<!-- IN_HOST_K&#45;&gt;AWAIT_HOST_J -->
<g id="edge8" class="edge">
<title>IN_HOST_K&#45;&gt;AWAIT_HOST_J</title>
<path fill="none" stroke="black" d="M1316.82,-22C1327.1,-22 1338.39,-22 1349.53,-22"/>
<polygon fill="black" stroke="black" points="1349.52,-25.5 1359.52,-22 1349.52,-18.5 1349.52,-25.5"/>
</g>
<!-- IN_HOST_J -->
<g id="node10" class="node">
<title>IN_HOST_J</title>
<path fill="#e8e8e8" stroke="black" d="M1580.25,-40C1580.25,-40 1526,-40 1526,-40 1520,-40 1514,-34 1514,-28 1514,-28 1514,-16 1514,-16 1514,-10 1520,-4 1526,-4 1526,-4 1580.25,-4 1580.25,-4 1586.25,-4 1592.25,-10 1592.25,-16 1592.25,-16 1592.25,-28 1592.25,-28 1592.25,-34 1586.25,-40 1580.25,-40"/>
<text xml:space="preserve" text-anchor="middle" x="1553.12" y="-16.95" font-family="Times,serif" font-size="14.00">IN HOST J</text>
</g>
<!-- AWAIT_HOST_J&#45;&gt;IN_HOST_J -->
<g id="edge9" class="edge">
<title>AWAIT_HOST_J&#45;&gt;IN_HOST_J</title>
<path fill="none" stroke="black" d="M1469.17,-22C1480.12,-22 1491.61,-22 1502.43,-22"/>
<polygon fill="black" stroke="black" points="1502.34,-25.5 1512.34,-22 1502.34,-18.5 1502.34,-25.5"/>
</g>
<!-- IS_HIGH_SPEED -->
<g id="node11" class="node">
<title>IS_HIGH_SPEED</title>
<path fill="#e8e8e8" stroke="black" d="M1735.75,-40C1735.75,-40 1649.25,-40 1649.25,-40 1643.25,-40 1637.25,-34 1637.25,-28 1637.25,-28 1637.25,-16 1637.25,-16 1637.25,-10 1643.25,-4 1649.25,-4 1649.25,-4 1735.75,-4 1735.75,-4 1741.75,-4 1747.75,-10 1747.75,-16 1747.75,-16 1747.75,-28 1747.75,-28 1747.75,-34 1741.75,-40 1735.75,-40"/>
<text xml:space="preserve" text-anchor="middle" x="1692.5" y="-16.95" font-family="Times,serif" font-size="14.00">IS HIGH SPEED</text>
</g>
<!-- IN_HOST_J&#45;&gt;IS_HIGH_SPEED -->
<g id="edge10" class="edge">
<title>IN_HOST_J&#45;&gt;IS_HIGH_SPEED</title>
<path fill="none" stroke="black" d="M1592.39,-22C1602.69,-22 1614.14,-22 1625.48,-22"/>
<polygon fill="black" stroke="black" points="1625.24,-25.5 1635.24,-22 1625.24,-18.5 1625.24,-25.5"/>
</g>
<!-- HS_NON_RESET -->
<g id="node12" class="node">
<title>HS_NON_RESET</title>
<path fill="#e8e8e8" stroke="black" d="M1892,-40C1892,-40 1804.75,-40 1804.75,-40 1798.75,-40 1792.75,-34 1792.75,-28 1792.75,-28 1792.75,-16 1792.75,-16 1792.75,-10 1798.75,-4 1804.75,-4 1804.75,-4 1892,-4 1892,-4 1898,-4 1904,-10 1904,-16 1904,-16 1904,-28 1904,-28 1904,-34 1898,-40 1892,-40"/>
<text xml:space="preserve" text-anchor="middle" x="1848.38" y="-16.95" font-family="Times,serif" font-size="14.00">HS NON RESET</text>
</g>
<!-- IS_HIGH_SPEED&#45;&gt;HS_NON_RESET -->
<g id="edge11" class="edge">
<title>IS_HIGH_SPEED&#45;&gt;HS_NON_RESET</title>
<path fill="none" stroke="black" d="M1748.18,-22C1758.83,-22 1770.09,-22 1781.06,-22"/>
<polygon fill="black" stroke="black" points="1780.84,-25.5 1790.84,-22 1780.84,-18.5 1780.84,-25.5"/>
</g>
<!-- IS_LOW_OR_FULL_SPEED -->
<g id="node13" class="node">
<title>IS_LOW_OR_FULL_SPEED</title>
<path fill="#e8e8e8" stroke="black" d="M2104.5,-40C2104.5,-40 1961,-40 1961,-40 1955,-40 1949,-34 1949,-28 1949,-28 1949,-16 1949,-16 1949,-10 1955,-4 1961,-4 1961,-4 2104.5,-4 2104.5,-4 2110.5,-4 2116.5,-10 2116.5,-16 2116.5,-16 2116.5,-28 2116.5,-28 2116.5,-34 2110.5,-40 2104.5,-40"/>
<text xml:space="preserve" text-anchor="middle" x="2032.75" y="-16.95" font-family="Times,serif" font-size="14.00">IS LOW OR FULL SPEED</text>
</g>
<!-- HS_NON_RESET&#45;&gt;IS_LOW_OR_FULL_SPEED -->
<g id="edge12" class="edge">
<title>HS_NON_RESET&#45;&gt;IS_LOW_OR_FULL_SPEED</title>
<path fill="none" stroke="black" d="M1904.09,-22C1914.64,-22 1925.96,-22 1937.35,-22"/>
<polygon fill="black" stroke="black" points="1937.22,-25.5 1947.22,-22 1937.22,-18.5 1937.22,-25.5"/>
</g>
<!-- DETECT_HS_SUSPEND -->
<g id="node14" class="node">
<title>DETECT_HS_SUSPEND</title>
<path fill="#e8e8e8" stroke="black" d="M2302,-40C2302,-40 2173.5,-40 2173.5,-40 2167.5,-40 2161.5,-34 2161.5,-28 2161.5,-28 2161.5,-16 2161.5,-16 2161.5,-10 2167.5,-4 2173.5,-4 2173.5,-4 2302,-4 2302,-4 2308,-4 2314,-10 2314,-16 2314,-16 2314,-28 2314,-28 2314,-34 2308,-40 2302,-40"/>
<text xml:space="preserve" text-anchor="middle" x="2237.75" y="-16.95" font-family="Times,serif" font-size="14.00">DETECT HS SUSPEND</text>
</g>
<!-- IS_LOW_OR_FULL_SPEED&#45;&gt;DETECT_HS_SUSPEND -->
<g id="edge13" class="edge">
<title>IS_LOW_OR_FULL_SPEED&#45;&gt;DETECT_HS_SUSPEND</title>
<path fill="none" stroke="black" d="M2116.9,-22C2127.79,-22 2138.97,-22 2149.92,-22"/>
<polygon fill="black" stroke="black" points="2149.71,-25.5 2159.71,-22 2149.71,-18.5 2149.71,-25.5"/>
</g>
<!-- SUSPENDED -->
<g id="node15" class="node">
<title>SUSPENDED</title>
<path fill="#e8e8e8" stroke="black" d="M2441,-40C2441,-40 2371,-40 2371,-40 2365,-40 2359,-34 2359,-28 2359,-28 2359,-16 2359,-16 2359,-10 2365,-4 2371,-4 2371,-4 2441,-4 2441,-4 2447,-4 2453,-10 2453,-16 2453,-16 2453,-28 2453,-28 2453,-34 2447,-40 2441,-40"/>
<text xml:space="preserve" text-anchor="middle" x="2406" y="-16.95" font-family="Times,serif" font-size="14.00">SUSPENDED</text>
</g>
<!-- DETECT_HS_SUSPEND&#45;&gt;SUSPENDED -->
<g id="edge14" class="edge">
<title>DETECT_HS_SUSPEND&#45;&gt;SUSPENDED</title>
<path fill="none" stroke="black" d="M2314.09,-22C2325.32,-22 2336.74,-22 2347.53,-22"/>
<polygon fill="black" stroke="black" points="2347.42,-25.5 2357.42,-22 2347.42,-18.5 2347.42,-25.5"/>
</g>
<!-- DISCONNECT -->
<g id="node16" class="node">
<title>DISCONNECT</title>
<path fill="#e8e8e8" stroke="black" d="M2587.5,-40C2587.5,-40 2510,-40 2510,-40 2504,-40 2498,-34 2498,-28 2498,-28 2498,-16 2498,-16 2498,-10 2504,-4 2510,-4 2510,-4 2587.5,-4 2587.5,-4 2593.5,-4 2599.5,-10 2599.5,-16 2599.5,-16 2599.5,-28 2599.5,-28 2599.5,-34 2593.5,-40 2587.5,-40"/>
<text xml:space="preserve" text-anchor="middle" x="2548.75" y="-16.95" font-family="Times,serif" font-size="14.00">DISCONNECT</text>
</g>
<!-- SUSPENDED&#45;&gt;DISCONNECT -->
<g id="edge15" class="edge">
<title>SUSPENDED&#45;&gt;DISCONNECT</title>
<path fill="none" stroke="black" d="M2453.48,-22C2464.06,-22 2475.45,-22 2486.54,-22"/>
<polygon fill="black" stroke="black" points="2486.42,-25.5 2496.42,-22 2486.42,-18.5 2486.42,-25.5"/>
</g>
<!-- IDLE -->
<g id="node17" class="node">
<title>IDLE</title>
<ellipse fill="none" stroke="black" cx="47.25" cy="-91" rx="31.9" ry="18"/>
<text xml:space="preserve" text-anchor="middle" x="47.25" y="-85.95" font-family="Times,serif" font-size="14.00">IDLE</text>
</g>
<!-- IDLE&#45;&gt;IDLE -->
<g id="edge16" class="edge">
<title>IDLE&#45;&gt;IDLE</title>
<path fill="none" stroke="#888888" stroke-dasharray="5,2" d="M36.17,-108.35C31.43,-122.85 35.13,-138 47.25,-138 56.25,-138 60.6,-129.66 60.31,-119.43"/>
<polygon fill="#888888" stroke="#888888" points="63.81,-119.07 58.6,-109.84 56.92,-120.3 63.81,-119.07"/>
<text xml:space="preserve" text-anchor="middle" x="47.25" y="-141.2" font-family="Times,serif" font-size="14.00">rx_active=0</text>
</g>
</g>
</svg>
