<?xml version="1.0" encoding="UTF-8" standalone="no"?>
<!DOCTYPE svg PUBLIC "-//W3C//DTD SVG 1.1//EN"
 "http://www.w3.org/Graphics/SVG/1.1/DTD/svg11.dtd">
<!-- Generated by graphviz version 15.1.0 (0)
 -->
<!-- Title: stream_boundary Pages: 1 -->
<svg width="504pt" height="185pt"
 viewBox="0.00 0.00 504.00 185.00" xmlns="http://www.w3.org/2000/svg" xmlns:xlink="http://www.w3.org/1999/xlink">
<g id="graph0" class="graph" transform="scale(1 1) rotate(0) translate(4 180.75)">
<title>stream_boundary</title>
<polygon fill="white" stroke="none" points="-4,4 -4,-180.75 499.5,-180.75 499.5,4 -4,4"/>
<text xml:space="preserve" text-anchor="middle" x="247.75" y="-161.35" font-family="Helvetica,sans-Serif" font-size="12.00">State Machine: USBOutStreamBoundaryDetector</text>
<!-- WAIT_FOR_FIRST -->
<g id="node1" class="node">
<title>WAIT_FOR_FIRST</title>
<path fill="#c0e0c0" stroke="black" d="M113,-40C113,-40 16,-40 16,-40 10,-40 4,-34 4,-28 4,-28 4,-16 4,-16 4,-10 10,-4 16,-4 16,-4 113,-4 113,-4 119,-4 125,-10 125,-16 125,-16 125,-28 125,-28 125,-34 119,-40 113,-40"/>
<path fill="none" stroke="black" d="M117,-44C117,-44 12,-44 12,-44 6,-44 0,-38 0,-32 0,-32 0,-12 0,-12 0,-6 6,0 12,0 12,0 117,0 117,0 123,0 129,-6 129,-12 129,-12 129,-32 129,-32 129,-38 123,-44 117,-44"/>
<text xml:space="preserve" text-anchor="middle" x="64.5" y="-16.95" font-family="Times,serif" font-size="14.00">WAIT FOR FIRST</text>
</g>
<!-- RECEIVE_AND_SEND -->
<g id="node2" class="node">
<title>RECEIVE_AND_SEND</title>
<path fill="#e8e8e8" stroke="black" d="M306.25,-85C306.25,-85 186,-85 186,-85 180,-85 174,-79 174,-73 174,-73 174,-61 174,-61 174,-55 180,-49 186,-49 186,-49 306.25,-49 306.25,-49 312.25,-49 318.25,-55 318.25,-61 318.25,-61 318.25,-73 318.25,-73 318.25,-79 312.25,-85 306.25,-85"/>
<text xml:space="preserve" text-anchor="middle" x="246.12" y="-61.95" font-family="Times,serif" font-size="14.00">RECEIVE AND SEND</text>
</g>
<!-- WAIT_FOR_FIRST&#45;&gt;RECEIVE_AND_SEND -->
<g id="edge1" class="edge">
<title>WAIT_FOR_FIRST&#45;&gt;RECEIVE_AND_SEND</title>
<path fill="none" stroke="black" d="M129.33,-37.99C140.07,-40.68 151.36,-43.51 162.49,-46.3"/>
<polygon fill="black" stroke="black" points="161.53,-49.67 172.08,-48.7 163.23,-42.88 161.53,-49.67"/>
</g>
<!-- OUTPUT_STROBES -->
<g id="node3" class="node">
<title>OUTPUT_STROBES</title>
<path fill="#e8e8e8" stroke="black" d="M483.5,-40C483.5,-40 375.25,-40 375.25,-40 369.25,-40 363.25,-34 363.25,-28 363.25,-28 363.25,-16 363.25,-16 363.25,-10 369.25,-4 375.25,-4 375.25,-4 483.5,-4 483.5,-4 489.5,-4 495.5,-10 495.5,-16 495.5,-16 495.5,-28 495.5,-28 495.5,-34 489.5,-40 483.5,-40"/>
<text xml:space="preserve" text-anchor="middle" x="429.38" y="-16.95" font-family="Times,serif" font-size="14.00">OUTPUT STROBES</text>
</g>
<!-- RECEIVE_AND_SEND&#45;&gt;OUTPUT_STROBES -->
<g id="edge2" class="edge">
<title>RECEIVE_AND_SEND&#45;&gt;OUTPUT_STROBES</title>
<path fill="none" stroke="black" d="M318.5,-49.28C329.5,-46.55 340.89,-43.72 351.99,-40.96"/>
<polygon fill="black" stroke="black" points="352.63,-44.41 361.5,-38.6 350.95,-37.62 352.63,-44.41"/>
</g>
<!-- OUTPUT_STROBES&#45;&gt;WAIT_FOR_FIRST -->
<g id="edge3" class="edge">
<title>OUTPUT_STROBES&#45;&gt;WAIT_FOR_FIRST</title>
<path fill="none" stroke="#888888" stroke-dasharray="5,2" d="M362.99,-22C300.45,-22 206.21,-22 140.62,-22"/>
<polygon fill="#888888" stroke="#888888" points="140.64,-18.5 130.64,-22 140.64,-25.5 140.64,-18.5"/>
</g>
<!-- IDLE -->
<g id="node4" class="node">
<title>IDLE</title>
<ellipse fill="none" stroke="black" cx="64.5" cy="-91" rx="31.9" ry="18"/>
<text xml:space="preserve" text-anchor="middle" x="64.5" y="-85.95" font-family="Times,serif" font-size="14.00">IDLE</text>
</g>
<!-- IDLE&#45;&gt;IDLE -->
<g id="edge4" class="edge">
<title>IDLE&#45;&gt;IDLE</title>
<path fill="none" stroke="#888888" stroke-dasharray="5,2" d="M51.09,-107.38C44.57,-122.16 49.04,-138 64.5,-138 76.1,-138 81.51,-129.09 80.74,-118.4"/>
<polygon fill="#888888" stroke="#888888" points="84.16,-117.66 78.29,-108.84 77.38,-119.4 84.16,-117.66"/>
<text xml:space="preserve" text-anchor="middle" x="64.5" y="-141.2" font-family="Times,serif" font-size="14.00">rx_active=0</text>
</g>
</g>
</svg>
