<?xml version="1.0" encoding="UTF-8" standalone="no"?>
<!DOCTYPE svg PUBLIC "-//W3C//DTD SVG 1.1//EN"
 "http://www.w3.org/Graphics/SVG/1.1/DTD/svg11.dtd">
<!-- Generated by graphviz version 15.1.0 (0)
 -->
<!-- Title: stream_boundary Pages: 1 -->
<svg width="572pt" height="103pt"
 viewBox="0.00 0.00 572.00 103.00" xmlns="http://www.w3.org/2000/svg" xmlns:xlink="http://www.w3.org/1999/xlink">
<g id="graph0" class="graph" transform="scale(1 1) rotate(0) translate(4 99.25)">
<title>stream_boundary</title>
<polygon fill="white" stroke="none" points="-4,4 -4,-99.25 568.25,-99.25 568.25,4 -4,4"/>
<text xml:space="preserve" text-anchor="middle" x="282.12" y="-79.85" font-family="Helvetica,sans-Serif" font-size="12.00">State Machine: USBOutStreamBoundaryDetector</text>
<!-- OUTPUT_STROBES -->
<g id="node1" class="node">
<title>OUTPUT_STROBES</title>
<path fill="#e8e8e8" stroke="black" d="M120.25,-36C120.25,-36 12,-36 12,-36 6,-36 0,-30 0,-24 0,-24 0,-12 0,-12 0,-6 6,0 12,0 12,0 120.25,0 120.25,0 126.25,0 132.25,-6 132.25,-12 132.25,-12 132.25,-24 132.25,-24 132.25,-30 126.25,-36 120.25,-36"/>
<text xml:space="preserve" text-anchor="middle" x="66.12" y="-12.95" font-family="Times,serif" font-size="14.00">OUTPUT STROBES</text>
</g>
<!-- WAIT_FOR_FIRST_BYTE -->
<g id="node3" class="node">
<title>WAIT_FOR_FIRST_BYTE</title>
<path fill="#c0e0c0" stroke="black" d="M327.25,-69C327.25,-69 191.25,-69 191.25,-69 185.25,-69 179.25,-63 179.25,-57 179.25,-57 179.25,-45 179.25,-45 179.25,-39 185.25,-33 191.25,-33 191.25,-33 327.25,-33 327.25,-33 333.25,-33 339.25,-39 339.25,-45 339.25,-45 339.25,-57 339.25,-57 339.25,-63 333.25,-69 327.25,-69"/>
<path fill="none" stroke="black" d="M331.25,-73C331.25,-73 187.25,-73 187.25,-73 181.25,-73 175.25,-67 175.25,-61 175.25,-61 175.25,-41 175.25,-41 175.25,-35 181.25,-29 187.25,-29 187.25,-29 331.25,-29 331.25,-29 337.25,-29 343.25,-35 343.25,-41 343.25,-41 343.25,-61 343.25,-61 343.25,-67 337.25,-73 331.25,-73"/>
<text xml:space="preserve" text-anchor="middle" x="259.25" y="-45.95" font-family="Times,serif" font-size="14.00">WAIT FOR FIRST BYTE</text>
</g>
<!-- OUTPUT_STROBES&#45;&gt;WAIT_FOR_FIRST_BYTE -->
<g id="edge1" class="edge">
<title>OUTPUT_STROBES&#45;&gt;WAIT_FOR_FIRST_BYTE</title>
<path fill="none" stroke="black" d="M132.63,-29.31C142.63,-31.04 153.12,-32.85 163.59,-34.66"/>
<polygon fill="black" stroke="black" points="162.99,-38.1 173.44,-36.36 164.18,-31.21 162.99,-38.1"/>
</g>
<!-- RECEIVE_AND_TRANSMIT -->
<g id="node2" class="node">
<title>RECEIVE_AND_TRANSMIT</title>
<path fill="#e8e8e8" stroke="black" d="M552.25,-36C552.25,-36 398.25,-36 398.25,-36 392.25,-36 386.25,-30 386.25,-24 386.25,-24 386.25,-12 386.25,-12 386.25,-6 392.25,0 398.25,0 398.25,0 552.25,0 552.25,0 558.25,0 564.25,-6 564.25,-12 564.25,-12 564.25,-24 564.25,-24 564.25,-30 558.25,-36 552.25,-36"/>
<text xml:space="preserve" text-anchor="middle" x="475.25" y="-12.95" font-family="Times,serif" font-size="14.00">RECEIVE AND TRANSMIT</text>
</g>
<!-- RECEIVE_AND_TRANSMIT&#45;&gt;OUTPUT_STROBES -->
<g id="edge2" class="edge">
<title>RECEIVE_AND_TRANSMIT&#45;&gt;OUTPUT_STROBES</title>
<path fill="none" stroke="black" d="M385.82,-15.7C371.59,-15.41 357.01,-15.16 343.25,-15 268.59,-14.15 249.91,-13.96 175.25,-15 165.11,-15.14 154.45,-15.36 143.92,-15.61"/>
<polygon fill="black" stroke="black" points="144.01,-12.1 134.1,-15.85 144.19,-19.1 144.01,-12.1"/>
</g>
<!-- WAIT_FOR_FIRST_BYTE&#45;&gt;RECEIVE_AND_TRANSMIT -->
<g id="edge3" class="edge">
<title>WAIT_FOR_FIRST_BYTE&#45;&gt;RECEIVE_AND_TRANSMIT</title>
<path fill="none" stroke="black" d="M343.6,-38.15C353.77,-36.58 364.24,-34.96 374.62,-33.36"/>
<polygon fill="black" stroke="black" points="374.98,-36.85 384.33,-31.87 373.91,-29.93 374.98,-36.85"/>
</g>
</g>
</svg>
