<?xml version="1.0" encoding="UTF-8" standalone="no"?>
<!DOCTYPE svg PUBLIC "-//W3C//DTD SVG 1.1//EN"
 "http://www.w3.org/Graphics/SVG/1.1/DTD/svg11.dtd">
<!-- Generated by graphviz version 15.1.0 (0)
 -->
<!-- Title: token_detector Pages: 1 -->
<svg width="836pt" height="277pt"
 viewBox="0.00 0.00 836.00 277.00" xmlns="http://www.w3.org/2000/svg" xmlns:xlink="http://www.w3.org/1999/xlink">
<g id="graph0" class="graph" transform="scale(1 1) rotate(0) translate(4 273.25)">
<title>token_detector</title>
<polygon fill="white" stroke="none" points="-4,4 -4,-273.25 831.62,-273.25 831.62,4 -4,4"/>
<text xml:space="preserve" text-anchor="middle" x="413.81" y="-253.85" font-family="Helvetica,sans-Serif" font-size="12.00">State Machine: USBTokenDetector</text>
<!-- IDLE -->
<g id="node1" class="node">
<title>IDLE</title>
<path fill="#c0e0c0" stroke="black" d="M47.62,-167C47.62,-167 17.62,-167 17.62,-167 11.62,-167 5.62,-161 5.62,-155 5.62,-155 5.62,-143 5.62,-143 5.62,-137 11.62,-131 17.62,-131 17.62,-131 47.62,-131 47.62,-131 53.62,-131 59.62,-137 59.62,-143 59.62,-143 59.62,-155 59.62,-155 59.62,-161 53.62,-167 47.62,-167"/>
<path fill="none" stroke="black" d="M51.62,-171C51.62,-171 13.62,-171 13.62,-171 7.62,-171 1.62,-165 1.62,-159 1.62,-159 1.62,-139 1.62,-139 1.62,-133 7.62,-127 13.62,-127 13.62,-127 51.62,-127 51.62,-127 57.62,-127 63.62,-133 63.62,-139 63.62,-139 63.62,-159 63.62,-159 63.62,-165 57.62,-171 51.62,-171"/>
<text xml:space="preserve" text-anchor="middle" x="32.62" y="-143.95" font-family="Times,serif" font-size="14.00">IDLE</text>
</g>
<!-- IDLE&#45;&gt;IDLE -->
<g id="edge13" class="edge">
<title>IDLE&#45;&gt;IDLE</title>
<path fill="none" stroke="#888888" stroke-dasharray="5,2" d="M23.43,-171.28C20.94,-185.88 24,-200 32.62,-200 38.96,-200 42.29,-192.38 42.63,-182.56"/>
<polygon fill="#888888" stroke="#888888" points="46.13,-182.52 41.93,-172.79 39.15,-183.02 46.13,-182.52"/>
<text xml:space="preserve" text-anchor="middle" x="32.62" y="-203.2" font-family="Times,serif" font-size="14.00">rx_active=0</text>
</g>
<!-- READ_PID -->
<g id="node3" class="node">
<title>READ_PID</title>
<path fill="#e8e8e8" stroke="black" d="M174.88,-198C174.88,-198 120.62,-198 120.62,-198 114.62,-198 108.62,-192 108.62,-186 108.62,-186 108.62,-174 108.62,-174 108.62,-168 114.62,-162 120.62,-162 120.62,-162 174.88,-162 174.88,-162 180.88,-162 186.88,-168 186.88,-174 186.88,-174 186.88,-186 186.88,-186 186.88,-192 180.88,-198 174.88,-198"/>
<text xml:space="preserve" text-anchor="middle" x="147.75" y="-174.95" font-family="Times,serif" font-size="14.00">READ PID</text>
</g>
<!-- IDLE&#45;&gt;READ_PID -->
<g id="edge1" class="edge">
<title>IDLE&#45;&gt;READ_PID</title>
<path fill="none" stroke="black" d="M63.94,-147.55C76.54,-149.85 91.37,-153.65 104.98,-158.02"/>
<polygon fill="black" stroke="black" points="103.53,-161.22 114.13,-161.13 105.79,-154.59 103.53,-161.22"/>
</g>
<!-- IRRELEVANT -->
<g id="node2" class="node">
<title>IRRELEVANT</title>
<path fill="#e8e8e8" stroke="black" d="M815.62,-176C815.62,-176 740.38,-176 740.38,-176 734.38,-176 728.38,-170 728.38,-164 728.38,-164 728.38,-152 728.38,-152 728.38,-146 734.38,-140 740.38,-140 740.38,-140 815.62,-140 815.62,-140 821.62,-140 827.62,-146 827.62,-152 827.62,-152 827.62,-164 827.62,-164 827.62,-170 821.62,-176 815.62,-176"/>
<text xml:space="preserve" text-anchor="middle" x="778" y="-152.95" font-family="Times,serif" font-size="14.00">IRRELEVANT</text>
</g>
<!-- IRRELEVANT&#45;&gt;IDLE -->
<g id="edge2" class="edge">
<title>IRRELEVANT&#45;&gt;IDLE</title>
<path fill="none" stroke="black" d="M758.47,-176.44C730.23,-202.51 673.54,-247 615.62,-247 146.75,-247 146.75,-247 146.75,-247 105.43,-247 71.79,-209.18 52.24,-180.53"/>
<polygon fill="black" stroke="black" points="55.39,-178.96 46.98,-172.5 49.53,-182.79 55.39,-178.96"/>
</g>
<!-- READ_PID&#45;&gt;IDLE -->
<g id="edge3" class="edge">
<title>READ_PID&#45;&gt;IDLE</title>
<path fill="none" stroke="black" d="M108.23,-179.81C97.39,-177.47 85.55,-174.27 74.57,-170.72"/>
<polygon fill="black" stroke="black" points="75.97,-167.5 65.37,-167.56 73.69,-174.12 75.97,-167.5"/>
</g>
<!-- READ_PID&#45;&gt;IRRELEVANT -->
<g id="edge4" class="edge">
<title>READ_PID&#45;&gt;IRRELEVANT</title>
<path fill="none" stroke="black" d="M187.12,-183.42C214.82,-185.59 253.13,-188 286.88,-188 286.88,-188 286.88,-188 615.62,-188 649.48,-188 686.68,-181.54 716.82,-174.61"/>
<polygon fill="black" stroke="black" points="717.61,-178.02 726.53,-172.3 715.99,-171.21 717.61,-178.02"/>
</g>
<!-- READ_TOKEN_0 -->
<g id="node4" class="node">
<title>READ_TOKEN_0</title>
<path fill="#e8e8e8" stroke="black" d="M331.88,-139C331.88,-139 243.88,-139 243.88,-139 237.88,-139 231.88,-133 231.88,-127 231.88,-127 231.88,-115 231.88,-115 231.88,-109 237.88,-103 243.88,-103 243.88,-103 331.88,-103 331.88,-103 337.88,-103 343.88,-109 343.88,-115 343.88,-115 343.88,-127 343.88,-127 343.88,-133 337.88,-139 331.88,-139"/>
<text xml:space="preserve" text-anchor="middle" x="287.88" y="-115.95" font-family="Times,serif" font-size="14.00">READ TOKEN 0</text>
</g>
<!-- READ_PID&#45;&gt;READ_TOKEN_0 -->
<g id="edge5" class="edge">
<title>READ_PID&#45;&gt;READ_TOKEN_0</title>
<path fill="none" stroke="black" d="M187.23,-163.57C201.49,-157.47 217.95,-150.44 233.32,-143.88"/>
<polygon fill="black" stroke="black" points="234.53,-147.16 242.35,-140.02 231.78,-140.73 234.53,-147.16"/>
</g>
<!-- READ_TOKEN_0&#45;&gt;IDLE -->
<g id="edge6" class="edge">
<title>READ_TOKEN_0&#45;&gt;IDLE</title>
<path fill="none" stroke="black" d="M231.62,-127.11C184.56,-132.31 117.97,-139.67 75.29,-144.39"/>
<polygon fill="black" stroke="black" points="74.98,-140.91 65.43,-145.48 75.75,-147.86 74.98,-140.91"/>
</g>
<!-- READ_TOKEN_1 -->
<g id="node5" class="node">
<title>READ_TOKEN_1</title>
<path fill="#e8e8e8" stroke="black" d="M488.88,-113C488.88,-113 400.88,-113 400.88,-113 394.88,-113 388.88,-107 388.88,-101 388.88,-101 388.88,-89 388.88,-89 388.88,-83 394.88,-77 400.88,-77 400.88,-77 488.88,-77 488.88,-77 494.88,-77 500.88,-83 500.88,-89 500.88,-89 500.88,-101 500.88,-101 500.88,-107 494.88,-113 488.88,-113"/>
<text xml:space="preserve" text-anchor="middle" x="444.88" y="-89.95" font-family="Times,serif" font-size="14.00">READ TOKEN 1</text>
</g>
<!-- READ_TOKEN_0&#45;&gt;READ_TOKEN_1 -->
<g id="edge7" class="edge">
<title>READ_TOKEN_0&#45;&gt;READ_TOKEN_1</title>
<path fill="none" stroke="black" d="M343.96,-111.76C354.79,-109.94 366.26,-108.02 377.43,-106.15"/>
<polygon fill="black" stroke="black" points="377.67,-109.65 386.95,-104.55 376.51,-102.75 377.67,-109.65"/>
</g>
<!-- READ_TOKEN_1&#45;&gt;IDLE -->
<g id="edge8" class="edge">
<title>READ_TOKEN_1&#45;&gt;IDLE</title>
<path fill="none" stroke="black" d="M388.62,-91.09C374.08,-90.22 358.39,-89.44 343.88,-89 294.12,-87.51 281.15,-81.95 231.88,-89 175.38,-97.08 163.19,-108.3 108.62,-125 97.55,-128.39 85.58,-132.17 74.53,-135.7"/>
<polygon fill="black" stroke="black" points="73.75,-132.28 65.3,-138.67 75.89,-138.94 73.75,-132.28"/>
</g>
<!-- READ_TOKEN_1&#45;&gt;IRRELEVANT -->
<g id="edge9" class="edge">
<title>READ_TOKEN_1&#45;&gt;IRRELEVANT</title>
<path fill="none" stroke="black" d="M501.3,-105.54C560.92,-116.89 655.42,-134.87 716.82,-146.55"/>
<polygon fill="black" stroke="black" points="715.92,-149.94 726.4,-148.37 717.23,-143.07 715.92,-149.94"/>
</g>
<!-- TOKEN_COMPLETE -->
<g id="node6" class="node">
<title>TOKEN_COMPLETE</title>
<path fill="#e0c0c0" stroke="black" d="M671.38,-85C671.38,-85 557.88,-85 557.88,-85 551.88,-85 545.88,-79 545.88,-73 545.88,-73 545.88,-61 545.88,-61 545.88,-55 551.88,-49 557.88,-49 557.88,-49 671.38,-49 671.38,-49 677.38,-49 683.38,-55 683.38,-61 683.38,-61 683.38,-73 683.38,-73 683.38,-79 677.38,-85 671.38,-85"/>
<text xml:space="preserve" text-anchor="middle" x="614.62" y="-61.95" font-family="Times,serif" font-size="14.00">TOKEN COMPLETE</text>
</g>
<!-- READ_TOKEN_1&#45;&gt;TOKEN_COMPLETE -->
<g id="edge10" class="edge">
<title>READ_TOKEN_1&#45;&gt;TOKEN_COMPLETE</title>
<path fill="none" stroke="black" d="M501.27,-85.75C511.86,-83.99 523.14,-82.1 534.31,-80.24"/>
<polygon fill="black" stroke="black" points="534.64,-83.73 543.93,-78.63 533.49,-76.83 534.64,-83.73"/>
</g>
<!-- TOKEN_COMPLETE&#45;&gt;IDLE -->
<g id="edge11" class="edge">
<title>TOKEN_COMPLETE&#45;&gt;IDLE</title>
<path fill="none" stroke="black" d="M586.18,-48.51C554.01,-28.68 498.4,0 445.88,0 146.75,0 146.75,0 146.75,0 88.94,0 56.83,-72.04 42.63,-115.94"/>
<polygon fill="black" stroke="black" points="39.36,-114.66 39.77,-125.25 46.05,-116.72 39.36,-114.66"/>
</g>
<!-- TOKEN_COMPLETE&#45;&gt;IRRELEVANT -->
<g id="edge12" class="edge">
<title>TOKEN_COMPLETE&#45;&gt;IRRELEVANT</title>
<path fill="none" stroke="black" d="M662.25,-85.32C676.71,-91.58 692.48,-99.04 706.38,-107 719.63,-114.59 733.42,-124.13 745.26,-132.9"/>
<polygon fill="black" stroke="black" points="742.99,-135.57 753.08,-138.81 747.2,-129.99 742.99,-135.57"/>
</g>
</g>
</svg>
