<?xml version="1.0" encoding="UTF-8" standalone="no"?>
<!DOCTYPE svg PUBLIC "-//W3C//DTD SVG 1.1//EN"
 "http://www.w3.org/Graphics/SVG/1.1/DTD/svg11.dtd">
<!-- Generated by graphviz version 15.1.0 (0)
 -->
<!-- Title: token_detector Pages: 1 -->
<svg width="691pt" height="120pt"
 viewBox="0.00 0.00 691.00 120.00" xmlns="http://www.w3.org/2000/svg" xmlns:xlink="http://www.w3.org/1999/xlink">
<g id="graph0" class="graph" transform="scale(1 1) rotate(0) translate(4 115.75)">
<title>token_detector</title>
<polygon fill="white" stroke="none" points="-4,4 -4,-115.75 687.38,-115.75 687.38,4 -4,4"/>
<text xml:space="preserve" text-anchor="middle" x="341.69" y="-96.35" font-family="Helvetica,sans-Serif" font-size="12.00">State Machine: USBTokenDetector</text>
<!-- IDLE -->
<g id="node1" class="node">
<title>IDLE</title>
<path fill="#c0e0c0" stroke="black" d="M47.62,-40C47.62,-40 17.62,-40 17.62,-40 11.62,-40 5.62,-34 5.62,-28 5.62,-28 5.62,-16 5.62,-16 5.62,-10 11.62,-4 17.62,-4 17.62,-4 47.62,-4 47.62,-4 53.62,-4 59.62,-10 59.62,-16 59.62,-16 59.62,-28 59.62,-28 59.62,-34 53.62,-40 47.62,-40"/>
<path fill="none" stroke="black" d="M51.62,-44C51.62,-44 13.62,-44 13.62,-44 7.62,-44 1.62,-38 1.62,-32 1.62,-32 1.62,-12 1.62,-12 1.62,-6 7.62,0 13.62,0 13.62,0 51.62,0 51.62,0 57.62,0 63.62,-6 63.62,-12 63.62,-12 63.62,-32 63.62,-32 63.62,-38 57.62,-44 51.62,-44"/>
<text xml:space="preserve" text-anchor="middle" x="32.62" y="-16.95" font-family="Times,serif" font-size="14.00">IDLE</text>
</g>
<!-- IDLE&#45;&gt;IDLE -->
<g id="edge6" class="edge">
<title>IDLE&#45;&gt;IDLE</title>
<path fill="none" stroke="#888888" stroke-dasharray="5,2" d="M23.43,-44.28C20.94,-58.88 24,-73 32.62,-73 38.96,-73 42.29,-65.38 42.63,-55.56"/>
<polygon fill="#888888" stroke="#888888" points="46.13,-55.52 41.93,-45.79 39.15,-56.02 46.13,-55.52"/>
<text xml:space="preserve" text-anchor="middle" x="32.62" y="-76.2" font-family="Times,serif" font-size="14.00">rx_active=0</text>
</g>
<!-- READ_PID -->
<g id="node2" class="node">
<title>READ_PID</title>
<path fill="#e8e8e8" stroke="black" d="M174.88,-85C174.88,-85 120.62,-85 120.62,-85 114.62,-85 108.62,-79 108.62,-73 108.62,-73 108.62,-61 108.62,-61 108.62,-55 114.62,-49 120.62,-49 120.62,-49 174.88,-49 174.88,-49 180.88,-49 186.88,-55 186.88,-61 186.88,-61 186.88,-73 186.88,-73 186.88,-79 180.88,-85 174.88,-85"/>
<text xml:space="preserve" text-anchor="middle" x="147.75" y="-61.95" font-family="Times,serif" font-size="14.00">READ PID</text>
</g>
<!-- IDLE&#45;&gt;READ_PID -->
<g id="edge1" class="edge">
<title>IDLE&#45;&gt;READ_PID</title>
<path fill="none" stroke="black" d="M63.94,-34.06C74.36,-38.21 86.31,-42.96 97.83,-47.54"/>
<polygon fill="black" stroke="black" points="96.24,-50.68 106.83,-51.12 98.83,-44.17 96.24,-50.68"/>
</g>
<!-- READ_TOKEN_0 -->
<g id="node3" class="node">
<title>READ_TOKEN_0</title>
<path fill="#e8e8e8" stroke="black" d="M331.88,-85C331.88,-85 243.88,-85 243.88,-85 237.88,-85 231.88,-79 231.88,-73 231.88,-73 231.88,-61 231.88,-61 231.88,-55 237.88,-49 243.88,-49 243.88,-49 331.88,-49 331.88,-49 337.88,-49 343.88,-55 343.88,-61 343.88,-61 343.88,-73 343.88,-73 343.88,-79 337.88,-85 331.88,-85"/>
<text xml:space="preserve" text-anchor="middle" x="287.88" y="-61.95" font-family="Times,serif" font-size="14.00">READ TOKEN 0</text>
</g>
<!-- READ_PID&#45;&gt;READ_TOKEN_0 -->
<g id="edge2" class="edge">
<title>READ_PID&#45;&gt;READ_TOKEN_0</title>
<path fill="none" stroke="black" d="M187.23,-67C197.52,-67 208.96,-67 220.3,-67"/>
<polygon fill="black" stroke="black" points="220.06,-70.5 230.06,-67 220.06,-63.5 220.06,-70.5"/>
</g>
<!-- READ_TOKEN_1 -->
<g id="node4" class="node">
<title>READ_TOKEN_1</title>
<path fill="#e8e8e8" stroke="black" d="M488.88,-85C488.88,-85 400.88,-85 400.88,-85 394.88,-85 388.88,-79 388.88,-73 388.88,-73 388.88,-61 388.88,-61 388.88,-55 394.88,-49 400.88,-49 400.88,-49 488.88,-49 488.88,-49 494.88,-49 500.88,-55 500.88,-61 500.88,-61 500.88,-73 500.88,-73 500.88,-79 494.88,-85 488.88,-85"/>
<text xml:space="preserve" text-anchor="middle" x="444.88" y="-61.95" font-family="Times,serif" font-size="14.00">READ TOKEN 1</text>
</g>
<!-- READ_TOKEN_0&#45;&gt;READ_TOKEN_1 -->
<g id="edge3" class="edge">
<title>READ_TOKEN_0&#45;&gt;READ_TOKEN_1</title>
<path fill="none" stroke="black" d="M343.96,-67C354.68,-67 366.03,-67 377.08,-67"/>
<polygon fill="black" stroke="black" points="376.93,-70.5 386.93,-67 376.93,-63.5 376.93,-70.5"/>
</g>
<!-- TOKEN_COMPLETE -->
<g id="node5" class="node">
<title>TOKEN_COMPLETE</title>
<path fill="#e0c0c0" stroke="black" d="M671.38,-40C671.38,-40 557.88,-40 557.88,-40 551.88,-40 545.88,-34 545.88,-28 545.88,-28 545.88,-16 545.88,-16 545.88,-10 551.88,-4 557.88,-4 557.88,-4 671.38,-4 671.38,-4 677.38,-4 683.38,-10 683.38,-16 683.38,-16 683.38,-28 683.38,-28 683.38,-34 677.38,-40 671.38,-40"/>
<text xml:space="preserve" text-anchor="middle" x="614.62" y="-16.95" font-family="Times,serif" font-size="14.00">TOKEN COMPLETE</text>
</g>
<!-- READ_TOKEN_1&#45;&gt;TOKEN_COMPLETE -->
<g id="edge4" class="edge">
<title>READ_TOKEN_1&#45;&gt;TOKEN_COMPLETE</title>
<path fill="none" stroke="black" d="M501.27,-52.14C511.86,-49.3 523.14,-46.27 534.31,-43.28"/>
<polygon fill="black" stroke="black" points="535.21,-46.66 543.96,-40.69 533.39,-39.9 535.21,-46.66"/>
</g>
<!-- TOKEN_COMPLETE&#45;&gt;IDLE -->
<g id="edge5" class="edge">
<title>TOKEN_COMPLETE&#45;&gt;IDLE</title>
<path fill="none" stroke="#888888" stroke-dasharray="5,2" d="M545.63,-11.96C515.19,-8.28 478.81,-5 445.88,-5 146.75,-5 146.75,-5 146.75,-5 122.79,-5 96.28,-8.78 74.96,-12.77"/>
<polygon fill="#888888" stroke="#888888" points="74.31,-9.33 65.17,-14.69 75.66,-16.2 74.31,-9.33"/>
</g>
</g>
</svg>
