<?xml version="1.0" encoding="UTF-8" standalone="no"?>
<!DOCTYPE svg PUBLIC "-//W3C//DTD SVG 1.1//EN"
 "http://www.w3.org/Graphics/SVG/1.1/DTD/svg11.dtd">
<!-- Generated by graphviz version 15.1.0 (0)
 -->
<!-- Title: transfer_in Pages: 1 -->
<svg width="600pt" height="185pt"
 viewBox="0.00 0.00 600.00 185.00" xmlns="http://www.w3.org/2000/svg" xmlns:xlink="http://www.w3.org/1999/xlink">
<g id="graph0" class="graph" transform="scale(1 1) rotate(0) translate(4 180.75)">
<title>transfer_in</title>
<polygon fill="white" stroke="none" points="-4,4 -4,-180.75 595.75,-180.75 595.75,4 -4,4"/>
<text xml:space="preserve" text-anchor="middle" x="295.88" y="-161.35" font-family="Helvetica,sans-Serif" font-size="12.00">State Machine: USBInTransferManager</text>
<!-- WAIT_FOR_DATA -->
<g id="node1" class="node">
<title>WAIT_FOR_DATA</title>
<path fill="#c0e0c0" stroke="black" d="M111.5,-40C111.5,-40 16,-40 16,-40 10,-40 4,-34 4,-28 4,-28 4,-16 4,-16 4,-10 10,-4 16,-4 16,-4 111.5,-4 111.5,-4 117.5,-4 123.5,-10 123.5,-16 123.5,-16 123.5,-28 123.5,-28 123.5,-34 117.5,-40 111.5,-40"/>
<path fill="none" stroke="black" d="M115.5,-44C115.5,-44 12,-44 12,-44 6,-44 0,-38 0,-32 0,-32 0,-12 0,-12 0,-6 6,0 12,0 12,0 115.5,0 115.5,0 121.5,0 127.5,-6 127.5,-12 127.5,-12 127.5,-32 127.5,-32 127.5,-38 121.5,-44 115.5,-44"/>
<text xml:space="preserve" text-anchor="middle" x="63.75" y="-16.95" font-family="Times,serif" font-size="14.00">WAIT FOR DATA</text>
</g>
<!-- WAIT_TO_SEND -->
<g id="node2" class="node">
<title>WAIT_TO_SEND</title>
<path fill="#e8e8e8" stroke="black" d="M271,-85C271,-85 184.5,-85 184.5,-85 178.5,-85 172.5,-79 172.5,-73 172.5,-73 172.5,-61 172.5,-61 172.5,-55 178.5,-49 184.5,-49 184.5,-49 271,-49 271,-49 277,-49 283,-55 283,-61 283,-61 283,-73 283,-73 283,-79 277,-85 271,-85"/>
<text xml:space="preserve" text-anchor="middle" x="227.75" y="-61.95" font-family="Times,serif" font-size="14.00">WAIT TO SEND</text>
</g>
<!-- WAIT_FOR_DATA&#45;&gt;WAIT_TO_SEND -->
<g id="edge1" class="edge">
<title>WAIT_FOR_DATA&#45;&gt;WAIT_TO_SEND</title>
<path fill="none" stroke="black" d="M127.85,-39.53C138.84,-42.58 150.3,-45.76 161.35,-48.83"/>
<polygon fill="black" stroke="black" points="160.21,-52.15 170.78,-51.45 162.08,-45.4 160.21,-52.15"/>
</g>
<!-- SEND_PACKET -->
<g id="node3" class="node">
<title>SEND_PACKET</title>
<path fill="#e8e8e8" stroke="black" d="M422.75,-85C422.75,-85 340,-85 340,-85 334,-85 328,-79 328,-73 328,-73 328,-61 328,-61 328,-55 334,-49 340,-49 340,-49 422.75,-49 422.75,-49 428.75,-49 434.75,-55 434.75,-61 434.75,-61 434.75,-73 434.75,-73 434.75,-79 428.75,-85 422.75,-85"/>
<text xml:space="preserve" text-anchor="middle" x="381.38" y="-61.95" font-family="Times,serif" font-size="14.00">SEND PACKET</text>
</g>
<!-- WAIT_TO_SEND&#45;&gt;SEND_PACKET -->
<g id="edge2" class="edge">
<title>WAIT_TO_SEND&#45;&gt;SEND_PACKET</title>
<path fill="none" stroke="black" d="M283.49,-67C294.19,-67 305.5,-67 316.47,-67"/>
<polygon fill="black" stroke="black" points="316.23,-70.5 326.23,-67 316.23,-63.5 316.23,-70.5"/>
</g>
<!-- WAIT_FOR_ACK -->
<g id="node4" class="node">
<title>WAIT_FOR_ACK</title>
<path fill="#e8e8e8" stroke="black" d="M579.75,-40C579.75,-40 491.75,-40 491.75,-40 485.75,-40 479.75,-34 479.75,-28 479.75,-28 479.75,-16 479.75,-16 479.75,-10 485.75,-4 491.75,-4 491.75,-4 579.75,-4 579.75,-4 585.75,-4 591.75,-10 591.75,-16 591.75,-16 591.75,-28 591.75,-28 591.75,-34 585.75,-40 579.75,-40"/>
<text xml:space="preserve" text-anchor="middle" x="535.75" y="-16.95" font-family="Times,serif" font-size="14.00">WAIT FOR ACK</text>
</g>
<!-- SEND_PACKET&#45;&gt;WAIT_FOR_ACK -->
<g id="edge3" class="edge">
<title>SEND_PACKET&#45;&gt;WAIT_FOR_ACK</title>
<path fill="none" stroke="black" d="M435.24,-51.39C445.94,-48.23 457.32,-44.87 468.42,-41.59"/>
<polygon fill="black" stroke="black" points="469.34,-44.97 477.94,-38.78 467.35,-38.25 469.34,-44.97"/>
</g>
<!-- WAIT_FOR_ACK&#45;&gt;WAIT_FOR_DATA -->
<g id="edge4" class="edge">
<title>WAIT_FOR_ACK&#45;&gt;WAIT_FOR_DATA</title>
<path fill="none" stroke="#888888" stroke-dasharray="5,2" d="M479.53,-22C395.11,-22 233.79,-22 139.13,-22"/>
<polygon fill="#888888" stroke="#888888" points="139.16,-18.5 129.16,-22 139.16,-25.5 139.16,-18.5"/>
</g>
<!-- IDLE -->
<g id="node5" class="node">
<title>IDLE</title>
<ellipse fill="none" stroke="black" cx="63.75" cy="-91" rx="31.9" ry="18"/>
<text xml:space="preserve" text-anchor="middle" x="63.75" y="-85.95" font-family="Times,serif" font-size="14.00">IDLE</text>
</g>
<!-- IDLE&#45;&gt;IDLE -->
<g id="edge5" class="edge">
<title>IDLE&#45;&gt;IDLE</title>
<path fill="none" stroke="#888888" stroke-dasharray="5,2" d="M50.46,-107.38C43.99,-122.16 48.42,-138 63.75,-138 75.25,-138 80.61,-129.09 79.85,-118.4"/>
<polygon fill="#888888" stroke="#888888" points="83.28,-117.67 77.42,-108.84 76.49,-119.4 83.28,-117.67"/>
<text xml:space="preserve" text-anchor="middle" x="63.75" y="-141.2" font-family="Times,serif" font-size="14.00">rx_active=0</text>
</g>
</g>
</svg>
