<?xml version="1.0" encoding="UTF-8" standalone="no"?>
<!DOCTYPE svg PUBLIC "-//W3C//DTD SVG 1.1//EN"
 "http://www.w3.org/Graphics/SVG/1.1/DTD/svg11.dtd">
<!-- Generated by graphviz version 15.1.0 (0)
 -->
<!-- Title: transfer_in Pages: 1 -->
<svg width="600pt" height="185pt"
 viewBox="0.00 0.00 600.00 185.00" xmlns="http://www.w3.org/2000/svg" xmlns:xlink="http://www.w3.org/1999/xlink">
<g id="graph0" class="graph" transform="scale(1 1) rotate(0) translate(4 180.75)">
<title>transfer_in</title>
<polygon fill="white" stroke="none" points="-4,4 -4,-180.75 595.75,-180.75 595.75,4 -4,4"/>
<text xml:space="preserve" text-anchor="middle" x="295.88" y="-161.35" font-family="Helvetica,sans-Serif" font-size="12.00">State Machine: USBInTransferManager</text>
<!-- WAIT_FOR_DATA -->
<g id="node1" class="node">
<title>WAIT_FOR_DATA</title>
<path fill="#c0e0c0" stroke="black" d="M111.5,-40C111.5,-40 16,-40 16,-40 10,-40 4,-34 4,-28 4,-28 4,-16 4,-16 4,-10 10,-4 16,-4 16,-4 111.5,-4 111.5,-4 117.5,-4 123.5,-10 123.5,-16 123.5,-16 123.5,-28 123.5,-28 123.5,-34 117.5,-40 111.5,-40"/>
<path fill="none" stroke="black" d="M115.5,-44C115.5,-44 12,-44 12,-44 6,-44 0,-38 0,-32 0,-32 0,-12 0,-12 0,-6 6,0 12,0 12,0 115.5,0 115.5,0 121.5,0 127.5,-6 127.5,-12 127.5,-12 127.5,-32 127.5,-32 127.5,-38 121.5,-44 115.5,-44"/>
<text xml:space="preserve" text-anchor="middle" x="63.75" y="-16.95" font-family="Times,serif" font-size="14.00">WAIT FOR DATA</text>
</g>
<!-- WAIT_TO_SEND -->
<g id="node2" class="node">
<title>WAIT_TO_SEND</title>
<path fill="#e8e8e8" stroke="black" d="M271,-40C271,-40 184.5,-40 184.5,-40 178.5,-40 172.5,-34 172.5,-28 172.5,-28 172.5,-16 172.5,-16 172.5,-10 178.5,-4 184.5,-4 184.5,-4 271,-4 271,-4 277,-4 283,-10 283,-16 283,-16 283,-28 283,-28 283,-34 277,-40 271,-40"/>
<text xml:space="preserve" text-anchor="middle" x="227.75" y="-16.95" font-family="Times,serif" font-size="14.00">WAIT TO SEND</text>
</g>
<!-- WAIT_FOR_DATA&#45;&gt;WAIT_TO_SEND -->
<g id="edge1" class="edge">
<title>WAIT_FOR_DATA&#45;&gt;WAIT_TO_SEND</title>
<path fill="none" stroke="black" d="M127.85,-22C138.73,-22 150.06,-22 161.01,-22"/>
<polygon fill="black" stroke="black" points="160.73,-25.5 170.73,-22 160.73,-18.5 160.73,-25.5"/>
</g>
<!-- SEND_PACKET -->
<g id="node3" class="node">
<title>SEND_PACKET</title>
<path fill="#e8e8e8" stroke="black" d="M422.75,-40C422.75,-40 340,-40 340,-40 334,-40 328,-34 328,-28 328,-28 328,-16 328,-16 328,-10 334,-4 340,-4 340,-4 422.75,-4 422.75,-4 428.75,-4 434.75,-10 434.75,-16 434.75,-16 434.75,-28 434.75,-28 434.75,-34 428.75,-40 422.75,-40"/>
<text xml:space="preserve" text-anchor="middle" x="381.38" y="-16.95" font-family="Times,serif" font-size="14.00">SEND PACKET</text>
</g>
<!-- WAIT_TO_SEND&#45;&gt;SEND_PACKET -->
<g id="edge2" class="edge">
<title>WAIT_TO_SEND&#45;&gt;SEND_PACKET</title>
<path fill="none" stroke="black" d="M283.49,-22C294.19,-22 305.5,-22 316.47,-22"/>
<polygon fill="black" stroke="black" points="316.23,-25.5 326.23,-22 316.23,-18.5 316.23,-25.5"/>
</g>
<!-- WAIT_FOR_ACK -->
<g id="node4" class="node">
<title>WAIT_FOR_ACK</title>
<path fill="#e8e8e8" stroke="black" d="M579.75,-40C579.75,-40 491.75,-40 491.75,-40 485.75,-40 479.75,-34 479.75,-28 479.75,-28 479.75,-16 479.75,-16 479.75,-10 485.75,-4 491.75,-4 491.75,-4 579.75,-4 579.75,-4 585.75,-4 591.75,-10 591.75,-16 591.75,-16 591.75,-28 591.75,-28 591.75,-34 585.75,-40 579.75,-40"/>
<text xml:space="preserve" text-anchor="middle" x="535.75" y="-16.95" font-family="Times,serif" font-size="14.00">WAIT FOR ACK</text>
</g>
<!-- SEND_PACKET&#45;&gt;WAIT_FOR_ACK -->
<g id="edge3" class="edge">
<title>SEND_PACKET&#45;&gt;WAIT_FOR_ACK</title>
<path fill="none" stroke="black" d="M435.24,-22C445.83,-22 457.09,-22 468.07,-22"/>
<polygon fill="black" stroke="black" points="467.87,-25.5 477.87,-22 467.87,-18.5 467.87,-25.5"/>
</g>
<!-- IDLE -->
<g id="node5" class="node">
<title>IDLE</title>
<ellipse fill="none" stroke="black" cx="63.75" cy="-91" rx="31.9" ry="18"/>
<text xml:space="preserve" text-anchor="middle" x="63.75" y="-85.95" font-family="Times,serif" font-size="14.00">IDLE</text>
</g>
<!-- IDLE&#45;&gt;IDLE -->
<g id="edge4" class="edge">
<title>IDLE&#45;&gt;IDLE</title>
<path fill="none" stroke="#888888" stroke-dasharray="5,2" d="M50.46,-107.38C43.99,-122.16 48.42,-138 63.75,-138 75.25,-138 80.61,-129.09 79.85,-118.4"/>
<polygon fill="#888888" stroke="#888888" points="83.28,-117.67 77.42,-108.84 76.49,-119.4 83.28,-117.67"/>
<text xml:space="preserve" text-anchor="middle" x="63.75" y="-141.2" font-family="Times,serif" font-size="14.00">rx_active=0</text>
</g>
</g>
</svg>
