<?xml version="1.0" encoding="UTF-8" standalone="no"?>
<!DOCTYPE svg PUBLIC "-//W3C//DTD SVG 1.1//EN"
 "http://www.w3.org/Graphics/SVG/1.1/DTD/svg11.dtd">
<!-- Generated by graphviz version 15.1.0 (0)
 -->
<!-- Title: transfer_in Pages: 1 -->
<svg width="594pt" height="187pt"
 viewBox="0.00 0.00 594.00 187.00" xmlns="http://www.w3.org/2000/svg" xmlns:xlink="http://www.w3.org/1999/xlink">
<g id="graph0" class="graph" transform="scale(1 1) rotate(0) translate(4 183.25)">
<title>transfer_in</title>
<polygon fill="white" stroke="none" points="-4,4 -4,-183.25 589.75,-183.25 589.75,4 -4,4"/>
<text xml:space="preserve" text-anchor="middle" x="292.88" y="-163.85" font-family="Helvetica,sans-Serif" font-size="12.00">State Machine: USBInTransferManager</text>
<!-- SEND_PACKET -->
<g id="node1" class="node">
<title>SEND_PACKET</title>
<path fill="#e8e8e8" stroke="black" d="M94.75,-36C94.75,-36 12,-36 12,-36 6,-36 0,-30 0,-24 0,-24 0,-12 0,-12 0,-6 6,0 12,0 12,0 94.75,0 94.75,0 100.75,0 106.75,-6 106.75,-12 106.75,-12 106.75,-24 106.75,-24 106.75,-30 100.75,-36 94.75,-36"/>
<text xml:space="preserve" text-anchor="middle" x="53.38" y="-12.95" font-family="Times,serif" font-size="14.00">SEND PACKET</text>
</g>
<!-- WAIT_FOR_ACK -->
<g id="node2" class="node">
<title>WAIT_FOR_ACK</title>
<path fill="#e8e8e8" stroke="black" d="M249.75,-73C249.75,-73 161.75,-73 161.75,-73 155.75,-73 149.75,-67 149.75,-61 149.75,-61 149.75,-49 149.75,-49 149.75,-43 155.75,-37 161.75,-37 161.75,-37 249.75,-37 249.75,-37 255.75,-37 261.75,-43 261.75,-49 261.75,-49 261.75,-61 261.75,-61 261.75,-67 255.75,-73 249.75,-73"/>
<text xml:space="preserve" text-anchor="middle" x="205.75" y="-49.95" font-family="Times,serif" font-size="14.00">WAIT FOR ACK</text>
</g>
<!-- SEND_PACKET&#45;&gt;WAIT_FOR_ACK -->
<g id="edge1" class="edge">
<title>SEND_PACKET&#45;&gt;WAIT_FOR_ACK</title>
<path fill="none" stroke="black" d="M106.97,-30.94C117.15,-33.45 127.94,-36.1 138.5,-38.7"/>
<polygon fill="black" stroke="black" points="137.36,-42.02 147.91,-41.01 139.03,-35.23 137.36,-42.02"/>
</g>
<!-- WAIT_FOR_DATA -->
<g id="node3" class="node">
<title>WAIT_FOR_DATA</title>
<path fill="#c0e0c0" stroke="black" d="M416.25,-153C416.25,-153 320.75,-153 320.75,-153 314.75,-153 308.75,-147 308.75,-141 308.75,-141 308.75,-129 308.75,-129 308.75,-123 314.75,-117 320.75,-117 320.75,-117 416.25,-117 416.25,-117 422.25,-117 428.25,-123 428.25,-129 428.25,-129 428.25,-141 428.25,-141 428.25,-147 422.25,-153 416.25,-153"/>
<path fill="none" stroke="black" d="M420.25,-157C420.25,-157 316.75,-157 316.75,-157 310.75,-157 304.75,-151 304.75,-145 304.75,-145 304.75,-125 304.75,-125 304.75,-119 310.75,-113 316.75,-113 316.75,-113 420.25,-113 420.25,-113 426.25,-113 432.25,-119 432.25,-125 432.25,-125 432.25,-145 432.25,-145 432.25,-151 426.25,-157 420.25,-157"/>
<text xml:space="preserve" text-anchor="middle" x="368.5" y="-129.95" font-family="Times,serif" font-size="14.00">WAIT FOR DATA</text>
</g>
<!-- WAIT_FOR_ACK&#45;&gt;WAIT_FOR_DATA -->
<g id="edge2" class="edge">
<title>WAIT_FOR_ACK&#45;&gt;WAIT_FOR_DATA</title>
<path fill="none" stroke="black" d="M243.63,-73.35C263.97,-83.47 289.62,-96.24 312.3,-107.53"/>
<polygon fill="black" stroke="black" points="310.61,-110.6 321.12,-111.92 313.73,-104.33 310.61,-110.6"/>
</g>
<!-- WAIT_TO_SEND -->
<g id="node4" class="node">
<title>WAIT_TO_SEND</title>
<path fill="#e8e8e8" stroke="black" d="M573.75,-73C573.75,-73 487.25,-73 487.25,-73 481.25,-73 475.25,-67 475.25,-61 475.25,-61 475.25,-49 475.25,-49 475.25,-43 481.25,-37 487.25,-37 487.25,-37 573.75,-37 573.75,-37 579.75,-37 585.75,-43 585.75,-49 585.75,-49 585.75,-61 585.75,-61 585.75,-67 579.75,-73 573.75,-73"/>
<text xml:space="preserve" text-anchor="middle" x="530.5" y="-49.95" font-family="Times,serif" font-size="14.00">WAIT TO SEND</text>
</g>
<!-- WAIT_FOR_ACK&#45;&gt;WAIT_TO_SEND -->
<g id="edge3" class="edge">
<title>WAIT_FOR_ACK&#45;&gt;WAIT_TO_SEND</title>
<path fill="none" stroke="black" d="M262.23,-46.55C318.08,-43.5 404.21,-43.33 463.52,-46.03"/>
<polygon fill="black" stroke="black" points="463.33,-49.52 473.5,-46.53 463.69,-42.53 463.33,-49.52"/>
</g>
<!-- WAIT_FOR_DATA&#45;&gt;WAIT_TO_SEND -->
<g id="edge4" class="edge">
<title>WAIT_FOR_DATA&#45;&gt;WAIT_TO_SEND</title>
<path fill="none" stroke="black" d="M397.37,-112.58C415.93,-101.28 441.13,-87.94 464.54,-76.78"/>
<polygon fill="black" stroke="black" points="465.84,-80.03 473.42,-72.62 462.88,-73.69 465.84,-80.03"/>
</g>
<!-- WAIT_TO_SEND&#45;&gt;SEND_PACKET -->
<g id="edge5" class="edge">
<title>WAIT_TO_SEND&#45;&gt;SEND_PACKET</title>
<path fill="none" stroke="black" d="M474.78,-46.92C420.76,-39.31 335.76,-28.3 261.75,-23 213.75,-19.56 159.36,-18.35 118.33,-17.98"/>
<polygon fill="black" stroke="black" points="118.4,-14.48 108.37,-17.9 118.34,-21.48 118.4,-14.48"/>
</g>
<!-- WAIT_TO_SEND&#45;&gt;WAIT_FOR_ACK -->
<g id="edge6" class="edge">
<title>WAIT_TO_SEND&#45;&gt;WAIT_FOR_ACK</title>
<path fill="none" stroke="black" d="M475.01,-63.39C419.41,-66.49 333.06,-66.69 273.42,-64"/>
<polygon fill="black" stroke="black" points="273.91,-60.52 263.74,-63.52 273.56,-67.51 273.91,-60.52"/>
</g>
<!-- WAIT_TO_SEND&#45;&gt;WAIT_FOR_DATA -->
<g id="edge7" class="edge">
<title>WAIT_TO_SEND&#45;&gt;WAIT_FOR_DATA</title>
<path fill="none" stroke="black" d="M508.09,-73.39C491.22,-84.17 466.64,-97.51 442.86,-109.16"/>
<polygon fill="black" stroke="black" points="441.59,-105.89 434.1,-113.38 444.63,-112.2 441.59,-105.89"/>
</g>
<!-- WAIT_TO_SEND&#45;&gt;WAIT_TO_SEND -->
<g id="edge8" class="edge">
<title>WAIT_TO_SEND&#45;&gt;WAIT_TO_SEND</title>
<path fill="none" stroke="black" d="M504.05,-73.33C494.16,-87.52 502.97,-102 530.5,-102 550.93,-102 561.05,-94.03 560.87,-84.11"/>
<polygon fill="black" stroke="black" points="564.18,-82.96 557.47,-74.75 557.6,-85.35 564.18,-82.96"/>
</g>
</g>
</svg>
